<svg width="32" height="32" viewBox="0 0 32 32" fill="none" xmlns="http://www.w3.org/2000/svg">
<g clip-path="url(#clip0_1_479)">
<path d="M16 31.967C12.842 31.967 9.75496 31.0306 7.12919 29.2761C4.50343 27.5216 2.45689 25.0279 1.24838 22.1103C0.0398767 19.1927 -0.276324 15.9823 0.339769 12.885C0.955862 9.7877 2.47658 6.94265 4.70961 4.70962C7.70401 1.71522 11.7653 0.0329895 16 0.0329895C20.2347 0.0329895 24.296 1.71522 27.2904 4.70962C30.2848 7.70402 31.967 11.7653 31.967 16C31.967 20.2347 30.2848 24.296 27.2904 27.2904C25.8112 28.7777 24.0517 29.9569 22.1137 30.7597C20.1757 31.5624 18.0977 31.9728 16 31.967Z" fill="#DA1A5F"/>
<path d="M16 0.0659794C19.6755 0.0688616 23.2371 1.34203 26.0815 3.66985C28.9259 5.99768 30.8784 9.23708 31.6082 12.8394C32.3379 16.4418 31.8002 20.1856 30.0861 23.437C28.3719 26.6883 25.5867 29.2472 22.2021 30.6804C18.3199 32.264 13.97 32.2541 10.0951 30.6528C6.22018 29.0515 3.13231 25.9878 1.50063 22.1256C-0.13106 18.2633 -0.175125 13.9137 1.37798 10.0192C2.93108 6.12471 5.95625 2.99907 9.79794 1.31959C11.7599 0.488723 13.8694 0.0623427 16 0.0659794ZM16 0C7.16338 0 0 7.16338 0 16C0 24.8366 7.16338 32 16 32C24.8366 32 32 24.8366 32 16C32 7.16338 24.8366 0 16 0Z" fill="#DA1A5F"/>
<path d="M18.0256 23.1733C18.0256 22.6802 17.8716 22.2729 17.5637 21.9513C17.2558 21.6298 16.7328 21.3327 15.9947 21.0599C14.8243 20.6641 13.9465 20.1697 13.3615 19.5767C12.7765 18.9838 12.484 18.1733 12.484 17.1454C12.484 16.1777 12.7628 15.3848 13.3206 14.7668C13.8783 14.1488 14.6428 13.782 15.614 13.6663V11.902C15.614 11.867 15.6279 11.8334 15.6527 11.8087C15.6774 11.784 15.711 11.7701 15.746 11.7701H16.7984C16.8334 11.7701 16.8669 11.784 16.8917 11.8087C16.9164 11.8334 16.9303 11.867 16.9303 11.902V13.6835C17.8905 13.8154 18.6357 14.2155 19.1657 14.8836C19.6803 15.5322 20.0023 16.4091 20.0102 17.4568C20.0102 17.4822 20.0009 17.5068 19.9842 17.5259C19.9674 17.5451 19.9444 17.5576 19.9192 17.5611H18.1061C18.0721 17.5611 18.0394 17.548 18.0148 17.5245C17.9902 17.5011 17.9756 17.469 17.9741 17.435C17.9556 16.8214 17.8017 16.3314 17.5123 15.965C17.2044 15.5735 16.7711 15.3778 16.2125 15.3778C15.627 15.3778 15.1937 15.5359 14.9127 15.8522C14.6316 16.1685 14.4908 16.5931 14.4904 17.1263C14.4904 17.6251 14.6367 18.0251 14.9292 18.3264C15.2217 18.6277 15.7627 18.9321 16.5523 19.2396C17.7223 19.6403 18.5956 20.1362 19.1723 20.7274C19.749 21.3186 20.0375 22.129 20.0379 23.1588C20.0379 24.1625 19.7468 24.9629 19.1644 25.5597C18.582 26.1566 17.783 26.5103 16.7673 26.6207V28.1851C16.7673 28.2201 16.7534 28.2536 16.7287 28.2784C16.7039 28.3031 16.6704 28.317 16.6354 28.317H15.583C15.548 28.317 15.5145 28.3031 15.4897 28.2784C15.465 28.2536 15.4511 28.2201 15.4511 28.1851V26.6266C14.4574 26.5224 13.639 26.1542 12.996 25.5221C12.3738 24.9105 11.968 23.9881 11.9621 22.817C11.9619 22.7842 11.974 22.7524 11.9959 22.728C12.0179 22.7036 12.0482 22.6883 12.0808 22.685H13.8966C13.9308 22.685 13.9637 22.6983 13.9883 22.722C14.0129 22.7458 14.0273 22.7782 14.0285 22.8124C14.0479 23.5522 14.2406 24.084 14.6065 24.4077C14.9923 24.7495 15.4807 24.9204 16.0719 24.9204C16.7014 24.9204 17.1852 24.7638 17.5235 24.4506C17.8617 24.1374 18.0291 23.7117 18.0256 23.1733Z" fill="white"/>
<path d="M17.0536 6.71449L14.2147 3.87556C13.6994 3.36023 12.8639 3.36023 12.3485 3.87556C11.8332 4.39089 11.8332 5.22641 12.3485 5.74174L15.1875 8.58067C15.7028 9.096 16.5383 9.096 17.0536 8.58066C17.569 8.06533 17.569 7.22982 17.0536 6.71449Z" fill="white"/>
<path d="M18.7177 6.17107C19.4465 6.17107 20.0373 5.58027 20.0373 4.85148C20.0373 4.12269 19.4465 3.53189 18.7177 3.53189C17.9889 3.53189 17.3981 4.12269 17.3981 4.85148C17.3981 5.58027 17.9889 6.17107 18.7177 6.17107Z" fill="white"/>
</g>
<defs>
<clipPath id="clip0_1_479">
<rect width="32" height="32" fill="white"/>
</clipPath>
</defs>
</svg>
