<svg width="33" height="32" viewBox="0 0 33 32" fill="none" xmlns="http://www.w3.org/2000/svg">
<circle cx="16.8406" cy="16" r="16" fill="#F0B90A"/>
<path fill-rule="evenodd" clip-rule="evenodd" d="M16.6964 10.0108L12.5534 14.1536L10.1429 11.743L16.6964 5.18915L23.2521 11.7451L20.8414 14.1558L16.6964 10.0108ZM8.44063 13.4447L6.0299 15.8555L8.44049 18.2661L10.8512 15.8553L8.44063 13.4447ZM12.5534 17.558L16.6964 21.7008L20.8413 17.556L23.2532 19.9654L23.2521 19.9666L16.6964 26.5225L10.1427 19.9689L10.1393 19.9655L12.5534 17.558ZM24.9527 13.4461L22.5419 15.8568L24.9525 18.2674L27.3632 15.8567L24.9527 13.4461Z" fill="white"/>
<path d="M19.1242 15.9988H19.1252L16.8406 13.7143L15.1522 15.4026H15.1521L14.9582 15.5966L14.5581 15.9968L14.5549 15.9999L14.5581 16.0032L16.8406 18.2857L19.1252 16.0012L19.1263 15.9999L19.1242 15.9988Z" fill="white"/>
</svg>
