<svg width="19" height="14" viewBox="0 0 19 14" fill="none" xmlns="http://www.w3.org/2000/svg">
<path fill-rule="evenodd" clip-rule="evenodd" d="M6.38904 13.7811C12.9281 13.7811 16.5039 8.85871 16.5039 4.59035C16.5039 4.45048 16.5008 4.31123 16.4938 4.17274C17.1878 3.71684 17.7913 3.14796 18.2673 2.50023C17.6302 2.75731 16.9448 2.93062 16.2257 3.00872C16.9597 2.60893 17.5232 1.97613 17.7889 1.2219C17.1019 1.5919 16.3413 1.861 15.5316 2.00591C14.8829 1.37808 13.959 0.985352 12.9367 0.985352C10.9732 0.985352 9.38111 2.43203 9.38111 4.21538C9.38111 4.46893 9.41237 4.71536 9.47329 4.95191C6.51879 4.81695 3.89885 3.5315 2.14564 1.57697C1.84005 2.05422 1.66421 2.60893 1.66421 3.20049C1.66421 4.32125 2.29182 5.31057 3.24615 5.88934C2.66311 5.87303 2.11521 5.72743 1.63607 5.48521C1.63524 5.49869 1.63524 5.51223 1.63524 5.5264C1.63524 7.09103 2.86086 8.39707 4.48737 8.69326C4.18885 8.76707 3.87459 8.80687 3.55022 8.80687C3.32122 8.80687 3.09845 8.78628 2.88193 8.74862C3.33452 10.032 4.64685 10.9659 6.20301 10.9922C4.98606 11.8586 3.45332 12.3749 1.78772 12.3749C1.50084 12.3749 1.21792 12.36 0.939636 12.3302C2.51306 13.2463 4.38111 13.7811 6.38904 13.7811Z" fill="white"/>
</svg>
