<svg width="19" height="16" viewBox="0 0 19 16" fill="none" xmlns="http://www.w3.org/2000/svg">
<path fill-rule="evenodd" clip-rule="evenodd" d="M5.19598 9.88397L6.68304 14.6256C6.78885 14.9625 7.18685 15.0829 7.44912 14.8572L11.8908 11.0355C11.8908 11.0355 7.17091 9.11638 7.17091 9.22105C7.17091 9.32585 5.19598 9.88397 5.19598 9.88397Z" fill="#999999"/>
<path fill-rule="evenodd" clip-rule="evenodd" d="M17.3383 0.896398C14.3545 2.06035 4.72331 5.95304 1.07804 7.42788C0.596716 7.6227 0.6256 8.30371 1.12131 8.45946L5.28335 9.7671L6.8083 14.368C6.86961 14.5529 7.0245 14.6722 7.1973 14.7043C7.33756 14.7303 7.54455 10.9785 7.54455 10.9785C7.54455 10.9785 11.9199 14.1789 13.9953 15.6904C14.5066 16.0627 15.2367 15.7827 15.3579 15.1674C15.9761 12.0246 17.5219 4.16668 18.0504 1.48036C18.1298 1.07642 17.7263 0.74512 17.3383 0.896398Z" fill="#FEF6F9"/>
<path fill-rule="evenodd" clip-rule="evenodd" d="M7.09059 14.5297C7.22945 14.556 7.43424 10.7523 7.43424 10.7523L14.5504 4.00091C14.5986 3.95525 14.541 3.87831 14.4844 3.91249L5.19568 9.5241L6.70549 14.1887C6.76605 14.3762 6.91939 14.4971 7.09059 14.5297Z" fill="#DADADA"/>
</svg>
