<svg width="19" height="14" viewBox="0 0 19 14" fill="none" xmlns="http://www.w3.org/2000/svg">
<path d="M18.2 2.81389H17.5146C17.2602 2.81389 16.9004 3.16163 16.9004 3.38421V11.4526C16.9004 11.6754 17.2602 11.9793 17.5146 11.9793H18.2V13.8944H11.9909V11.9793H13.2905V3.49783H13.2268L10.192 13.8944H7.84249L4.84684 3.49783H4.77103V11.9793H6.07061V13.8944H0.872314V11.9793H1.53801C1.81207 11.9793 2.17189 11.6754 2.17189 11.4526V3.38414C2.17189 3.16157 1.81207 2.81383 1.53801 2.81383H0.872314V0.898712H7.37248L9.50662 8.42252H9.56551L11.7192 0.898712H18.2V2.81389Z" fill="white"/>
</svg>
