<svg width="28" height="28" viewBox="0 0 28 28" fill="none" xmlns="http://www.w3.org/2000/svg">
<g filter="url(#filter0_d_932_1112)">
<g filter="url(#filter1_b_932_1112)">
<path fill-rule="evenodd" clip-rule="evenodd" d="M14.7284 19.7003H16.4675C20.6276 19.7003 24 16.3279 24 12.1678C24 8.99054 22.0329 6.27275 19.2501 5.16588C18.6857 2.22334 16.0979 -1.35817e-07 12.9907 0C9.88351 1.3582e-07 7.29562 2.22342 6.73126 5.16604C3.94869 6.27301 1.98175 8.9907 1.98175 12.1678C1.98175 16.3279 5.35419 19.7003 9.51431 19.7003H11.2518V22.5976C11.2518 23.5576 12.0301 24.3359 12.9901 24.3359C13.9501 24.3359 14.7284 23.5576 14.7284 22.5976V19.7003Z" fill="#2EADD4"/>
</g>
<g filter="url(#filter2_bd_932_1112)">
<mask id="path-2-inside-1_932_1112" fill="white">
<path fill-rule="evenodd" clip-rule="evenodd" d="M11.4904 20.1574H13.0571C16.8069 20.1574 19.8468 17.1176 19.8468 13.3677C19.8468 10.5038 18.0735 8.05397 15.5651 7.05631C15.0563 4.40406 12.7237 2.40009 9.92302 2.40009C7.12227 2.40009 4.7896 4.40422 4.2809 7.05662C1.77286 8.05447 0 10.5041 0 13.3677C0 17.1176 3.03985 20.1574 6.78969 20.1574H8.35669V22.7689C8.35669 23.6343 9.05819 24.3358 9.92354 24.3358C10.7889 24.3358 11.4904 23.6343 11.4904 22.7689V20.1574Z"/>
</mask>
<path fill-rule="evenodd" clip-rule="evenodd" d="M11.4904 20.1574H13.0571C16.8069 20.1574 19.8468 17.1176 19.8468 13.3677C19.8468 10.5038 18.0735 8.05397 15.5651 7.05631C15.0563 4.40406 12.7237 2.40009 9.92302 2.40009C7.12227 2.40009 4.7896 4.40422 4.2809 7.05662C1.77286 8.05447 0 10.5041 0 13.3677C0 17.1176 3.03985 20.1574 6.78969 20.1574H8.35669V22.7689C8.35669 23.6343 9.05819 24.3358 9.92354 24.3358C10.7889 24.3358 11.4904 23.6343 11.4904 22.7689V20.1574Z" fill="url(#paint0_linear_932_1112)" shape-rendering="crispEdges"/>
<path d="M11.4904 20.1574V19.6574H10.9904V20.1574H11.4904ZM15.5651 7.05631L15.074 7.15052L15.1257 7.41964L15.3803 7.52091L15.5651 7.05631ZM9.92302 2.40009V1.90009V2.40009ZM4.2809 7.05662L4.46573 7.5212L4.72033 7.4199L4.77195 7.1508L4.2809 7.05662ZM8.35669 20.1574H8.85669V19.6574H8.35669V20.1574ZM11.4904 20.6574H13.0571V19.6574H11.4904V20.6574ZM13.0571 20.6574C17.0831 20.6574 20.3468 17.3937 20.3468 13.3677H19.3468C19.3468 16.8414 16.5308 19.6574 13.0571 19.6574V20.6574ZM20.3468 13.3677C20.3468 10.2921 18.4422 7.66248 15.7499 6.59171L15.3803 7.52091C17.7049 8.44545 19.3468 10.7155 19.3468 13.3677H20.3468ZM16.0561 6.9621C15.503 4.07876 12.968 1.90009 9.92302 1.90009V2.90009C12.4794 2.90009 14.6095 4.72936 15.074 7.15052L16.0561 6.9621ZM9.92302 1.90009C6.87796 1.90009 4.34288 4.07893 3.78985 6.96244L4.77195 7.1508C5.23633 4.72951 7.36657 2.90009 9.92302 2.90009V1.90009ZM4.09606 6.59204C1.40421 7.66302 -0.5 10.2924 -0.5 13.3677H0.5C0.5 10.7157 2.1415 8.44592 4.46573 7.5212L4.09606 6.59204ZM-0.5 13.3677C-0.5 17.3937 2.76371 20.6574 6.78969 20.6574V19.6574C3.31599 19.6574 0.5 16.8414 0.5 13.3677H-0.5ZM6.78969 20.6574H8.35669V19.6574H6.78969V20.6574ZM8.85669 22.7689V20.1574H7.85669V22.7689H8.85669ZM9.92354 23.8358C9.33433 23.8358 8.85669 23.3581 8.85669 22.7689H7.85669C7.85669 23.9104 8.78205 24.8358 9.92354 24.8358V23.8358ZM10.9904 22.7689C10.9904 23.3581 10.5127 23.8358 9.92354 23.8358V24.8358C11.065 24.8358 11.9904 23.9104 11.9904 22.7689H10.9904ZM10.9904 20.1574V22.7689H11.9904V20.1574H10.9904Z" fill="url(#paint1_linear_932_1112)" fill-opacity="0.5" style="mix-blend-mode:overlay" mask="url(#path-2-inside-1_932_1112)"/>
</g>
</g>
<defs>
<filter id="filter0_d_932_1112" x="0" y="0" width="28" height="28.3359" filterUnits="userSpaceOnUse" color-interpolation-filters="sRGB">
<feFlood flood-opacity="0" result="BackgroundImageFix"/>
<feColorMatrix in="SourceAlpha" type="matrix" values="0 0 0 0 0 0 0 0 0 0 0 0 0 0 0 0 0 0 127 0" result="hardAlpha"/>
<feOffset dx="2" dy="2"/>
<feGaussianBlur stdDeviation="1"/>
<feComposite in2="hardAlpha" operator="out"/>
<feColorMatrix type="matrix" values="0 0 0 0 0 0 0 0 0 0 0 0 0 0 0 0 0 0 0.25 0"/>
<feBlend mode="normal" in2="BackgroundImageFix" result="effect1_dropShadow_932_1112"/>
<feBlend mode="normal" in="SourceGraphic" in2="effect1_dropShadow_932_1112" result="shape"/>
</filter>
<filter id="filter1_b_932_1112" x="-2.01825" y="-4" width="30.0182" height="32.3359" filterUnits="userSpaceOnUse" color-interpolation-filters="sRGB">
<feFlood flood-opacity="0" result="BackgroundImageFix"/>
<feGaussianBlur in="BackgroundImageFix" stdDeviation="2"/>
<feComposite in2="SourceAlpha" operator="in" result="effect1_backgroundBlur_932_1112"/>
<feBlend mode="normal" in="SourceGraphic" in2="effect1_backgroundBlur_932_1112" result="shape"/>
</filter>
<filter id="filter2_bd_932_1112" x="-4" y="-1.59991" width="27.8467" height="29.9357" filterUnits="userSpaceOnUse" color-interpolation-filters="sRGB">
<feFlood flood-opacity="0" result="BackgroundImageFix"/>
<feGaussianBlur in="BackgroundImageFix" stdDeviation="2"/>
<feComposite in2="SourceAlpha" operator="in" result="effect1_backgroundBlur_932_1112"/>
<feColorMatrix in="SourceAlpha" type="matrix" values="0 0 0 0 0 0 0 0 0 0 0 0 0 0 0 0 0 0 127 0" result="hardAlpha"/>
<feOffset dx="2"/>
<feGaussianBlur stdDeviation="1"/>
<feComposite in2="hardAlpha" operator="out"/>
<feColorMatrix type="matrix" values="0 0 0 0 0 0 0 0 0 0 0 0 0 0 0 0 0 0 0.2 0"/>
<feBlend mode="normal" in2="effect1_backgroundBlur_932_1112" result="effect2_dropShadow_932_1112"/>
<feBlend mode="normal" in="SourceGraphic" in2="effect2_dropShadow_932_1112" result="shape"/>
</filter>
<linearGradient id="paint0_linear_932_1112" x1="14.0981" y1="7.71257" x2="6.14469" y2="22.8214" gradientUnits="userSpaceOnUse">
<stop stop-color="white" stop-opacity="0.8"/>
<stop offset="1" stop-color="#E7E7E7" stop-opacity="0.3"/>
</linearGradient>
<linearGradient id="paint1_linear_932_1112" x1="16.8062" y1="11.4944" x2="0.27094" y2="14.4743" gradientUnits="userSpaceOnUse">
<stop stop-color="white"/>
<stop offset="0.640625" stop-color="#EA9D9D" stop-opacity="0"/>
</linearGradient>
</defs>
</svg>
