<svg width="28" height="28" viewBox="0 0 28 28" fill="none" xmlns="http://www.w3.org/2000/svg">
<g filter="url(#filter0_d_932_1125)">
<circle cx="16.5644" cy="12.6619" r="7.43564" fill="#2EADD4"/>
<g filter="url(#filter1_bd_932_1125)">
<g filter="url(#filter2_bd_932_1125)">
<path d="M15.7055 13.1679L13.2324 8.88431L15.6172 4.75372C16.3238 3.52985 15.4405 2 14.0273 2H6.07799C4.66479 2 3.78153 3.52985 4.48813 4.75372L6.87293 8.88431L4.39981 13.1679C9.37778 13.1679 11.0311 13.1679 15.7055 13.1679Z" fill="url(#paint0_linear_932_1125)" shape-rendering="crispEdges"/>
<path d="M13.0159 8.75931L12.9437 8.88431L13.0159 9.00931L15.2725 12.9179H15.2496H15.2234H15.1973H15.1712H15.1451H15.1192H15.0933H15.0674H15.0416H15.0159H14.9903H14.9647H14.9391H14.9137H14.8882H14.8629H14.8376H14.8124H14.7872H14.7621H14.737H14.712H14.6871H14.6622H14.6374H14.6126H14.5879H14.5633H14.5387H14.5142H14.4897H14.4652H14.4409H14.4166H14.3923H14.3681H14.3439H14.3199H14.2958H14.2718H14.2479H14.224H14.2002H14.1764H14.1527H14.129H14.1054H14.0818H14.0583H14.0348H14.0114H13.988H13.9647H13.9415H13.9182H13.8951H13.8719H13.8489H13.8258H13.8029H13.7799H13.7571H13.7342H13.7114H13.6887H13.666H13.6433H13.6207H13.5982H13.5757H13.5532H13.5308H13.5084H13.4861H13.4638H13.4415H13.4193H13.3971H13.375H13.3529H13.3309H13.3089H13.287H13.265H13.2432H13.2213H13.1995H13.1778H13.1561H13.1344H13.1128H13.0912H13.0696H13.0481H13.0266H13.0052H12.9838H12.9624H12.9411H12.9198H12.8985H12.8773H12.8561H12.835H12.8138H12.7928H12.7717H12.7507H12.7297H12.7088H12.6879H12.667H12.6461H12.6253H12.6045H12.5838H12.5631H12.5424H12.5217H12.5011H12.4805H12.46H12.4394H12.4189H12.3985H12.378H12.3576H12.3372H12.3168H12.2965H12.2762H12.2559H12.2357H12.2155H12.1953H12.1751H12.155H12.1348H12.1148H12.0947H12.0746H12.0546H12.0346H12.0147H11.9947H11.9748H11.9549H11.935H11.9152H11.8953H11.8755H11.8557H11.836H11.8162H11.7965H11.7768H11.7571H11.7375H11.7178H11.6982H11.6786H11.659H11.6395H11.6199H11.6004H11.5809H11.5614H11.5419H11.5224H11.503H11.4836H11.4642H11.4448H11.4254H11.406H11.3867H11.3673H11.348H11.3287H11.3094H11.2901H11.2709H11.2516H11.2324H11.2132H11.1939H11.1747H11.1555H11.1364H11.1172H11.098H11.0789H11.0598H11.0406H11.0215H11.0024H10.9833H10.9642H10.9451H10.926H10.907H10.8879H10.8689H10.8498H10.8308H10.8118H10.7927H10.7737H10.7547H10.7357H10.7167H10.6977H10.6787H10.6597H10.6407H10.6217H10.6027H10.5838H10.5648H10.5458H10.5269H10.5079H10.4889H10.47H10.451H10.432H10.4131H10.3941H10.3751H10.3562H10.3372H10.3183H10.2993H10.2803H10.2614H10.2424H10.2234H10.2044H10.1855H10.1665H10.1475H10.1285H10.1095H10.0905H10.0715H10.0525H10.0335H10.0145H9.99546H9.97643H9.9574H9.93836H9.91931H9.90025H9.88119H9.86212H9.84304H9.82395H9.80486H9.78575H9.76664H9.74752H9.72838H9.70924H9.69009H9.67092H9.65175H9.63256H9.61337H9.59416H9.57494H9.5557H9.53646H9.5172H9.49793H9.47864H9.45934H9.44003H9.42071H9.40136H9.38201H9.36264H9.34325H9.32385H9.30443H9.28499H9.26554H9.24608H9.22659H9.20709H9.18757H9.16803H9.14847H9.1289H9.10931H9.08969H9.07006H9.05041H9.03074H9.01105H8.99133H8.9716H8.95185H8.93207H8.91227H8.89246H8.87261H8.85275H8.83286H8.81295H8.79302H8.77307H8.75308H8.73308H8.71305H8.693H8.67292H8.65281H8.63269H8.61253H8.59235H8.57214H8.55191H8.53164H8.51135H8.49104H8.47069H8.45032H8.42992H8.40949H8.38903H8.36854H8.34802H8.32748H8.3069H8.28629H8.26565H8.24498H8.22428H8.20355H8.18278H8.16198H8.14116H8.12029H8.0994H8.07847H8.05751H8.03651H8.01548H7.99442H7.97332H7.95219H7.93102H7.90981H7.88857H7.8673H7.84599H7.82464H7.80325H7.78183H7.76037H7.73887H7.71733H7.69575H7.67414H7.65249H7.6308H7.60906H7.58729H7.56548H7.54363H7.52174H7.4998H7.47783H7.45581H7.43375H7.41165H7.38951H7.36733H7.3451H7.32283H7.30051H7.27816H7.25575H7.23331H7.21082H7.18828H7.1657H7.14307H7.1204H7.09768H7.07492H7.05211H7.02925H7.00634H6.98339H6.96039H6.93734H6.91424H6.8911H6.8679H6.84466H6.82137H6.79803H6.77463H6.75119H6.7277H6.70415H6.68056H6.65691H6.63321H6.60946H6.58566H6.5618H6.53789H6.51393H6.48992H6.46585H6.44173H6.41755H6.39332H6.36903H6.34469H6.3203H6.29584H6.27134H6.24677H6.22215H6.19747H6.17274H6.14795H6.1231H6.09819H6.07322H6.0482H6.02312H5.99797H5.97277H5.94751H5.92219H5.89681H5.87137H5.84586H5.8203H5.79468H5.76899H5.74324H5.71743H5.69156H5.66562H5.63962H5.61356H5.58743H5.56124H5.53499H5.50867H5.48229H5.45584H5.42932H5.40274H5.3761H5.34939H5.32261H5.29577H5.26885H5.24188H5.21483H5.18772H5.16053H5.13328H5.10596H5.07857H5.05112H5.02359H4.99599H4.96832H4.94059H4.91278H4.8849H4.85695H4.83282L7.08943 9.00931L7.1616 8.88431L7.08943 8.75931L4.70464 4.62872C4.09426 3.57151 4.85724 2.25 6.07799 2.25H14.0273C15.2481 2.25 16.011 3.57151 15.4007 4.62872L13.0159 8.75931Z" stroke="url(#paint1_linear_932_1125)" stroke-opacity="0.5" stroke-width="0.5" style="mix-blend-mode:overlay" shape-rendering="crispEdges"/>
</g>
<path fill-rule="evenodd" clip-rule="evenodd" d="M3.11254 15.3978L0.248692 20.3581C-0.457914 21.582 0.425338 23.1118 1.83855 23.1118H18.2671C19.6803 23.1118 20.5636 21.582 19.857 20.3581L16.9932 15.3978H3.11254Z" fill="url(#paint2_linear_932_1125)"/>
</g>
</g>
<defs>
<filter id="filter0_d_932_1125" x="0" y="2" width="28" height="25.1118" filterUnits="userSpaceOnUse" color-interpolation-filters="sRGB">
<feFlood flood-opacity="0" result="BackgroundImageFix"/>
<feColorMatrix in="SourceAlpha" type="matrix" values="0 0 0 0 0 0 0 0 0 0 0 0 0 0 0 0 0 0 127 0" result="hardAlpha"/>
<feOffset dx="2" dy="2"/>
<feGaussianBlur stdDeviation="1"/>
<feComposite in2="hardAlpha" operator="out"/>
<feColorMatrix type="matrix" values="0 0 0 0 0 0 0 0 0 0 0 0 0 0 0 0 0 0 0.25 0"/>
<feBlend mode="normal" in2="BackgroundImageFix" result="effect1_dropShadow_932_1125"/>
<feBlend mode="normal" in="SourceGraphic" in2="effect1_dropShadow_932_1125" result="shape"/>
</filter>
<filter id="filter1_bd_932_1125" x="-4" y="-2" width="28.1057" height="29.1118" filterUnits="userSpaceOnUse" color-interpolation-filters="sRGB">
<feFlood flood-opacity="0" result="BackgroundImageFix"/>
<feGaussianBlur in="BackgroundImageFix" stdDeviation="2"/>
<feComposite in2="SourceAlpha" operator="in" result="effect1_backgroundBlur_932_1125"/>
<feColorMatrix in="SourceAlpha" type="matrix" values="0 0 0 0 0 0 0 0 0 0 0 0 0 0 0 0 0 0 127 0" result="hardAlpha"/>
<feOffset dx="2"/>
<feGaussianBlur stdDeviation="1"/>
<feComposite in2="hardAlpha" operator="out"/>
<feColorMatrix type="matrix" values="0 0 0 0 0 0 0 0 0 0 0 0 0 0 0 0 0 0 0.25 0"/>
<feBlend mode="normal" in2="effect1_backgroundBlur_932_1125" result="effect2_dropShadow_932_1125"/>
<feBlend mode="normal" in="SourceGraphic" in2="effect2_dropShadow_932_1125" result="shape"/>
</filter>
<filter id="filter2_bd_932_1125" x="0.239441" y="-2" width="19.6264" height="23.1678" filterUnits="userSpaceOnUse" color-interpolation-filters="sRGB">
<feFlood flood-opacity="0" result="BackgroundImageFix"/>
<feGaussianBlur in="BackgroundImageFix" stdDeviation="2"/>
<feComposite in2="SourceAlpha" operator="in" result="effect1_backgroundBlur_932_1125"/>
<feColorMatrix in="SourceAlpha" type="matrix" values="0 0 0 0 0 0 0 0 0 0 0 0 0 0 0 0 0 0 127 0" result="hardAlpha"/>
<feOffset dy="4"/>
<feGaussianBlur stdDeviation="2"/>
<feComposite in2="hardAlpha" operator="out"/>
<feColorMatrix type="matrix" values="0 0 0 0 0 0 0 0 0 0 0 0 0 0 0 0 0 0 0.2 0"/>
<feBlend mode="normal" in2="effect1_backgroundBlur_932_1125" result="effect2_dropShadow_932_1125"/>
<feBlend mode="normal" in="SourceGraphic" in2="effect2_dropShadow_932_1125" result="shape"/>
</filter>
<linearGradient id="paint0_linear_932_1125" x1="12.4982" y1="4.70467" x2="8.78182" y2="12.8281" gradientUnits="userSpaceOnUse">
<stop stop-color="white" stop-opacity="0.8"/>
<stop offset="1" stop-color="#E7E7E7" stop-opacity="0.3"/>
</linearGradient>
<linearGradient id="paint1_linear_932_1125" x1="14.0847" y1="6.63008" x2="4.49588" y2="8.61845" gradientUnits="userSpaceOnUse">
<stop stop-color="white"/>
<stop offset="0.640625" stop-color="#EA9D9D" stop-opacity="0"/>
</linearGradient>
<linearGradient id="paint2_linear_932_1125" x1="9.76749" y1="14.808" x2="18.0715" y2="23.7508" gradientUnits="userSpaceOnUse">
<stop stop-color="#D9D9D9" stop-opacity="0.8"/>
<stop offset="0.720741" stop-color="#D9D9D9" stop-opacity="0.3"/>
</linearGradient>
</defs>
</svg>
