<svg width="27" height="28" viewBox="0 0 27 28" fill="none" xmlns="http://www.w3.org/2000/svg">
<g filter="url(#filter0_d_932_1088)">
<g filter="url(#filter1_b_932_1088)">
<path fill-rule="evenodd" clip-rule="evenodd" d="M21.5856 12.2167C22.9138 11.4498 23.3689 9.7514 22.602 8.42316C21.8352 7.09493 20.1368 6.63984 18.8085 7.4067L9.35528 12.8645C8.74631 13.0754 8.20751 13.498 7.86 14.0999C7.59949 14.5511 7.47999 15.045 7.48785 15.5307C7.48481 16.0075 7.60466 16.4915 7.86031 16.9343C8.20753 17.5357 8.74572 17.9581 9.35405 18.1691L18.8082 23.6275C20.1364 24.3943 21.8349 23.9392 22.6017 22.611C23.3686 21.2828 22.9135 19.5843 21.5852 18.8175L15.8689 15.5172L21.5856 12.2167Z" fill="#2EADD4"/>
</g>
<g filter="url(#filter2_bd_932_1088)">
<mask id="path-2-inside-1_932_1088" fill="white">
<path fill-rule="evenodd" clip-rule="evenodd" d="M8.16602 0.372516C6.83778 -0.394341 5.13937 0.0607455 4.37252 1.38898C3.60566 2.71722 4.06075 4.41563 5.38898 5.18249L11.106 8.48318L5.38998 11.7833C4.06174 12.5502 3.60665 14.2486 4.37351 15.5768C5.14037 16.905 6.83878 17.3601 8.16702 16.5933L17.6222 11.1343C18.2298 10.9231 18.7673 10.5009 19.1142 9.90011C19.3644 9.46676 19.4845 8.994 19.4867 8.52705C19.5002 8.0316 19.3812 7.52638 19.1152 7.06568C18.7674 6.46321 18.2279 6.04039 17.6182 5.82975L8.16602 0.372516Z"/>
</mask>
<path fill-rule="evenodd" clip-rule="evenodd" d="M8.16602 0.372516C6.83778 -0.394341 5.13937 0.0607455 4.37252 1.38898C3.60566 2.71722 4.06075 4.41563 5.38898 5.18249L11.106 8.48318L5.38998 11.7833C4.06174 12.5502 3.60665 14.2486 4.37351 15.5768C5.14037 16.905 6.83878 17.3601 8.16702 16.5933L17.6222 11.1343C18.2298 10.9231 18.7673 10.5009 19.1142 9.90011C19.3644 9.46676 19.4845 8.994 19.4867 8.52705C19.5002 8.0316 19.3812 7.52638 19.1152 7.06568C18.7674 6.46321 18.2279 6.04039 17.6182 5.82975L8.16602 0.372516Z" fill="url(#paint0_linear_932_1088)" shape-rendering="crispEdges"/>
<path d="M4.37252 1.38898L4.80553 1.63898L4.37252 1.38898ZM8.16602 0.372516L8.41602 -0.0604963V-0.0604963L8.16602 0.372516ZM5.38898 5.18249L5.13898 5.6155L5.38898 5.18249ZM11.106 8.48318L11.356 8.91619L12.106 8.48318L11.356 8.05017L11.106 8.48318ZM5.38998 11.7833L5.13998 11.3503L5.38998 11.7833ZM4.37351 15.5768L3.9405 15.8268H3.9405L4.37351 15.5768ZM8.16702 16.5933L8.41702 17.0263H8.41702L8.16702 16.5933ZM17.6222 11.1343L17.458 10.662L17.4133 10.6776L17.3722 10.7013L17.6222 11.1343ZM19.1142 9.90011L19.5472 10.1501L19.1142 9.90011ZM19.4867 8.52705L18.9868 8.51346L18.9867 8.52473L19.4867 8.52705ZM19.1152 7.06568L19.5482 6.81568V6.81568L19.1152 7.06568ZM17.6182 5.82975L17.3682 6.26276L17.4097 6.2867L17.455 6.30234L17.6182 5.82975ZM4.80553 1.63898C5.43432 0.549892 6.82693 0.176742 7.91602 0.805529L8.41602 -0.0604963C6.84864 -0.965425 4.84443 -0.428401 3.9395 1.13898L4.80553 1.63898ZM5.63898 4.74947C4.54989 4.12069 4.17674 2.72807 4.80553 1.63898L3.9395 1.13898C3.03457 2.70637 3.5716 4.71057 5.13898 5.6155L5.63898 4.74947ZM11.356 8.05017L5.63898 4.74947L5.13898 5.6155L10.856 8.91619L11.356 8.05017ZM5.63998 12.2163L11.356 8.91619L10.856 8.05017L5.13998 11.3503L5.63998 12.2163ZM4.80652 15.3268C4.17774 14.2377 4.55089 12.8451 5.63998 12.2163L5.13998 11.3503C3.5726 12.2552 3.03557 14.2594 3.9405 15.8268L4.80652 15.3268ZM7.91702 16.1603C6.82793 16.789 5.43531 16.4159 4.80652 15.3268L3.9405 15.8268C4.84543 17.3942 6.84963 17.9312 8.41702 17.0263L7.91702 16.1603ZM17.3722 10.7013L7.91702 16.1603L8.41702 17.0263L17.8722 11.5673L17.3722 10.7013ZM18.6812 9.65011C18.3966 10.1431 17.9566 10.4887 17.458 10.662L17.7864 11.6066C18.5031 11.3575 19.1381 10.8588 19.5472 10.1501L18.6812 9.65011ZM18.9867 8.52473C18.9849 8.907 18.8868 9.29406 18.6812 9.65011L19.5472 10.1501C19.8421 9.63946 19.9841 9.081 19.9867 8.52937L18.9867 8.52473ZM18.6822 7.31568C18.9007 7.69411 18.9979 8.10772 18.9869 8.51346L19.9865 8.54064C20.0024 7.95549 19.8617 7.35864 19.5482 6.81568L18.6822 7.31568ZM17.455 6.30234C17.9552 6.47517 18.3968 6.82137 18.6822 7.31568L19.5482 6.81568C19.138 6.10506 18.5006 5.60561 17.7815 5.35716L17.455 6.30234ZM7.91602 0.805529L17.3682 6.26276L17.8682 5.39674L8.41602 -0.0604963L7.91602 0.805529Z" fill="url(#paint1_linear_932_1088)" fill-opacity="0.5" style="mix-blend-mode:overlay" mask="url(#path-2-inside-1_932_1088)"/>
</g>
</g>
<defs>
<filter id="filter0_d_932_1088" x="4" y="0" width="22.9745" height="27.9999" filterUnits="userSpaceOnUse" color-interpolation-filters="sRGB">
<feFlood flood-opacity="0" result="BackgroundImageFix"/>
<feColorMatrix in="SourceAlpha" type="matrix" values="0 0 0 0 0 0 0 0 0 0 0 0 0 0 0 0 0 0 127 0" result="hardAlpha"/>
<feOffset dx="2" dy="2"/>
<feGaussianBlur stdDeviation="1"/>
<feComposite in2="hardAlpha" operator="out"/>
<feColorMatrix type="matrix" values="0 0 0 0 0 0 0 0 0 0 0 0 0 0 0 0 0 0 0.25 0"/>
<feBlend mode="normal" in2="BackgroundImageFix" result="effect1_dropShadow_932_1088"/>
<feBlend mode="normal" in="SourceGraphic" in2="effect1_dropShadow_932_1088" result="shape"/>
</filter>
<filter id="filter1_b_932_1088" x="3.48749" y="3.03418" width="23.4871" height="24.9658" filterUnits="userSpaceOnUse" color-interpolation-filters="sRGB">
<feFlood flood-opacity="0" result="BackgroundImageFix"/>
<feGaussianBlur in="BackgroundImageFix" stdDeviation="2"/>
<feComposite in2="SourceAlpha" operator="in" result="effect1_backgroundBlur_932_1088"/>
<feBlend mode="normal" in="SourceGraphic" in2="effect1_backgroundBlur_932_1088" result="shape"/>
</filter>
<filter id="filter2_bd_932_1088" x="0" y="-4" width="23.4877" height="28.9658" filterUnits="userSpaceOnUse" color-interpolation-filters="sRGB">
<feFlood flood-opacity="0" result="BackgroundImageFix"/>
<feGaussianBlur in="BackgroundImageFix" stdDeviation="2"/>
<feComposite in2="SourceAlpha" operator="in" result="effect1_backgroundBlur_932_1088"/>
<feColorMatrix in="SourceAlpha" type="matrix" values="0 0 0 0 0 0 0 0 0 0 0 0 0 0 0 0 0 0 127 0" result="hardAlpha"/>
<feOffset dy="4"/>
<feGaussianBlur stdDeviation="2"/>
<feComposite in2="hardAlpha" operator="out"/>
<feColorMatrix type="matrix" values="0 0 0 0 0 0 0 0 0 0 0 0 0 0 0 0 0 0 0.2 0"/>
<feBlend mode="normal" in2="effect1_backgroundBlur_932_1088" result="effect2_dropShadow_932_1088"/>
<feBlend mode="normal" in="SourceGraphic" in2="effect2_dropShadow_932_1088" result="shape"/>
</filter>
<linearGradient id="paint0_linear_932_1088" x1="15.0015" y1="4.10888" x2="8.88115" y2="15.8396" gradientUnits="userSpaceOnUse">
<stop stop-color="white" stop-opacity="0.8"/>
<stop offset="1" stop-color="#E7E7E7" stop-opacity="0.3"/>
</linearGradient>
<linearGradient id="paint1_linear_932_1088" x1="17.1148" y1="7.03391" x2="4.21872" y2="9.37878" gradientUnits="userSpaceOnUse">
<stop stop-color="white"/>
<stop offset="0.640625" stop-color="#EA9D9D" stop-opacity="0"/>
</linearGradient>
</defs>
</svg>
