<svg width="32" height="32" viewBox="0 0 32 32" fill="none" xmlns="http://www.w3.org/2000/svg">
<path d="M16 32C24.8366 32 32 24.8366 32 16C32 7.16344 24.8366 0 16 0C7.16344 0 0 7.16344 0 16C0 24.8366 7.16344 32 16 32Z" fill="black"/>
<g clip-path="url(#clip0_11_12155)">
<path d="M9.9202 19.9109C10.034 19.7965 10.1905 19.7297 10.3564 19.7297H25.4061C25.6811 19.7297 25.8186 20.0634 25.6242 20.2588L22.6513 23.2474C22.5375 23.3618 22.381 23.4285 22.215 23.4285H7.16536C6.89035 23.4285 6.75284 23.0949 6.94725 22.8995L9.9202 19.9109Z" fill="url(#paint0_linear_11_12155)"/>
<path d="M9.9202 8.75254C10.0387 8.63814 10.1952 8.57141 10.3564 8.57141H25.4061C25.6811 8.57141 25.8186 8.90507 25.6242 9.10049L22.6513 12.0891C22.5375 12.2035 22.381 12.2702 22.215 12.2702H7.16536C6.89035 12.2702 6.75284 11.9366 6.94725 11.7411L9.9202 8.75254Z" fill="url(#paint1_linear_11_12155)"/>
<path d="M22.6513 14.296C22.5375 14.1816 22.381 14.1149 22.215 14.1149H7.16536C6.89035 14.1149 6.75284 14.4485 6.94725 14.6439L9.9202 17.6325C10.034 17.7469 10.1905 17.8137 10.3564 17.8137H25.4061C25.6811 17.8137 25.8186 17.48 25.6242 17.2846L22.6513 14.296Z" fill="url(#paint2_linear_11_12155)"/>
</g>
<defs>
<linearGradient id="paint0_linear_11_12155" x1="23.9684" y1="6.78608" x2="13.4667" y2="26.7958" gradientUnits="userSpaceOnUse">
<stop stop-color="#00FFA3"/>
<stop offset="1" stop-color="#DC1FFF"/>
</linearGradient>
<linearGradient id="paint1_linear_11_12155" x1="19.4142" y1="4.3959" x2="8.91245" y2="24.4056" gradientUnits="userSpaceOnUse">
<stop stop-color="#00FFA3"/>
<stop offset="1" stop-color="#DC1FFF"/>
</linearGradient>
<linearGradient id="paint2_linear_11_12155" x1="21.6768" y1="5.58343" x2="11.1751" y2="25.5932" gradientUnits="userSpaceOnUse">
<stop stop-color="#00FFA3"/>
<stop offset="1" stop-color="#DC1FFF"/>
</linearGradient>
<clipPath id="clip0_11_12155">
<rect width="18.8571" height="14.8571" fill="white" transform="translate(6.85718 8.57141)"/>
</clipPath>
</defs>
</svg>
