<svg width="33" height="32" viewBox="0 0 33 32" fill="none" xmlns="http://www.w3.org/2000/svg">
<path d="M16.5 32C25.3366 32 32.5 24.8366 32.5 16C32.5 7.16344 25.3366 0 16.5 0C7.66344 0 0.5 7.16344 0.5 16C0.5 24.8366 7.66344 32 16.5 32Z" fill="black"/>
<path d="M16.498 4.00256V12.8726L23.995 16.2226L16.498 4.00256Z" fill="white" fill-opacity="0.602"/>
<path d="M16.498 4.00256L9 16.2226L16.498 12.8726V4.00256Z" fill="white"/>
<path d="M16.498 21.9704V27.9974L24 17.6184L16.498 21.9704Z" fill="white" fill-opacity="0.602"/>
<path d="M16.498 27.9974V21.9694L9 17.6184L16.498 27.9974Z" fill="white"/>
<path d="M16.498 20.5754L23.995 16.2224L16.498 12.8744V20.5754Z" fill="white" fill-opacity="0.2"/>
<path d="M9 16.2224L16.498 20.5754V12.8744L9 16.2224Z" fill="white" fill-opacity="0.602"/>
</svg>
