<svg width="30" height="28" viewBox="0 0 30 28" fill="none" xmlns="http://www.w3.org/2000/svg">
<path d="M27.6154 1L16.6771 9.125L18.7112 4.33667L27.6154 1Z" fill="#E17726" stroke="#E17726" stroke-width="0.25" stroke-linecap="round" stroke-linejoin="round"/>
<path d="M2.38423 1L13.2251 9.20083L11.2885 4.33666L2.38423 1Z" fill="#E27625" stroke="#E27625" stroke-width="0.25" stroke-linecap="round" stroke-linejoin="round"/>
<path d="M23.6768 19.8389L20.7664 24.3022L26.9983 26.0247L28.7835 19.9364L23.6768 19.8389Z" fill="#E27625" stroke="#E27625" stroke-width="0.25" stroke-linecap="round" stroke-linejoin="round"/>
<path d="M1.22772 19.9364L3.00207 26.0247L9.22317 24.3022L6.32359 19.8389L1.22772 19.9364Z" fill="#E27625" stroke="#E27625" stroke-width="0.25" stroke-linecap="round" stroke-linejoin="round"/>
<path d="M8.88771 12.2991L7.15666 14.9207L13.3236 15.2024L13.1181 8.53992L8.88771 12.2991Z" fill="#E27625" stroke="#E27625" stroke-width="0.25" stroke-linecap="round" stroke-linejoin="round"/>
<path d="M21.113 12.299L16.8178 8.46399L16.6771 15.2023L22.8441 14.9207L21.113 12.299Z" fill="#E27625" stroke="#E27625" stroke-width="0.25" stroke-linecap="round" stroke-linejoin="round"/>
<path d="M9.22244 24.3026L12.955 22.4934L9.74179 19.9801L9.22244 24.3026Z" fill="#E27625" stroke="#E27625" stroke-width="0.25" stroke-linecap="round" stroke-linejoin="round"/>
<path d="M17.0447 22.4934L20.7665 24.3026L20.258 19.9801L17.0447 22.4934Z" fill="#E27625" stroke="#E27625" stroke-width="0.25" stroke-linecap="round" stroke-linejoin="round"/>
<path d="M20.7665 24.3023L17.0447 22.4932L17.3476 24.9198L17.3152 25.949L20.7665 24.3023Z" fill="#D5BFB2" stroke="#D5BFB2" stroke-width="0.25" stroke-linecap="round" stroke-linejoin="round"/>
<path d="M9.22244 24.3023L12.6846 25.949L12.663 24.9198L12.955 22.4932L9.22244 24.3023Z" fill="#D5BFB2" stroke="#D5BFB2" stroke-width="0.25" stroke-linecap="round" stroke-linejoin="round"/>
<path d="M12.7495 18.3762L9.65512 17.4663L11.8406 16.4587L12.7495 18.3762Z" fill="#233447" stroke="#233447" stroke-width="0.25" stroke-linecap="round" stroke-linejoin="round"/>
<path d="M17.2513 18.3762L18.1602 16.4587L20.3565 17.4663L17.2513 18.3762Z" fill="#233447" stroke="#233447" stroke-width="0.25" stroke-linecap="round" stroke-linejoin="round"/>
<path d="M9.22176 24.3022L9.76275 19.8389L6.32222 19.9364L9.22176 24.3022Z" fill="#CC6228" stroke="#CC6228" stroke-width="0.25" stroke-linecap="round" stroke-linejoin="round"/>
<path d="M20.2361 19.8389L20.7663 24.3022L23.6767 19.9364L20.2361 19.8389Z" fill="#CC6228" stroke="#CC6228" stroke-width="0.25" stroke-linecap="round" stroke-linejoin="round"/>
<path d="M22.8441 14.9205L16.6771 15.2022L17.2505 18.3764L18.1594 16.4589L20.3557 17.4664L22.8441 14.9205Z" fill="#CC6228" stroke="#CC6228" stroke-width="0.25" stroke-linecap="round" stroke-linejoin="round"/>
<path d="M9.6559 17.4664L11.8414 16.4589L12.7502 18.3764L13.3236 15.2022L7.15666 14.9205L9.6559 17.4664Z" fill="#CC6228" stroke="#CC6228" stroke-width="0.25" stroke-linecap="round" stroke-linejoin="round"/>
<path d="M7.15666 14.9205L9.74248 19.9797L9.65587 17.4664L7.15666 14.9205Z" fill="#E27525" stroke="#E27525" stroke-width="0.25" stroke-linecap="round" stroke-linejoin="round"/>
<path d="M20.3563 17.4664L20.2589 19.9797L22.8447 14.9205L20.3563 17.4664Z" fill="#E27525" stroke="#E27525" stroke-width="0.25" stroke-linecap="round" stroke-linejoin="round"/>
<path d="M13.324 15.2023L12.7505 18.3765L13.4754 22.1248L13.6377 17.1848L13.324 15.2023Z" fill="#E27525" stroke="#E27525" stroke-width="0.25" stroke-linecap="round" stroke-linejoin="round"/>
<path d="M16.6776 15.2023L16.3746 17.174L16.5261 22.1248L17.251 18.3765L16.6776 15.2023Z" fill="#E27525" stroke="#E27525" stroke-width="0.25" stroke-linecap="round" stroke-linejoin="round"/>
<path d="M17.2507 18.3763L16.5259 22.1246L17.0452 22.493L20.2585 19.9796L20.3559 17.4663L17.2507 18.3763Z" fill="#F5841F" stroke="#F5841F" stroke-width="0.25" stroke-linecap="round" stroke-linejoin="round"/>
<path d="M9.65512 17.4663L9.74173 19.9796L12.955 22.493L13.4743 22.1246L12.7495 18.3763L9.65512 17.4663Z" fill="#F5841F" stroke="#F5841F" stroke-width="0.25" stroke-linecap="round" stroke-linejoin="round"/>
<path d="M17.3153 25.9492L17.3477 24.92L17.0664 24.6816H12.9335L12.663 24.92L12.6846 25.9492L9.22244 24.3025L10.4342 25.2991L12.8902 27H17.0988L19.5656 25.2991L20.7665 24.3025L17.3153 25.9492Z" fill="#C0AC9D" stroke="#C0AC9D" stroke-width="0.25" stroke-linecap="round" stroke-linejoin="round"/>
<path d="M17.0445 22.4933L16.5251 22.125H13.4741L12.9548 22.4933L12.6627 24.92L12.9332 24.6816H17.0661L17.3475 24.92L17.0445 22.4933Z" fill="#161616" stroke="#161616" stroke-width="0.25" stroke-linecap="round" stroke-linejoin="round"/>
<path d="M28.0803 9.65581L29 5.17083L27.6151 1L17.0447 8.8542L21.1127 12.2992L26.8577 13.9784L28.1236 12.4942L27.5719 12.0933L28.4482 11.2917L27.7774 10.7717L28.6538 10.1L28.0803 9.65581Z" fill="#763E1A" stroke="#763E1A" stroke-width="0.25" stroke-linecap="round" stroke-linejoin="round"/>
<path d="M1 5.17083L1.93046 9.65581L1.3354 10.1L2.22258 10.7717L1.55178 11.2917L2.42814 12.0933L1.87636 12.4942L3.14221 13.9784L8.88728 12.2992L12.9553 8.8542L2.38487 1L1 5.17083Z" fill="#763E1A" stroke="#763E1A" stroke-width="0.25" stroke-linecap="round" stroke-linejoin="round"/>
<path d="M26.8586 13.9781L21.1136 12.299L22.8447 14.9206L20.2589 19.9798L23.6778 19.9364H28.7844L26.8586 13.9781Z" fill="#F5841F" stroke="#F5841F" stroke-width="0.25" stroke-linecap="round" stroke-linejoin="round"/>
<path d="M8.88772 12.299L3.14273 13.9781L1.22772 19.9364H6.32359L9.74244 19.9798L7.15667 14.9206L8.88772 12.299Z" fill="#F5841F" stroke="#F5841F" stroke-width="0.25" stroke-linecap="round" stroke-linejoin="round"/>
<path d="M16.6778 15.2028L17.0457 8.85438L18.7118 4.33691H11.2898L12.956 8.85438L13.3238 15.2028L13.4645 17.1961L13.4753 22.1253H16.5264L16.5372 17.1961L16.6778 15.2028Z" fill="#F5841F" stroke="#F5841F" stroke-width="0.25" stroke-linecap="round" stroke-linejoin="round"/>
</svg>
