<svg width="32" height="32" viewBox="0 0 32 32" fill="none" xmlns="http://www.w3.org/2000/svg">
<path d="M16 32C24.8366 32 32 24.8366 32 16C32 7.16344 24.8366 0 16 0C7.16344 0 0 7.16344 0 16C0 24.8366 7.16344 32 16 32Z" fill="black"/>
<path d="M18.0308 23.4397V25.7925L15.9688 27L13.9692 25.7925V23.4397L15.9688 24.6472L18.0308 23.4397ZM7 15.2925L9.00152 16.5V20.5425L12.4539 22.5939V24.9486L7 21.75V15.2925ZM24.9395 15.2925V21.75L19.4231 24.9486V22.5939L22.8774 20.5425V16.5L24.9395 15.2925ZM19.4231 12.0939L21.4851 13.3014V15.6542L18.0308 17.7075V21.8044L16.0312 23.0178L14.0297 21.8044V17.7075L10.4543 15.6542V13.3014L12.5164 12.0939L15.9688 14.1472L19.4231 12.0939ZM10.4543 17.3439L12.4539 18.5514V20.9042L10.4543 19.6986V17.3439ZM21.4851 17.3439V19.6986L19.4836 20.9042V18.5514L21.4851 17.3439ZM9.00152 10.0425L11.0616 11.25L9.00152 12.4575V14.8044L7 13.6028V11.25L9.00152 10.0425ZM22.9379 10.0425L25 11.25V13.6028L22.9379 14.8044V12.4575L20.9384 11.25L22.9379 10.0425ZM15.9688 10.0425L18.0308 11.25L15.9688 12.4575L13.9692 11.25L15.9688 10.0425ZM15.9688 6L21.4851 9.19861L19.4836 10.4042L16.0312 8.35278L12.5164 10.4042L10.5149 9.19861L15.9688 6Z" fill="#F3BA2F"/>
</svg>
