<svg width="32" height="32" viewBox="0 0 32 32" fill="none" xmlns="http://www.w3.org/2000/svg">
<path fill-rule="evenodd" clip-rule="evenodd" d="M24.1957 10.5139C19.6792 5.82869 12.3675 5.82869 7.85678 10.5139L7.26158 11.1328C7.034 11.368 7.034 11.7456 7.26158 11.9808L9.12305 13.9118C9.23392 14.0294 9.42065 14.0294 9.53152 13.9118L10.331 13.0824C13.4762 9.81454 18.5821 9.81454 21.7274 13.0824L22.4743 13.8561C22.5852 13.9737 22.7719 13.9737 22.8828 13.8561L24.7384 11.9251C24.966 11.6899 24.966 11.3123 24.7384 11.0771L24.1957 10.5139ZM29.8273 15.8058L28.1561 14.1678C27.9258 13.9431 27.5537 13.9431 27.3293 14.1737L21.9732 19.4246C21.9142 19.4779 21.8256 19.4779 21.7665 19.4246L16.4104 14.1737C16.1801 13.949 15.814 13.949 15.5837 14.1737L10.2335 19.4246C10.1744 19.4779 10.0858 19.4779 10.0268 19.4246L4.67067 14.1737C4.44037 13.949 4.07424 13.949 3.84393 14.1737L2.17273 15.8117C1.94242 16.0364 1.94242 16.3971 2.17273 16.6218L9.71971 24.0133C9.95002 24.238 10.3161 24.238 10.5465 24.0133L15.8967 18.7624C15.9557 18.7091 16.0443 18.7091 16.1033 18.7624L21.4595 24.0133C21.6898 24.238 22.0559 24.238 22.2862 24.0133L29.8273 16.6159C30.0576 16.3912 30.0576 16.0305 29.8273 15.8058Z" fill="#3B99FC"/>
</svg>
