<svg width="82" height="10" viewBox="0 0 82 10" fill="none" xmlns="http://www.w3.org/2000/svg">
<g clip-path="url(#clip0_1_400)">
<path fill-rule="evenodd" clip-rule="evenodd" d="M0.500183 0.368256H3.27375V9.09347H0.500183V0.368256ZM2.46852 1.11896H1.2905V8.3286H2.46852V1.11896ZM1.48435 8.00282V1.54389H2.28958V8.00282H1.48435Z" fill="white"/>
<path fill-rule="evenodd" clip-rule="evenodd" d="M14.3383 7.45042H15.5461V1.17564H15.3522V7.26629H14.4128L7.9859 1.17564H5.36145V8.38527H6.53947V2.29462H7.47891L13.9058 8.38527H16.5303V0.906513H17.3355V9.15014H13.5927L7.3447 3.20113V9.15014H4.57114V0.424927H8.31396L14.5619 6.37394V0.424927H16.3364V8.2153H13.9804L7.56838 2.11048H6.36053V7.73371H5.5553V1.35977H7.91134L14.3383 7.45042Z" fill="white"/>
<path fill-rule="evenodd" clip-rule="evenodd" d="M27.3565 2.90373C27.2522 2.8754 27.1478 2.8754 27.0434 2.8754H21.2726V7.26634H27.5355C27.6995 7.26634 27.8635 7.26634 28.0276 7.23801C28.1916 7.23801 28.3407 7.11053 28.3407 6.94056C28.3556 6.78475 28.3705 6.62894 28.3705 6.47313V2.73376C28.3705 2.57795 28.3705 2.42214 28.3407 2.26634C28.3258 2.19551 28.296 2.12469 28.2512 2.05387C28.1916 2.01138 28.117 1.96888 28.0276 1.96888C27.8635 1.94056 27.6995 1.94056 27.5355 1.94056H20.2884V8.96605H18.499V0.255003H27.5355C27.953 0.240839 28.3705 0.283332 28.7881 0.368318C29.1012 0.424975 29.3845 0.566618 29.6082 0.779083C29.8319 0.991547 29.981 1.27483 30.0406 1.55812C30.1301 1.95472 30.1599 2.35132 30.1599 2.74792V6.50146C30.1748 6.89806 30.1301 7.30883 30.0406 7.69126C29.981 7.98872 29.8319 8.25784 29.6082 8.48447C29.3845 8.69693 29.0863 8.82441 28.7731 8.88107C28.3556 8.95189 27.9381 8.99438 27.5206 8.98022H20.8401V8.21534H27.5355C27.8486 8.21534 28.1767 8.20118 28.4898 8.14452C28.9073 8.08787 29.2205 7.79041 29.2801 7.39381C29.3398 7.09636 29.3696 6.78475 29.3547 6.4873V2.73376C29.3547 2.43631 29.3398 2.12469 29.2801 1.82724C29.2503 1.64311 29.1608 1.45897 29.0266 1.33149C28.8775 1.20401 28.6986 1.11903 28.5047 1.07653C28.1916 1.01988 27.8635 0.991548 27.5504 1.00571H19.3192V8.21534H19.513V1.18985H27.5653C27.8188 1.18985 28.0872 1.20401 28.3407 1.24651C28.5346 1.27483 28.7284 1.35982 28.8775 1.50146C29.0117 1.64311 29.1161 1.81308 29.1459 2.01138C29.1907 2.25217 29.2056 2.50713 29.2056 2.74792V6.50146C29.2056 6.75642 29.1907 6.99721 29.1459 7.23801C29.0863 7.63461 28.7582 7.93206 28.3407 7.98872C28.0872 8.03121 27.8188 8.04537 27.5653 8.04537H20.4823V2.12469H27.5355C27.953 2.12469 28.1767 2.35132 28.1767 2.73376V6.47313C28.1767 6.86974 27.9381 7.0822 27.5355 7.0822H21.8243V6.33149H27.0434C27.1329 6.33149 27.2074 6.33149 27.2969 6.31733C27.3267 6.31733 27.3714 6.30316 27.3714 6.27483C27.3714 6.26067 27.3714 6.26067 27.3714 6.24651C27.3864 6.16152 27.3864 6.0907 27.3864 6.00571V3.20118C27.3864 3.10203 27.3714 3.00288 27.3565 2.90373Z" fill="white"/>
<path fill-rule="evenodd" clip-rule="evenodd" d="M52.9143 2.90367C52.8099 2.87534 52.7055 2.87534 52.6012 2.87534H46.8304V7.26627H53.0932C53.2573 7.26627 53.4213 7.26627 53.5853 7.23795C53.6599 7.22378 53.7344 7.19545 53.809 7.15296C53.8537 7.0963 53.8985 7.02548 53.8985 6.9405C53.9283 6.78469 53.9283 6.62888 53.9283 6.47307V2.7337C53.9283 2.57789 53.9283 2.42208 53.8985 2.26627C53.8836 2.19545 53.8537 2.12463 53.809 2.05381C53.7494 1.99715 53.6748 1.96882 53.5853 1.96882C53.4213 1.9405 53.2573 1.9405 53.0932 1.9405H45.8462V8.96599H44.0568V0.254942H53.0932C53.5108 0.240778 53.9283 0.283271 54.3458 0.368257C54.659 0.424914 54.9423 0.566557 55.166 0.779022C55.3896 0.991486 55.5388 1.27477 55.5984 1.55806C55.6879 1.95466 55.7177 2.35126 55.7177 2.74786V6.5014C55.7326 6.898 55.6879 7.30877 55.5984 7.6912C55.5388 7.98865 55.3896 8.25778 55.166 8.48441C54.9423 8.69687 54.6441 8.82435 54.3458 8.88101C53.9283 8.95183 53.5108 8.99432 53.0932 8.98016H46.5321V8.21528H53.0932C53.4064 8.21528 53.7344 8.20112 54.0476 8.14446C54.4651 8.0878 54.7783 7.79035 54.8379 7.39375C54.8976 7.0963 54.9274 6.78469 54.9125 6.48724V2.7337C54.9125 2.43625 54.8976 2.12463 54.8379 1.82718C54.8081 1.64304 54.7186 1.45891 54.5695 1.33143C54.4204 1.20395 54.2414 1.11897 54.0476 1.07647C53.7344 1.01982 53.4064 0.991486 53.0932 1.00565H44.862V8.21528H45.0559V1.18979H53.1082C53.3617 1.18979 53.6301 1.20395 53.8836 1.24644C54.0774 1.27477 54.2713 1.35976 54.4204 1.5014C54.5546 1.64304 54.6441 1.81302 54.6888 2.01132C54.7335 2.25211 54.7484 2.50707 54.7484 2.74786V6.5014C54.7484 6.75636 54.7335 6.99715 54.6888 7.23795C54.6291 7.63455 54.3011 7.932 53.8836 7.98865C53.6301 8.03115 53.3617 8.04531 53.1082 8.04531H46.055V2.12463H53.1082C53.5257 2.12463 53.7494 2.35126 53.7494 2.7337V6.47307C53.7494 6.86967 53.5108 7.08214 53.1082 7.08214H47.5312V6.33143H52.6161C52.7055 6.33143 52.7801 6.33143 52.8696 6.31727C52.8845 6.31727 52.9143 6.3031 52.9292 6.3031C52.9441 6.28894 52.9441 6.26061 52.9441 6.24644C52.959 6.16146 52.959 6.09064 52.959 6.00565V3.20112C52.9441 3.10197 52.9292 3.00282 52.9143 2.90367Z" fill="white"/>
<path fill-rule="evenodd" clip-rule="evenodd" d="M65.7383 3.03118C65.6339 3.00285 65.5295 3.00285 65.4252 3.00285H59.9973C59.9078 3.00285 59.8333 3.00285 59.7438 3.01702C59.7289 3.01702 59.6991 3.03118 59.6842 3.03118C59.6693 3.04535 59.6693 3.07368 59.6693 3.08784C59.6543 3.17283 59.6544 3.24365 59.6544 3.32863V5.05668H66.7523V2.84705C66.7523 2.69124 66.7523 2.53543 66.7225 2.37962C66.7225 2.3088 66.6777 2.22382 66.633 2.16716C66.5733 2.1105 66.4988 2.08217 66.4093 2.08217C66.2453 2.06801 66.0813 2.05385 65.9172 2.05385H59.5052C59.3412 2.05385 59.1772 2.05385 59.0131 2.08217C58.9386 2.09634 58.8491 2.12467 58.7895 2.16716C58.7298 2.22382 58.7 2.29464 58.7 2.37962C58.6851 2.53543 58.6702 2.69124 58.6702 2.84705V7.7479H57.865V2.84705C57.865 2.60625 57.8799 2.3513 57.9246 2.1105C57.9544 1.92637 58.0439 1.74223 58.193 1.60059C58.3421 1.47311 58.5211 1.38812 58.7149 1.34563C58.9684 1.30314 59.2368 1.28897 59.4903 1.28897H65.9023C66.1558 1.28897 66.4242 1.30314 66.6777 1.34563C66.8716 1.37396 67.0654 1.45894 67.2145 1.60059C67.3488 1.74223 67.4531 1.9122 67.483 2.1105C67.5277 2.3513 67.5426 2.60625 67.5426 2.84705V5.80739H58.8491V2.84705C58.8491 2.45045 59.0728 2.23798 59.4903 2.23798H65.9023C66.3199 2.23798 66.5435 2.45045 66.5435 2.84705V4.51843H65.7383V3.31447C65.7681 3.21532 65.7532 3.11617 65.7383 3.03118ZM66.7523 6.74223H59.6544V9.07934H56.8808V2.84705C56.8659 2.45045 56.9106 2.05385 56.9852 1.65724C57.0448 1.35979 57.1939 1.09067 57.4027 0.864044C57.6413 0.651579 57.9246 0.509936 58.2377 0.453279C58.6553 0.368293 59.0728 0.339964 59.4903 0.339964H65.9023C66.3199 0.3258 66.7374 0.368293 67.1549 0.453279C67.468 0.509936 67.7514 0.651579 67.975 0.864044C68.1987 1.07651 68.3478 1.35979 68.4075 1.64308C68.4969 2.03968 68.5268 2.43628 68.5268 2.83288V9.06518H65.7532V7.66291H60.2956V6.89804H66.5584V8.3003H67.7365V2.84705C67.7365 2.5496 67.7215 2.23798 67.6619 1.94053C67.6321 1.75639 67.5426 1.57226 67.3935 1.44478C67.2444 1.3173 67.0654 1.23232 66.8716 1.18982C66.5584 1.13317 66.2304 1.10484 65.9172 1.119H59.5052C59.1921 1.119 58.864 1.13317 58.5509 1.18982C58.357 1.21815 58.1632 1.30314 58.029 1.44478C57.8948 1.58642 57.8053 1.75639 57.7755 1.94053C57.7158 2.23798 57.686 2.5496 57.7009 2.84705V8.32863H58.8789V5.99152H67.5724V7.80455H66.7672L66.7523 6.74223Z" fill="white"/>
<path fill-rule="evenodd" clip-rule="evenodd" d="M80.382 1.85552L79.5469 1.06232L76.2664 4.16431H73.0156L71.0622 2.30878L71.6288 1.77054L73.3735 3.39943H75.9532L79.5469 0L81.5003 1.85552L77.7724 5.3966L79.6215 7.15297L79.0548 7.69122L76.6541 5.38244L80.382 1.85552ZM72.956 4.34844H73.7463L70.3315 7.59207L71.1666 8.38527L74.4322 5.28329H76.2664L79.5469 8.38527L80.382 7.59207L78.5478 5.86402L79.0996 5.31161L81.5003 7.59207L79.5469 9.44759L75.9532 6.04816H74.7454L71.1517 9.46176L69.1982 7.60623L72.2253 4.73088L69.2132 1.85552L71.1666 0L73.6866 2.39377L73.1051 2.91785L71.1666 1.06232L70.3315 1.85552L72.956 4.34844ZM74.3278 5.09915L71.6139 7.69122L71.0473 7.15297L74.0147 4.34844H76.3409L79.0548 1.7847L79.6215 2.32295L76.6988 5.09915H74.3278Z" fill="white"/>
<path fill-rule="evenodd" clip-rule="evenodd" d="M42.0293 6.40231L42.089 3.272L39.7479 1.04821H34.3349L32.128 3.20118V6.35982L34.32 8.30033L39.5391 8.21534L41.0154 5.97738L41.0452 3.68277L39.3154 2.03971H34.7823L33.1718 3.68277L33.2613 5.99155L34.7972 7.30883L38.9128 7.2805L40.0014 5.70826V4.1077L38.883 3.03121H35.2147L34.2604 4.09353L34.32 5.59495L35.2296 6.41648L38.3611 6.38815L38.3313 7.0822L34.9016 7.11053L33.5148 5.92073L33.4253 3.78192L34.8568 2.23801H39.226L40.8364 3.76775V5.92073L39.4049 8.05954L34.4244 8.0737L32.3964 6.31733L32.3368 3.37115L34.4244 1.24651H39.6584L41.8802 3.35699V6.33149L39.9715 9.02271L33.9771 9.09353L31.293 6.6856V2.8754L33.992 0.255005H40.0908L42.924 2.94622L42.8495 6.69976L41.5373 8.62611L40.8215 8.15869L42.0293 6.40231Z" fill="white"/>
<path fill-rule="evenodd" clip-rule="evenodd" d="M1.88643 1.21814C2.18466 1.21814 2.42325 1.44477 2.42325 1.72805C2.42325 2.01134 2.18466 2.23797 1.88643 2.23797C1.5882 2.23797 1.34961 2.01134 1.34961 1.72805C1.34961 1.44477 1.5882 1.21814 1.88643 1.21814Z" fill="black"/>
<path fill-rule="evenodd" clip-rule="evenodd" d="M1.88643 7.22375C2.18466 7.22375 2.42325 7.45038 2.42325 7.73367C2.42325 8.01696 2.18466 8.24359 1.88643 8.24359C1.5882 8.24359 1.34961 8.01696 1.34961 7.73367C1.34961 7.45038 1.5882 7.22375 1.88643 7.22375Z" fill="black"/>
<path fill-rule="evenodd" clip-rule="evenodd" d="M5.95772 7.28049C6.25595 7.28049 6.49454 7.50712 6.49454 7.7904C6.49454 8.07369 6.25595 8.30032 5.95772 8.30032C5.65948 8.30032 5.4209 8.07369 5.4209 7.7904C5.4209 7.50712 5.65948 7.28049 5.95772 7.28049Z" fill="black"/>
<path fill-rule="evenodd" clip-rule="evenodd" d="M16.9333 0.453247C17.2315 0.453247 17.4701 0.679876 17.4701 0.963162C17.4701 1.24645 17.2315 1.47308 16.9333 1.47308C16.6351 1.47308 16.3965 1.24645 16.3965 0.963162C16.3965 0.679876 16.6351 0.453247 16.9333 0.453247Z" fill="black"/>
<path fill-rule="evenodd" clip-rule="evenodd" d="M21.9128 6.20398C22.211 6.20398 22.4496 6.43061 22.4496 6.71389C22.4496 6.99718 22.211 7.22381 21.9128 7.22381C21.6146 7.22381 21.376 6.99718 21.376 6.71389C21.376 6.43061 21.6146 6.20398 21.9128 6.20398Z" fill="black"/>
<path fill-rule="evenodd" clip-rule="evenodd" d="M20.9292 8.0878C21.2275 8.0878 21.4661 8.31443 21.4661 8.59771C21.4661 8.881 21.2275 9.10763 20.9292 9.10763C20.631 9.10763 20.3924 8.881 20.3924 8.59771C20.3924 8.31443 20.631 8.0878 20.9292 8.0878Z" fill="black"/>
<path fill-rule="evenodd" clip-rule="evenodd" d="M38.5249 6.20396C38.8232 6.20396 39.0618 6.43059 39.0618 6.71388C39.0618 6.99717 38.8232 7.22379 38.5249 7.22379C38.2267 7.22379 37.9881 6.99717 37.9881 6.71388C37.9881 6.43059 38.2267 6.20396 38.5249 6.20396Z" fill="black"/>
<path fill-rule="evenodd" clip-rule="evenodd" d="M41.1491 7.94617C41.4474 7.94617 41.6859 8.1728 41.6859 8.45608C41.6859 8.73937 41.4474 8.966 41.1491 8.966C40.8509 8.966 40.6123 8.73937 40.6123 8.45608C40.6123 8.1728 40.8509 7.94617 41.1491 7.94617Z" fill="black"/>
<path fill-rule="evenodd" clip-rule="evenodd" d="M47.4724 6.20398C47.7706 6.20398 48.0092 6.43061 48.0092 6.71389C48.0092 6.99718 47.7706 7.22381 47.4724 7.22381C47.1741 7.22381 46.9355 6.99718 46.9355 6.71389C46.9355 6.43061 47.1741 6.20398 47.4724 6.20398Z" fill="black"/>
<path fill-rule="evenodd" clip-rule="evenodd" d="M46.4725 8.0878C46.7708 8.0878 47.0094 8.31443 47.0094 8.59771C47.0094 8.881 46.7708 9.10763 46.4725 9.10763C46.1743 9.10763 45.9357 8.881 45.9357 8.59771C45.9357 8.31443 46.1743 8.0878 46.4725 8.0878Z" fill="black"/>
<path fill-rule="evenodd" clip-rule="evenodd" d="M66.1716 3.93774C66.4698 3.93774 66.7084 4.16437 66.7084 4.44766C66.7084 4.73095 66.4698 4.95757 66.1716 4.95757C65.8734 4.95757 65.6348 4.73095 65.6348 4.44766C65.6348 4.16437 65.8734 3.93774 66.1716 3.93774Z" fill="black"/>
<path fill-rule="evenodd" clip-rule="evenodd" d="M58.2673 7.22375C58.5655 7.22375 58.8041 7.45038 58.8041 7.73367C58.8041 8.01696 58.5655 8.24359 58.2673 8.24359C57.9691 8.24359 57.7305 8.01696 57.7305 7.73367C57.7305 7.45038 57.984 7.22375 58.2673 7.22375Z" fill="black"/>
<path fill-rule="evenodd" clip-rule="evenodd" d="M60.2958 6.79887C60.5941 6.79887 60.8326 7.0255 60.8326 7.30879C60.8326 7.59207 60.5941 7.8187 60.2958 7.8187C59.9976 7.8187 59.759 7.59207 59.759 7.30879C59.759 7.0255 59.9976 6.79887 60.2958 6.79887Z" fill="black"/>
<path fill-rule="evenodd" clip-rule="evenodd" d="M67.1552 7.2238C67.4534 7.2238 67.692 7.45043 67.692 7.73372C67.692 8.017 67.4534 8.24363 67.1552 8.24363C66.8569 8.24363 66.6183 8.017 66.6183 7.73372C66.6183 7.45043 66.8569 7.2238 67.1552 7.2238Z" fill="black"/>
<path fill-rule="evenodd" clip-rule="evenodd" d="M71.1667 1.33142C71.4649 1.33142 71.7035 1.55805 71.7035 1.84134C71.7035 2.12462 71.4649 2.35125 71.1667 2.35125C70.8685 2.35125 70.6299 2.12462 70.6299 1.84134C70.6299 1.55805 70.8685 1.33142 71.1667 1.33142Z" fill="black"/>
<path fill-rule="evenodd" clip-rule="evenodd" d="M73.5524 2.32294C73.8506 2.32294 74.0892 2.54957 74.0892 2.83285C74.0892 3.11614 73.8506 3.34277 73.5524 3.34277C73.2542 3.34277 73.0156 3.11614 73.0156 2.83285C73.0156 2.54957 73.2542 2.32294 73.5524 2.32294Z" fill="black"/>
<path fill-rule="evenodd" clip-rule="evenodd" d="M78.6373 4.92918C78.9356 4.92918 79.1742 5.15581 79.1742 5.4391C79.1742 5.72239 78.9356 5.94901 78.6373 5.94901C78.3391 5.94901 78.1005 5.72239 78.1005 5.4391C78.1005 5.15581 78.3391 4.92918 78.6373 4.92918Z" fill="black"/>
<path fill-rule="evenodd" clip-rule="evenodd" d="M79.5163 1.35974C79.8145 1.35974 80.0531 1.58637 80.0531 1.86966C80.0531 2.15294 79.8145 2.37957 79.5163 2.37957C79.2181 2.37957 78.9795 2.15294 78.9795 1.86966C78.9795 1.60053 79.2181 1.37391 79.5163 1.35974Z" fill="black"/>
<path fill-rule="evenodd" clip-rule="evenodd" d="M79.5163 7.06799C79.8145 7.06799 80.0531 7.29462 80.0531 7.57791C80.0531 7.86119 79.8145 8.08782 79.5163 8.08782C79.2181 8.08782 78.9795 7.86119 78.9795 7.57791C78.9795 7.29462 79.2181 7.06799 79.5163 7.06799Z" fill="black"/>
<path fill-rule="evenodd" clip-rule="evenodd" d="M71.1667 7.05383C71.4649 7.05383 71.7035 7.28046 71.7035 7.56375C71.7035 7.84703 71.4649 8.07366 71.1667 8.07366C70.8685 8.07366 70.6299 7.84703 70.6299 7.56375C70.6299 7.28046 70.8685 7.05383 71.1667 7.05383Z" fill="black"/>
</g>
<defs>
<clipPath id="clip0_1_400">
<rect width="81" height="10" fill="white" transform="translate(0.5)"/>
</clipPath>
</defs>
</svg>
