<svg width="78" height="20" viewBox="0 0 78 20" fill="none" xmlns="http://www.w3.org/2000/svg">
<path d="M8.08888 5.16129V3.56033C8.08888 3.03465 8.37777 2.53286 8.83518 2.24612L8.93148 2.19833C9.41296 1.91159 10.0148 1.91159 10.4963 2.17443H10.5204C11.0018 2.43728 11.2907 2.96296 11.2907 3.48865V5.1374L13.1204 6.18877L14.5407 5.37634C15.0222 5.1135 15.6 5.1135 16.0815 5.37634L16.1296 5.40024C16.6111 5.66308 16.9 6.18877 16.9 6.71446C16.9 7.24014 16.6111 7.76583 16.1537 8.02867L14.6611 8.91278L14.6852 11.0155L16.1537 11.8519C16.6352 12.1147 16.9241 12.6404 16.9241 13.1661V13.2378C16.9241 13.7873 16.6352 14.2891 16.1537 14.552L16.1056 14.5759C15.6241 14.8387 15.0463 14.8387 14.5648 14.5759L13.1444 13.7634L11.2667 14.8148V16.4158C11.2667 16.9415 10.9778 17.4432 10.5204 17.73L10.4241 17.7778C9.94259 18.0645 9.34074 18.0645 8.85925 17.8017L8.83518 17.7778C8.3537 17.5149 8.06481 16.9892 8.06481 16.4636V14.8148L6.25925 13.7634L4.83888 14.5759C4.3574 14.8387 3.77962 14.8387 3.29814 14.5759L3.24999 14.552C2.76851 14.2891 2.47962 13.7634 2.47962 13.2378C2.47962 12.6882 2.76851 12.2103 3.22592 11.9235L4.71851 11.0394L4.69444 8.93668L3.24999 8.12425C2.76851 7.86141 2.47962 7.33572 2.47962 6.81004V6.73835C2.47962 6.18877 2.76851 5.68698 3.24999 5.42413L3.29814 5.40024C3.77962 5.1374 4.3574 5.1374 4.83888 5.40024L6.25925 6.21266L8.08888 5.16129ZM9.72592 0C9.07592 0 8.44999 0.167264 7.89629 0.501792L7.79999 0.549582C6.88518 1.09916 6.25925 2.07885 6.13888 3.13023L6.06666 3.7276L5.51296 3.48865C5.05555 3.29749 4.57407 3.17802 4.06851 3.17802C3.44259 3.17802 2.84074 3.34528 2.31111 3.65591L2.26296 3.67981C1.15555 4.32497 0.481476 5.47192 0.481476 6.71446V6.83393C0.481476 7.95699 1.03518 9.00836 1.97407 9.65353L2.5037 10.0119L1.97407 10.3704C1.03518 11.0394 0.481476 12.0908 0.481476 13.2139V13.2616C0.481476 14.5042 1.15555 15.6511 2.23888 16.2724L2.28703 16.2963C2.81666 16.6069 3.44259 16.7742 4.04444 16.7742C4.54999 16.7742 5.03148 16.6786 5.48888 16.4636L6.04259 16.2246L6.11481 16.8459C6.23518 17.945 6.88518 18.9486 7.84814 19.4982L7.87222 19.5221C8.40185 19.8327 9.02777 20 9.62962 20C10.2796 20 10.9056 19.8327 11.4593 19.4982L11.5556 19.4504C12.4704 18.9008 13.0963 17.9211 13.2167 16.8698L13.2889 16.2724L13.8426 16.5114C14.3 16.7025 14.7815 16.822 15.287 16.822C15.913 16.822 16.5148 16.6547 17.0444 16.3441L17.0926 16.3202C18.1759 15.6989 18.85 14.5281 18.85 13.2855V13.2139C18.85 12.0908 18.2963 11.0155 17.3574 10.3465L16.8278 9.98805L17.3574 9.62963C18.2963 8.98447 18.85 7.9092 18.85 6.76225C18.85 5.51971 18.1759 4.34887 17.0685 3.7276L17.0204 3.7037C16.4907 3.39307 15.8889 3.22581 15.263 3.22581C14.7574 3.22581 14.2759 3.32139 13.8426 3.53644L13.2889 3.77539L13.2407 3.13023C13.1204 2.03106 12.4704 1.02748 11.5074 0.477897H11.4833C10.9537 0.167264 10.3278 0 9.72592 0ZM6.71666 7.57467L9.70185 9.27121L12.687 7.57467L9.70185 5.87814L6.71666 7.57467ZM6.09073 12.043L9.07592 13.7395V10.3465L6.09073 8.64994V12.043ZM10.3037 10.3465V13.7634L13.2889 12.0669V8.62605L10.3037 10.3465ZM27.5407 7.28793C27.1074 7.28793 26.6741 7.35962 26.2889 7.50299V9.39068C26.5778 9.24731 26.8907 9.17563 27.2037 9.17563C28.3833 9.17563 29.3463 10.1792 29.3463 11.4217C29.3463 12.6643 28.3833 13.6679 27.2037 13.6679C26.8667 13.6679 26.5537 13.5962 26.2889 13.4528C25.5667 13.0944 25.0611 12.3297 25.0611 11.4217V8.19594V4.85066C25.0611 4.6356 24.8685 4.44444 24.6518 4.44444H23.3278C23.1111 4.44444 22.9185 4.6356 22.9185 4.85066V14.9343C22.9185 15.1493 23.1111 15.3405 23.3278 15.3405H24.6518C24.8685 15.3405 25.0611 15.1493 25.0611 14.9343V14.5759C25.4222 14.8865 25.8315 15.1254 26.2889 15.2688C26.6741 15.4122 27.1074 15.4839 27.5407 15.4839C29.7315 15.4839 31.4889 13.644 31.4889 11.374C31.4889 9.12784 29.7315 7.28793 27.5407 7.28793ZM34.2333 4.37276C33.8963 4.37276 33.6074 4.49223 33.3667 4.70729C33.1259 4.92234 33.0056 5.20908 33.0056 5.51971C33.0056 5.85424 33.1259 6.11708 33.3667 6.35603C33.6074 6.59498 33.8963 6.69056 34.2333 6.69056C34.5704 6.69056 34.8352 6.59498 35.0759 6.35603C35.3167 6.11708 35.413 5.85424 35.413 5.51971C35.413 5.20908 35.2926 4.92234 35.0759 4.70729C34.8593 4.49223 34.5704 4.37276 34.2333 4.37276ZM34.8833 7.52688H33.5833C33.4389 7.52688 33.3426 7.57467 33.2704 7.64636C33.1981 7.71804 33.15 7.83751 33.15 7.95699V15.006C33.15 15.1254 33.1981 15.2449 33.2704 15.3166C33.3426 15.3883 33.463 15.4361 33.5833 15.4361H34.8833C35.0037 15.4361 35.1241 15.3883 35.1963 15.3166C35.2685 15.2449 35.3167 15.1254 35.3167 15.006V7.95699C35.3167 7.83751 35.2685 7.71804 35.1963 7.64636C35.1241 7.57467 35.0278 7.52688 34.8833 7.52688ZM41.0704 7.38351H39.9148V5.68698C39.9148 5.54361 39.8907 5.44803 39.7944 5.37634C39.7222 5.30466 39.6018 5.25687 39.4815 5.25687H38.2056C38.0611 5.25687 37.9648 5.28076 37.8926 5.37634C37.8204 5.44803 37.7722 5.5675 37.7722 5.68698V7.38351H37.2426C37.0981 7.38351 37.0018 7.4313 36.9296 7.50299C36.8574 7.57467 36.8093 7.69415 36.8093 7.81362V8.8411C36.8093 8.98447 36.8574 9.08005 36.9296 9.15173C37.0018 9.22342 37.1222 9.27121 37.2426 9.27121H37.7722V13.5484C37.7722 14.098 37.8926 14.5042 38.0852 14.7909C38.3018 15.0777 38.5907 15.2688 38.9518 15.3644C39.313 15.46 39.8185 15.5317 40.4685 15.5317C40.7093 15.5317 40.8778 15.5317 41.0222 15.5078C41.1667 15.5078 41.263 15.46 41.3352 15.3644C41.4074 15.2927 41.4556 15.1732 41.4556 15.0538V14.098C41.4556 13.8112 41.3111 13.6679 40.9981 13.6679H40.9018C40.5167 13.6679 40.2519 13.5723 40.1074 13.3811C39.987 13.19 39.9148 12.8793 39.9148 12.497V9.27121H41.0704C41.2148 9.27121 41.3111 9.24731 41.3833 9.15173C41.4556 9.08005 41.5037 8.96057 41.5037 8.8411V7.81362C41.5037 7.67025 41.4796 7.57467 41.3833 7.50299C41.3111 7.4313 41.2148 7.38351 41.0704 7.38351ZM59.7037 7.55078H53.1074C52.963 7.55078 52.8667 7.59857 52.7944 7.67025C52.7222 7.74194 52.6741 7.86141 52.6741 7.98088V8.98447C52.6741 9.12784 52.6981 9.22342 52.7944 9.2951C52.8667 9.36679 52.987 9.41458 53.1074 9.41458H56.4056L52.4574 14.9343C52.3852 15.0299 52.3611 15.1254 52.3611 15.221C52.3611 15.2927 52.3852 15.3644 52.4574 15.3883C52.5296 15.4361 52.6018 15.46 52.6981 15.46H59.4148C59.5593 15.46 59.6556 15.4122 59.7278 15.3405C59.7759 15.2927 59.8241 15.221 59.8241 15.1254C59.8241 15.1016 59.8241 15.0538 59.8241 15.0299V14.0263C59.8241 13.8829 59.7759 13.7873 59.7037 13.7157C59.6315 13.644 59.5111 13.5962 59.3907 13.5962H55.9241L59.8963 8.10036C59.9444 8.02867 59.9685 7.95699 59.9926 7.8853C59.9926 7.86141 59.9926 7.83752 59.9926 7.81362C59.9926 7.74194 59.9685 7.67025 59.9204 7.62246C59.8722 7.57467 59.8 7.55078 59.7037 7.55078ZM67.9852 7.55078H61.3889C61.2685 7.55078 61.1481 7.59857 61.0759 7.67025C61.0278 7.71804 60.9796 7.78973 60.9556 7.8853C60.9556 7.9092 60.9556 7.93309 60.9556 7.98088V8.98447C60.9556 9.12784 60.9796 9.22342 61.0759 9.2951C61.1481 9.36679 61.2685 9.41458 61.3889 9.41458H64.7111L60.7389 14.9343C60.6907 15.006 60.6426 15.0777 60.6426 15.1493C60.6426 15.1732 60.6426 15.1971 60.6426 15.221C60.6426 15.2927 60.6667 15.3644 60.7389 15.3883C60.787 15.4361 60.8833 15.46 60.9796 15.46H67.6481C67.7685 15.46 67.8889 15.4122 67.9611 15.3405C68.0333 15.2688 68.0815 15.1493 68.0815 15.0299V14.0263C68.0815 13.8829 68.0333 13.7873 67.9611 13.7157C67.8889 13.644 67.7685 13.5962 67.6481 13.5962H64.1815L68.1537 8.10036C68.2259 8.00478 68.25 7.9092 68.25 7.81362C68.25 7.74194 68.2259 7.67025 68.1778 7.62246C68.1296 7.57467 68.0574 7.55078 67.9852 7.55078ZM50.7241 7.52688H49.4C49.1833 7.52688 48.9907 7.71804 48.9907 7.93309V8.29152C48.6296 7.98088 48.2204 7.74194 47.763 7.59857C47.3778 7.4552 46.9444 7.38351 46.5111 7.38351C44.3204 7.38351 42.563 9.22342 42.563 11.4934C42.563 13.7634 44.3444 15.6033 46.5111 15.6033C46.9444 15.6033 47.3778 15.5317 47.763 15.3883V13.5006C47.4741 13.644 47.1611 13.7157 46.8481 13.7157C45.6685 13.7157 44.7056 12.7121 44.7056 11.4695C44.7056 10.227 45.6685 9.22342 46.8481 9.22342C47.1852 9.22342 47.4981 9.2951 47.763 9.43847C48.4852 9.79689 48.9907 10.5615 48.9907 11.4695V14.6714V15.0538C48.9907 15.2688 49.1833 15.46 49.4 15.46H50.7241C50.9407 15.46 51.1333 15.2688 51.1333 15.0538V7.93309C51.1333 7.71804 50.9648 7.52688 50.7241 7.52688ZM77.1093 7.52688H75.7852C75.5685 7.52688 75.3759 7.71804 75.3759 7.93309V8.29152C75.0148 7.98088 74.6056 7.74194 74.1481 7.59857C73.763 7.4552 73.3296 7.38351 72.8963 7.38351C70.7056 7.38351 68.9481 9.22342 68.9481 11.4934C68.9481 13.7634 70.7296 15.6033 72.8963 15.6033C73.3296 15.6033 73.763 15.5317 74.1481 15.3883V13.5006C73.8593 13.644 73.5463 13.7157 73.2333 13.7157C72.0537 13.7157 71.0907 12.7121 71.0907 11.4695C71.0907 10.227 72.0537 9.22342 73.2333 9.22342C73.5704 9.22342 73.8833 9.2951 74.1481 9.43847C74.8704 9.79689 75.3759 10.5615 75.3759 11.4695V14.6714V15.0538C75.3759 15.2688 75.5685 15.46 75.7852 15.46H77.1093C77.3259 15.46 77.5185 15.2688 77.5185 15.0538V7.93309C77.5185 7.71804 77.3259 7.52688 77.1093 7.52688Z" fill="white"/>
</svg>
