<svg width="104" height="12" viewBox="0 0 104 12" fill="none" xmlns="http://www.w3.org/2000/svg">
<path d="M92.3316 10.2997C92.8912 10.894 95.9577 13.7255 100.785 10.4396C104.271 7.72463 104.178 1.84032 103.851 0.0692029C103.735 0.325549 99.6887 9.18114 92.3316 10.2997ZM103.851 0.0692029C103.805 0.0458987 99.3273 -0.56001 94.885 2.29475C92.1334 4.06587 91.7719 6.66429 91.8885 8.3888C98.3479 7.66637 103.7 0.267288 103.851 0.0692029ZM103.851 0.0692029C103.805 0.0458987 99.3273 -0.56001 94.885 2.29475C92.1334 4.06587 91.7719 6.66429 91.8885 8.3888C98.3479 7.66637 103.7 0.267288 103.851 0.0692029ZM7.19391 9.95018H2.16867V7.28185H7.19391C8.45314 7.28185 9.09441 7.87611 9.09441 8.6568C9.08275 9.41418 8.45314 9.95018 7.19391 9.95018ZM7.03068 5.84864H2.16867V3.59979H7.03068C8.3482 3.59979 8.87288 4.06587 8.87288 4.70674C8.87288 5.28934 8.26659 5.84864 7.03068 5.84864ZM8.31322 6.53611C10.4236 6.4662 11.1931 5.41751 11.1931 4.27561C11.1931 3.01718 10.2021 1.98015 7.76523 1.98015H0V11.5465H7.99842C9.99219 11.5465 11.4729 10.7192 11.4729 8.92479C11.4729 7.66637 10.6451 6.58272 8.31322 6.53611ZM14.038 1.98015V11.5465H16.2067V1.98015H14.038ZM24.998 3.79787H29.7667V1.98015H18.0606V3.79787H22.8293V11.5582H24.998V3.79787ZM31.6322 1.98015V11.5465H33.8009V7.81784H38.8844V6.24481H33.8009V3.63474H42.0675V1.98015H31.6322ZM43.8164 1.98015V11.5465H45.9851V1.98015H43.8164ZM51.0686 4.31056L58.2625 11.5465H60.7227V1.98015H58.5773V8.87819L51.6749 1.98015H48.9233V11.5465H51.0686V4.31056ZM63.6492 1.98015V11.5465H74.2594V9.93853H65.8179V7.30515H70.8781V5.82534H65.8179V3.63474H74.2594V1.98015H63.6492ZM88.7871 1.98015H85.9189L82.2578 5.3476L78.6433 1.98015H75.7401L80.847 6.69924L75.5536 11.5582H78.4218L82.2578 8.02758L86.0821 11.5582H88.997L83.6919 6.68759L88.7871 1.98015Z" fill="white"/>
</svg>
