<svg width="111" height="14" viewBox="0 0 111 14" fill="none" xmlns="http://www.w3.org/2000/svg">
<path d="M110.202 13.3812C109.538 13.3812 109.006 13.2437 108.607 12.9686C108.208 12.6936 107.942 12.2811 107.942 11.6623V3.41139H109.006C109.405 3.41139 109.737 3.75518 109.737 4.16772V11.456C109.737 11.456 109.737 11.7998 110.003 12.0748C110.136 12.2123 110.402 12.3498 110.668 12.3498H110.867C110.934 12.3498 111 12.4186 111 12.4873V13.3812H110.202ZM87.2705 13.3812C86.1405 13.3812 85.2764 13.1062 84.6117 12.4873C84.2794 12.2123 84.0135 11.8685 83.8805 11.456C83.7476 11.0434 83.6811 10.4934 83.6811 9.80581C83.6811 9.11824 83.7476 8.49942 83.8805 8.15564C84.0135 7.81185 84.2794 7.46807 84.6117 7.19304C85.2764 6.57422 86.207 6.29919 87.2705 6.29919C88.334 6.29919 89.2646 6.57422 89.9293 7.19304C90.2616 7.46807 90.5275 7.81185 90.6604 8.15564C90.7933 8.56818 90.8598 9.11824 90.8598 9.80581C90.8598 10.5621 90.7933 11.1122 90.6604 11.456C90.5275 11.8685 90.2616 12.1436 89.9293 12.4873C89.2646 13.0374 88.4005 13.3812 87.2705 13.3812ZM87.2705 7.2618C86.074 7.2618 85.4758 8.08688 85.4758 9.80581C85.4758 11.5247 86.074 12.3498 87.2705 12.3498C88.4669 12.3498 89.0651 11.5247 89.0651 9.80581C89.0651 8.08688 88.4669 7.2618 87.2705 7.2618ZM94.848 13.3812C93.9174 13.3812 92.9868 13.1062 92.2557 12.6249C92.1892 12.5561 92.0563 12.4873 91.8568 12.3498C91.7904 12.3498 91.7904 12.2811 91.7904 12.2123V3.41139H92.8539C93.2527 3.41139 93.5851 3.75518 93.5851 4.16772V6.71174L93.9174 6.50547C94.3162 6.29919 94.848 6.23044 95.4462 6.23044C96.5762 6.23044 97.5067 6.57422 98.0385 7.2618C98.5703 7.88061 98.8361 8.7057 98.8361 9.73705C98.8361 10.7684 98.5702 11.5935 97.972 12.2123C97.3073 12.9686 96.2438 13.3812 94.848 13.3812ZM95.0474 7.2618C94.6486 7.2618 94.1833 7.39931 93.6515 7.74309L93.5851 7.81185V11.9373L93.6515 12.006C94.0503 12.2811 94.5156 12.4186 95.0474 12.4186C95.7121 12.4186 96.2438 12.1436 96.5762 11.5935C96.8421 11.1122 97.0415 10.5621 97.0415 9.87457C97.0415 8.08688 96.3768 7.2618 95.0474 7.2618ZM103.157 13.3124C101.163 13.3124 99.8996 11.9373 99.8996 9.73705C99.8996 7.53682 101.163 6.16168 103.157 6.16168C103.954 6.16168 104.619 6.36795 105.151 6.78049L105.284 6.84925V6.29919H106.68C106.746 6.29919 106.812 6.36795 106.812 6.43671V13.1749H105.217V12.5561L105.084 12.6249C104.619 13.1062 103.888 13.3124 103.157 13.3124ZM103.489 7.39931C102.226 7.39931 101.495 8.43067 101.495 9.73705C101.495 11.0434 102.226 12.1436 103.489 12.1436C103.888 12.1436 104.619 12.0748 105.151 11.5247V8.08688C104.752 7.60558 104.22 7.39931 103.489 7.39931ZM37.8838 13.2437V3.41139H45.8601V4.03021C45.8601 4.51151 45.4613 4.92405 44.996 4.92405H39.8779V7.60558H44.996V9.11824H39.8779V11.731H44.996C45.4613 11.731 45.8601 12.1436 45.8601 12.6249V13.2437H37.8838ZM57.2928 3.41139H55.4317C55.0993 3.41139 54.767 3.54891 54.5676 3.82393L52.3076 6.78049L50.0477 3.82393C49.8483 3.54891 49.5159 3.41139 49.1836 3.41139H47.3224L51.1112 8.36191L47.3224 13.3124H49.1836C49.5159 13.3124 49.8483 13.1749 50.0477 12.8999L52.3076 9.94333L54.5676 12.8999C54.767 13.1749 55.0993 13.3124 55.4317 13.3124H57.2928L53.5041 8.36191L57.2928 3.41139ZM31.7022 12.2123L34.2945 7.53682V13.2437H36.2885V3.34263H35.0256C34.6268 3.34263 34.2945 3.54891 34.095 3.89269L30.971 9.80581L27.8469 3.89269C27.6475 3.54891 27.3152 3.34263 26.9164 3.34263H25.6534V13.2437H27.6475V7.53682L30.2398 12.2123H31.7022ZM62.4774 13.3812C59.7522 13.4499 57.4922 11.181 57.4922 8.36191C57.4922 6.78049 57.9575 5.54286 58.8216 4.64902C59.6857 3.75518 60.9486 3.27388 62.411 3.27388C64.1392 3.27388 65.535 3.89269 66.5321 5.13032L65.9338 5.68038C65.535 6.02416 65.0033 6.02417 64.538 5.74914C64.0062 5.33659 63.2751 5.13032 62.4774 5.13032C60.4834 5.06156 59.3534 6.23044 59.3534 8.29315C59.3534 10.3559 60.5498 11.6623 62.4774 11.6623C63.2751 11.6623 63.9398 11.456 64.538 11.0434C64.9368 10.6997 65.535 10.7684 65.9338 11.1122L66.5321 11.6623C65.4686 12.7624 64.1392 13.3812 62.4774 13.3812ZM74.6413 13.3812C71.5837 13.3812 69.6561 11.456 69.6561 8.36191C69.6561 5.26784 71.5837 3.34263 74.6413 3.34263C76.1036 3.34263 77.3666 3.75518 78.2971 4.64902L77.8318 5.19908C77.6324 5.40535 77.3666 5.54286 77.0342 5.54286C76.9013 5.54286 76.7019 5.47411 76.5689 5.40535C75.9707 5.13032 75.3725 4.92405 74.6413 4.92405C72.6472 4.92405 71.4508 6.23044 71.4508 8.36191C71.4508 10.4934 72.7137 11.7998 74.7742 11.7998C75.7713 11.7998 76.5689 11.5935 77.1007 11.181H77.1671V9.11824H74.9737V8.43067C74.9737 7.94937 75.3725 7.53682 75.8378 7.53682H78.563C78.6295 7.53682 78.6959 7.60558 78.6959 7.67434V12.0748C77.6989 12.9686 76.3695 13.3812 74.6413 13.3812ZM82.1523 13.3812C81.4876 13.3812 80.9559 13.2437 80.5571 12.9686C80.1583 12.6936 79.8924 12.2811 79.8924 11.6623V3.41139H80.9559C81.3547 3.41139 81.6871 3.75518 81.6871 4.16772V11.456C81.6871 11.456 81.6871 11.7998 81.9529 12.0748C82.0859 12.2123 82.3517 12.3498 82.6176 12.3498H82.817C82.8835 12.3498 82.95 12.4186 82.95 12.4873V13.3812H82.1523ZM21.9976 10.6997C22.197 11.7998 21.7982 12.8999 20.9341 13.5187C20.0036 14.2063 18.6742 14.0688 17.8101 13.3812C17.0789 12.7624 16.6136 11.8685 16.1483 11.0434L15.8825 10.4934C15.6166 10.0121 14.4866 8.01812 14.4866 8.01812L11.562 2.79258L12.3596 1.41743C13.3566 -0.439013 15.9489 -0.439013 16.946 1.34867L21.7318 9.94333C21.8647 10.1496 21.9312 10.4246 21.9976 10.6997ZM15.3507 11.5247L15.0848 10.9747C14.819 10.4934 13.689 8.49942 13.689 8.49942L11.2961 4.30523L9.56788 1.21116C9.50141 1.07365 9.36847 0.936131 9.30201 0.867374L9.23554 0.798617C9.16907 0.729859 9.03613 0.592345 8.90319 0.523588C7.70674 -0.370256 5.8456 -0.163984 4.9815 1.48619L0.328653 9.94333C-0.601917 11.731 0.528061 14 2.65508 14H12.6255H16.8795H17.0789C16.4142 13.3812 15.8825 12.5561 15.3507 11.5247Z" fill="white"/>
</svg>
