<svg width="54" height="16" viewBox="0 0 54 16" fill="none" xmlns="http://www.w3.org/2000/svg">
<path d="M6.70252 7.87682L6.56272 7.73605C6.45543 7.63047 6.27336 7.70406 6.27336 7.85443V9.84763C6.27336 9.94041 6.35139 10.014 6.44242 10.014H8.46795C8.6175 10.014 8.69553 9.83483 8.58824 9.72925C8.52322 9.66527 8.52322 9.55969 8.58824 9.4925L10.7406 7.36813C10.8056 7.30414 10.8056 7.19856 10.7406 7.13137L10.5455 6.93941C10.4382 6.83383 10.5162 6.65467 10.6658 6.65467H12.6881C12.7823 6.65467 12.8571 6.72825 12.8571 6.82104V8.81424C12.8571 8.96141 12.675 9.03819 12.5678 8.93261L12.4312 8.79824C12.3629 8.73105 12.2589 8.73105 12.1906 8.79824L8.55898 12.3687C8.49395 12.4327 8.38666 12.4327 8.31839 12.3687L3.87719 7.9952C3.81217 7.93121 3.80892 7.82563 3.87719 7.75845L10.0253 1.70846C10.0903 1.64447 10.0903 1.53569 10.0253 1.47171L8.57849 0.0479904C8.51346 -0.0159968 8.40617 -0.0159968 8.3379 0.0479904L0.382112 7.88322C0.317087 7.94721 0.317087 8.05599 0.382112 8.11998L8.34115 15.952C8.40617 16.016 8.51671 16.016 8.58174 15.952L16.5408 8.11998C16.6058 8.05599 16.6058 7.95041 16.5408 7.88322L11.859 3.27614C11.794 3.21216 11.6867 3.21216 11.6184 3.27614L6.94311 7.87682C6.87809 7.94081 6.7708 7.94081 6.70252 7.87682ZM43.4415 9.85723C43.2367 9.85723 43.0579 9.93081 42.9116 10.0748C42.7653 10.222 42.6905 10.3915 42.6905 10.5899C42.6905 10.8938 42.8465 11.1306 43.1587 11.2969C43.5 11.3897 43.7732 11.3289 43.978 11.121C44.1275 10.9738 44.1991 10.7978 44.1991 10.5931C44.1991 10.3851 44.1243 10.2124 43.978 10.0716C43.8284 9.93081 43.6529 9.85723 43.4415 9.85723ZM31.3469 4.22636H30.7845C30.5406 4.22636 30.3455 4.41832 30.3455 4.65827V4.96541C29.7473 4.35433 29.0743 4.05039 28.3168 4.05039C27.4454 4.05039 26.7172 4.37033 26.1384 5.007C25.5565 5.64367 25.2671 6.44031 25.2671 7.39372C25.2671 8.36633 25.5565 9.17577 26.1352 9.82843C26.7204 10.4651 27.4617 10.785 28.3558 10.785C29.0645 10.785 29.7278 10.5003 30.3423 9.93401V10.5419C30.3423 10.8362 30.5861 11.0794 30.8852 11.0794H31.8444V4.72226C31.8476 4.45031 31.6233 4.22636 31.3469 4.22636ZM29.9294 8.90382C29.588 9.27814 29.1393 9.46691 28.5866 9.46691C28.0664 9.46691 27.6373 9.27175 27.2959 8.88462C26.9642 8.5007 26.7952 8.0016 26.7952 7.39372C26.7952 6.82424 26.9675 6.34113 27.3089 5.95401C27.6535 5.57009 28.0859 5.37812 28.5996 5.37812C29.1458 5.37812 29.588 5.56689 29.9294 5.94761C30.2708 6.33473 30.4431 6.82743 30.4431 7.42571C30.4398 8.024 30.2675 8.5167 29.9294 8.90382ZM25.2671 5.30134V4.67107C25.2671 4.42472 25.0655 4.22636 24.8152 4.22636H24.2235C23.9731 4.22636 23.7715 4.42472 23.7715 4.67107V4.94621C23.2318 4.34793 22.5523 4.04719 21.7363 4.04719C20.8064 4.04719 20.0554 4.39272 19.4896 5.08058C18.9629 5.73005 18.6996 6.5203 18.6996 7.44811C18.6996 8.40472 18.9825 9.20136 19.5514 9.83483C20.1139 10.4651 20.8357 10.7754 21.72 10.7754C22.4938 10.7754 23.1798 10.4779 23.7748 9.87962V10.769C23.7748 12.0904 23.2286 12.7526 22.1329 12.7526C21.5379 12.7526 21.086 12.5543 20.7771 12.1576C20.6991 12.0584 20.6308 11.9304 20.5788 11.78C20.504 11.5689 20.3025 11.4313 20.0781 11.4313H19.5124C19.2263 11.4313 19.015 11.7001 19.0865 11.972C19.2426 12.5511 19.5417 13.0214 19.9871 13.3861C20.5463 13.8436 21.2583 14.074 22.1199 14.074C23.144 14.074 23.9471 13.7413 24.5323 13.079C24.8412 12.7335 25.0493 12.3207 25.1566 11.8408C25.1923 11.6681 25.2216 11.4633 25.2411 11.2362C25.2606 11.009 25.2704 10.7435 25.2704 10.4427V9.5181C24.8509 8.92302 24.6396 8.21596 24.6396 7.38732C24.6364 6.58108 24.8477 5.88682 25.2671 5.30134ZM23.3716 8.85263C23.04 9.26215 22.5881 9.46691 22.0159 9.46691C21.4436 9.46691 20.995 9.26535 20.6731 8.85903C20.3772 8.4879 20.2277 8.0144 20.2277 7.43211C20.2277 6.84343 20.3772 6.36353 20.6731 5.9924C21.0015 5.57968 21.4501 5.37173 22.0159 5.37173C22.5491 5.37173 22.9847 5.56049 23.3261 5.94121C23.6642 6.31234 23.8333 6.80824 23.8333 7.42571C23.8301 8.0048 23.6772 8.4815 23.3716 8.85263ZM37.7031 4.23275V4.22636H34.6014V2.35793C34.6014 2.11798 34.4031 1.92282 34.1592 1.92282H33.5545C33.3074 1.92282 33.1058 2.12118 33.1058 2.36433V4.22636H32.4686V5.59888H33.1058V11.073H33.9577C34.312 11.073 34.5982 10.7914 34.6014 10.4427V10.4395V5.60208H36.136C36.2563 5.37493 36.4058 5.16377 36.5782 4.97181C36.8935 4.62947 37.2707 4.38312 37.7031 4.23275ZM45.337 1.92282C45.0704 1.92282 44.8428 2.0156 44.6542 2.20436C44.4657 2.39312 44.3681 2.61388 44.3681 2.87303C44.3681 3.14497 44.4624 3.37213 44.6542 3.56089C44.8461 3.74965 45.0769 3.84243 45.3468 3.84243C45.6166 3.84243 45.8442 3.74965 46.0295 3.56089C46.2213 3.37213 46.3156 3.14817 46.3156 2.87942C46.3156 2.61388 46.2213 2.38992 46.0295 2.20756C45.8377 2.0156 45.6069 1.92282 45.337 1.92282ZM45.6394 4.94941H45.0964C44.8168 4.94941 44.5925 5.17017 44.5925 5.44531V10.1196C44.7063 10.2508 44.7615 10.4075 44.7615 10.5867C44.7615 10.7658 44.7063 10.9258 44.5925 11.057V11.3193H45.5548C45.8507 11.3193 46.088 11.0826 46.088 10.7946V5.38772C46.088 5.14457 45.8865 4.94941 45.6394 4.94941ZM52.6718 5.85163C51.9988 5.20216 51.1762 4.87582 50.2106 4.87582C49.2482 4.87582 48.4322 5.19896 47.7624 5.84523C47.0927 6.4915 46.7578 7.27215 46.7578 8.19356C46.7578 9.16937 47.0862 9.982 47.7429 10.6283C48.3997 11.2809 49.2125 11.6105 50.1813 11.6105C51.16 11.6105 51.989 11.2905 52.662 10.6475C53.3285 10.0012 53.6667 9.20136 53.6667 8.24475C53.6667 7.29774 53.335 6.5011 52.6718 5.85163ZM51.6119 9.73885C51.264 10.11 50.7958 10.2923 50.2106 10.2923C49.6286 10.2923 49.1605 10.1068 48.8061 9.72925C48.4614 9.35813 48.2859 8.85263 48.2859 8.21916C48.2859 7.62727 48.4647 7.14097 48.8191 6.76665C49.1735 6.39232 49.6351 6.20356 50.2074 6.20356C50.7861 6.20356 51.2543 6.39232 51.6086 6.76665C51.9598 7.13777 52.1353 7.63367 52.1353 8.25115C52.1386 8.87183 51.963 9.36453 51.6119 9.73885ZM38.2591 9.4797C37.9502 9.17257 37.7779 8.75345 37.7389 8.23195H42.0272C42.2223 8.23195 42.3849 8.07838 42.3881 7.88642C42.3881 6.83383 42.1118 6.0116 41.5656 5.41972C41.0096 4.82144 40.2553 4.5239 39.3027 4.5239C38.3598 4.5239 37.6023 4.83103 37.0301 5.44531C36.4611 6.06919 36.1783 6.88502 36.1783 7.89282C36.1783 8.91022 36.4709 9.72606 37.0561 10.3403C37.4658 10.769 37.9664 11.0442 38.5582 11.1722C38.8085 11.2298 39.0654 11.2585 39.3255 11.2553C40.3919 11.2777 41.3185 11.3001 42.3816 11.3193V11.1658C42.2516 11.025 42.1866 10.8586 42.1866 10.6635C42.1866 10.4715 42.2548 10.3083 42.3881 10.1676V9.982C41.5461 9.96281 39.5108 9.94041 39.4295 9.94041C38.9581 9.94041 38.5647 9.78684 38.2591 9.4797ZM38.051 6.53629C38.1453 6.39232 38.2558 6.27075 38.3858 6.16837C38.5159 6.06599 38.6622 5.986 38.8215 5.93161C38.9808 5.87722 39.1531 5.84843 39.3352 5.84843C40.1318 5.84843 40.6357 6.24195 40.8438 7.02579H37.8364C37.8884 6.84343 37.9599 6.68026 38.051 6.53629Z" fill="white"/>
</svg>
