<svg width="72" height="18" viewBox="0 0 72 18" fill="none" xmlns="http://www.w3.org/2000/svg">
<path d="M56.5082 9.02857C56.5082 8.62858 56.5082 8.22858 56.5082 7.88572C56.5082 7.54286 56.4492 7.2 56.3902 6.91429C56.3311 6.62858 56.2131 6.34286 56.0951 6.05715C55.977 5.77143 55.741 5.54286 55.5049 5.31429C55.1508 4.97143 54.7967 4.74286 54.3246 4.51429C53.8525 4.34286 53.3803 4.22857 52.8492 4.22857C52.318 4.22857 51.8459 4.28572 51.3738 4.51429C50.9607 4.68572 50.5475 4.97143 50.1934 5.25715C49.9574 5.48572 49.7803 5.71429 49.6033 6C49.4852 6.28572 49.3672 6.57143 49.3082 6.85715C49.2492 7.2 49.1902 7.54286 49.1902 7.82857C49.1902 8.17143 49.1902 8.57143 49.1902 8.97143C49.1902 9.37143 49.1902 9.77143 49.1902 10.1143C49.1902 10.4571 49.2492 10.8 49.3082 11.0857C49.3672 11.3714 49.4852 11.6571 49.6033 11.9429C49.7213 12.2286 49.9574 12.4571 50.1934 12.6857C50.5475 13.0286 50.9016 13.2571 51.3738 13.4286C51.8459 13.6 52.377 13.7143 52.8492 13.7143C53.3803 13.7143 53.8525 13.6571 54.3246 13.4286C54.7377 13.2571 55.1508 12.9714 55.5049 12.6857C55.741 12.4571 55.918 12.2286 56.0951 11.9429C56.2131 11.6571 56.3311 11.3714 56.3902 11.0857C56.4492 10.7429 56.5082 10.4 56.5082 10.1143C56.5082 9.82858 56.5082 9.42858 56.5082 9.02857ZM54.6197 9.02857C54.6197 9.48572 54.6197 9.88572 54.6197 10.1714C54.6197 10.4 54.5607 10.6857 54.5607 10.9143C54.5607 11.0857 54.5016 11.2571 54.3836 11.3714C54.3246 11.4857 54.2656 11.6 54.1475 11.7143C54.0295 11.8857 53.8525 12 53.6164 12.0571C53.3803 12.1714 53.1443 12.1714 52.9082 12.1714C52.6721 12.1714 52.4361 12.1143 52.2 12.0571C52.0229 12 51.7869 11.8286 51.6688 11.7143C51.5508 11.6 51.4918 11.4857 51.4328 11.3714C51.3738 11.2 51.3148 11.0857 51.3148 10.9143C51.2557 10.6857 51.2557 10.4 51.2557 10.1714C51.2557 9.88572 51.2557 9.48572 51.2557 9.02857C51.2557 8.57143 51.2557 8.17143 51.2557 7.88572C51.2557 7.65715 51.3148 7.37143 51.3148 7.14286C51.3148 6.97143 51.3738 6.8 51.4328 6.68572C51.4918 6.57143 51.5508 6.45715 51.6688 6.34286C51.7869 6.17143 52.0229 6.05715 52.2 6C52.4361 5.88572 52.6721 5.88572 52.9082 5.88572C53.1443 5.88572 53.3803 5.94286 53.6164 6C53.7934 6.05715 53.9705 6.22858 54.1475 6.34286C54.2656 6.45715 54.3246 6.57143 54.3836 6.68572C54.4426 6.85715 54.5016 6.97143 54.5607 7.14286C54.6197 7.37143 54.6197 7.65715 54.6197 7.88572C54.6197 8.17143 54.6197 8.57143 54.6197 9.02857ZM71.7344 4.45715C71.7344 4.34286 71.6754 4.28572 71.5574 4.28572H69.9639C69.8459 4.28572 69.7869 4.34286 69.7869 4.45715V10.1143L65.9508 4.34286C65.9508 4.28572 65.8918 4.28572 65.8328 4.28572H64.3574C64.2393 4.28572 64.1803 4.34286 64.1803 4.45715V13.6C64.1803 13.7143 64.2393 13.7714 64.3574 13.7714H65.9508C66.0689 13.7714 66.1279 13.7143 66.1279 13.6V7.94286L69.9639 13.7143C69.9639 13.7714 70.0229 13.7714 70.082 13.7714H71.5574C71.6754 13.7714 71.7344 13.7143 71.7344 13.6V4.45715ZM61.1705 4.45715C61.1705 4.34286 61.1115 4.28572 60.9934 4.28572H59.4C59.282 4.28572 59.2229 4.34286 59.2229 4.45715V13.6C59.2229 13.7143 59.282 13.7714 59.4 13.7714H60.9934C61.1115 13.7714 61.1705 13.7143 61.1705 13.6V4.45715ZM42.3443 9.02857C42.3443 8.57143 42.3443 8.17143 42.3443 7.88572C42.3443 7.65715 42.4033 7.37143 42.4033 7.14286C42.5213 6.34286 43.1705 5.82857 43.9967 5.82857C44.5279 5.82857 45 6 45.3541 6.45715C45.4721 6.68572 45.5902 6.91429 45.6492 7.14286C45.6492 7.14286 45.6492 7.2 45.7082 7.2H47.5377C47.5377 7.2 47.5967 7.2 47.5967 7.14286C47.4197 6.05715 46.8295 5.02857 45.7082 4.57143C45.177 4.34286 44.5869 4.22857 43.9967 4.22857C42.9344 4.22857 42.0492 4.57143 41.341 5.25715C40.9279 5.65715 40.6328 6.11429 40.5147 6.68572C40.3967 7.2 40.3377 8 40.3377 9.02857C40.3377 10.0571 40.3967 10.8571 40.5147 11.3714C40.6328 11.8857 40.9279 12.4 41.282 12.8C41.9902 13.4857 42.8754 13.8286 43.9377 13.8286C44.5279 13.8286 45.118 13.7143 45.6492 13.4857C46.7115 12.9714 47.3606 12 47.5377 10.8571C47.5377 10.8571 47.5377 10.8 47.4787 10.8H45.7082C45.7082 10.8 45.6492 10.8 45.6492 10.8571C45.5902 11.0857 45.4721 11.3143 45.3541 11.5429C45.059 12 44.5279 12.1714 43.9967 12.1714C43.1705 12.1714 42.5213 11.7143 42.4033 10.8571C42.3443 10.6286 42.3443 10.3429 42.3443 10.1143C42.3443 9.82858 42.3443 9.48572 42.3443 9.02857ZM22.7508 4.45715C22.7508 4.34286 22.6918 4.28572 22.5738 4.28572H20.9803C20.8623 4.28572 20.8033 4.34286 20.8033 4.45715V13.6C20.8033 13.7143 20.8623 13.7714 20.9803 13.7714H22.5738C22.6918 13.7714 22.7508 13.7143 22.7508 13.6V10.9143L23.9902 9.42858L26.5869 13.7143C26.5869 13.7714 26.6459 13.7714 26.7049 13.7714H28.5934C28.6525 13.7714 28.7115 13.7143 28.6525 13.6571L25.2295 8.05715L28.4164 4.45715C28.4754 4.4 28.4754 4.28572 28.3574 4.28572H26.2328C26.2328 4.28572 26.1738 4.28572 26.1738 4.34286L22.7508 8.34286V4.45715ZM34.259 12.1714C33.3738 12.1714 32.5475 11.3714 32.5475 10.4571V4.45715C32.5475 4.34286 32.4885 4.28572 32.3705 4.28572H30.777C30.659 4.28572 30.6 4.34286 30.6 4.45715V10.4571C30.6 12.5714 32.1934 13.8857 34.2 13.8857C36.2066 13.8857 37.8 12.5714 37.8 10.4571V4.45715C37.8 4.34286 37.741 4.28572 37.6229 4.28572H36.0295C35.9115 4.28572 35.8525 4.34286 35.8525 4.45715V10.4571C35.9115 11.3714 35.1443 12.1714 34.259 12.1714ZM5.04589 9.02857L9.94425 13.7714L13.0131 10.8C13.5443 10.3429 14.4295 10.3429 14.9606 10.8571C15.4918 11.3714 15.4918 12.1714 15.0197 12.7429L10.8885 16.6286C10.3574 17.1429 9.47212 17.1429 8.94098 16.6286L3.03933 10.9143V14.2857C3.03933 15.0286 2.39015 15.6571 1.62294 15.6571C0.855728 15.6571 0.265564 15.0286 0.265564 14.2857V3.71429C0.265564 2.97143 0.914744 2.34286 1.68196 2.34286C2.44917 2.34286 3.09835 2.97143 3.09835 3.71429V7.08572L8.99999 1.37143C9.53114 0.857146 10.4164 0.857146 10.9475 1.37143L15.0197 5.31429C15.4918 5.82858 15.4918 6.68572 14.9606 7.2C14.4295 7.71429 13.6033 7.71429 13.0131 7.25715L9.94425 4.28572L5.04589 9.02857ZM9.94425 7.65715C9.35409 7.65715 8.88196 8 8.64589 8.51429C8.40983 9.02857 8.52786 9.6 8.94098 10C9.35409 10.4 9.94425 10.5143 10.4754 10.2857C11.0065 10.0571 11.3606 9.6 11.3606 9.02857C11.3606 8.68572 11.2426 8.34286 10.9475 8.05715C10.6525 7.82858 10.2984 7.65715 9.94425 7.65715Z" fill="white"/>
</svg>
