<svg width="40" height="39" viewBox="0 0 40 39" fill="none" xmlns="http://www.w3.org/2000/svg">
<path d="M1.1906 30.9269H2.10838V34.2451H3.80871V35.0923H1.1906V30.9269Z" fill="white"/>
<path d="M5.2324 34.2451H5.70894C5.92078 34.2451 6.11785 34.2236 6.30021 34.1804C6.48266 34.1374 6.6405 34.0657 6.77389 33.9657C6.90711 33.8656 7.01211 33.7343 7.08864 33.5714C7.16508 33.4087 7.2033 33.2097 7.2033 32.9743C7.2033 32.7704 7.16508 32.5929 7.08864 32.4419C7.01211 32.2909 6.90913 32.1664 6.77969 32.0683C6.65033 31.9703 6.49828 31.8967 6.32382 31.8477C6.14918 31.7986 5.96581 31.7741 5.7737 31.7741H5.2324V34.2451ZM4.31462 30.9269H5.6913C6.02461 30.9269 6.34146 30.9642 6.64151 31.0387C6.94155 31.1133 7.2033 31.2338 7.4269 31.4005C7.65051 31.5673 7.82792 31.7839 7.95938 32.0506C8.09067 32.3174 8.15645 32.641 8.15645 33.0214C8.15645 33.3588 8.09269 33.6559 7.96526 33.9127C7.83775 34.1697 7.66614 34.3854 7.45043 34.5599C7.23471 34.7344 6.98565 34.8668 6.70324 34.957C6.42084 35.0473 6.12465 35.0923 5.81486 35.0923H4.31462V30.9269Z" fill="white"/>
<path d="M10.5039 32.1388L9.99793 33.4332H11.0157L10.5039 32.1388ZM10.1508 30.9268H10.9098L12.7219 35.0923H11.6864L11.3276 34.2098H9.70956L9.36247 35.0923H8.35052L10.1508 30.9268Z" fill="white"/>
<path d="M18.4253 34.5794C18.2253 34.85 17.9938 35.0441 17.731 35.1618C17.4682 35.2795 17.1839 35.3383 16.878 35.3383C16.5602 35.3383 16.269 35.2844 16.0042 35.1765C15.7395 35.0687 15.513 34.9176 15.3248 34.7235C15.1365 34.5293 14.9894 34.298 14.8835 34.0293C14.7776 33.7606 14.7247 33.4675 14.7247 33.1497C14.7247 32.832 14.7776 32.5399 14.8835 32.2731C14.9894 32.0064 15.1365 31.776 15.3248 31.5818C15.513 31.3876 15.7395 31.2357 16.0042 31.1258C16.269 31.016 16.5602 30.9611 16.878 30.9611C17.1603 30.9611 17.4241 31.0111 17.6693 31.1111C17.9143 31.2111 18.1291 31.3787 18.3135 31.6141L17.9958 31.8789C17.8664 31.6828 17.7006 31.5397 17.4987 31.4494C17.2966 31.3592 17.0898 31.3141 16.878 31.3141C16.6073 31.3141 16.3632 31.3611 16.1454 31.4553C15.9278 31.5494 15.7425 31.6789 15.5895 31.8436C15.4365 32.0084 15.3189 32.2024 15.2365 32.426C15.1542 32.6496 15.1129 32.8908 15.1129 33.1497C15.1129 33.4086 15.1542 33.6498 15.2365 33.8734C15.3189 34.097 15.4365 34.2911 15.5895 34.4558C15.7425 34.6205 15.9278 34.75 16.1454 34.8441C16.3632 34.9382 16.6073 34.9853 16.878 34.9853C16.9839 34.9853 17.0936 34.9727 17.2074 34.9471C17.3211 34.9216 17.4319 34.8824 17.5398 34.8294C17.6477 34.7765 17.7506 34.7098 17.8487 34.6294C17.9467 34.5491 18.033 34.4519 18.1076 34.3381L18.4253 34.5794Z" fill="white"/>
<path d="M20.5962 31.4906L19.6255 33.7733H21.5376L20.5962 31.4906ZM20.414 31.0669H20.814L22.5673 35.2324H22.1319L21.6789 34.1263H19.4726L19.0018 35.2324H18.5959L20.414 31.0669Z" fill="white"/>
<path d="M23.5556 32.9026H24.4381C24.5479 32.9026 24.6557 32.89 24.7616 32.8644C24.8675 32.8389 24.9617 32.7978 25.0441 32.7408C25.1264 32.6839 25.1931 32.6084 25.2442 32.5143C25.295 32.4202 25.3206 32.3045 25.3206 32.1672C25.3206 32.0339 25.2941 31.9201 25.2411 31.826C25.1882 31.7318 25.1195 31.6544 25.0353 31.5935C24.9508 31.5328 24.8537 31.4887 24.7439 31.4612C24.6342 31.4339 24.5243 31.4201 24.4146 31.4201H23.5556V32.9026ZM23.1673 31.0669H24.3675C24.5126 31.0669 24.6646 31.0837 24.8235 31.117C24.9823 31.1504 25.1273 31.2082 25.2588 31.2906C25.3902 31.373 25.498 31.4858 25.5824 31.6289C25.6667 31.7721 25.7089 31.9515 25.7089 32.1672C25.7089 32.3554 25.6745 32.5183 25.6059 32.6556C25.5372 32.7928 25.445 32.9055 25.3294 32.9938C25.2137 33.0821 25.0803 33.1478 24.9293 33.191C24.7783 33.2341 24.6205 33.2556 24.4557 33.2556H23.5556V35.2324H23.1673V31.0669Z" fill="white"/>
<path d="M26.5443 31.067H26.9326V35.2325H26.5443V31.067Z" fill="white"/>
<path d="M28.9976 31.42H27.5739V31.0669H30.8097V31.42H29.386V35.2324H28.9976V31.42Z" fill="white"/>
<path d="M32.5101 31.4906L31.5393 33.7733H33.4514L32.5101 31.4906ZM32.3277 31.0669H32.7278L34.481 35.2324H34.0456L33.5926 34.1263H31.3863L30.9157 35.2324H30.5098L32.3277 31.0669Z" fill="white"/>
<path d="M35.0811 31.0669H35.4694V34.8795H37.4109V35.2324H35.0811V31.0669Z" fill="white"/>
<path d="M6.06163 16.5591C6.06163 16.5591 7.12238 17.4775 10.0552 15.8857C12.9881 14.2939 16.7055 7.61314 18.7289 6.39614C20.8923 5.09499 23.0346 5.96766 24.4698 7.37575C25.9049 8.78385 25.8425 10.192 25.8425 10.192C25.8425 10.192 24.0152 9.11052 22.8474 10.1308C20.8198 11.902 23.6039 15.3472 26.5945 15.6993C29.6663 16.0609 32.1524 13.7409 32.1524 13.7409C32.1524 13.7409 32.8014 18.8394 28.5576 23.0744C24.2157 27.4071 19.6418 27.1346 17.9748 27.0199C15.493 26.8491 7.8384 25.4247 6.06163 16.5591Z" fill="white"/>
<path fill-rule="evenodd" clip-rule="evenodd" d="M5.56004 13.7263C5.56004 21.1736 11.5973 27.2109 19.0446 27.2109C26.492 27.2109 32.5293 21.1736 32.5293 13.7263C32.5293 6.27889 26.492 0.241565 19.0446 0.241565C11.5973 0.241565 5.56004 6.27889 5.56004 13.7263ZM19.0446 26.5389C11.9684 26.5389 6.23204 20.8025 6.23204 13.7263C6.23204 6.65002 11.9684 0.913566 19.0446 0.913566C26.1209 0.913566 31.8573 6.65002 31.8573 13.7263C31.8573 20.8025 26.1209 26.5389 19.0446 26.5389Z" fill="white"/>
</svg>
