<svg width="98" height="26" viewBox="0 0 98 26" fill="none" xmlns="http://www.w3.org/2000/svg">
<path fill-rule="evenodd" clip-rule="evenodd" d="M90.3438 9.61585C91.0788 9.61585 91.7525 9.85976 92.3037 10.3476C92.3037 10.3476 92.365 10.3476 92.365 10.4085V10.4695V10.5305C92.365 10.5305 92.365 10.5915 92.3037 10.5915L91.8138 11.1402C91.8138 11.1402 91.8138 11.1402 91.7525 11.2012H91.6913H91.63C91.63 11.2012 91.5687 11.2012 91.5687 11.1402C91.2625 10.8354 90.7725 10.6524 90.3438 10.6524C90.0988 10.6524 89.8538 10.7134 89.6088 10.7744C89.3638 10.8963 89.18 11.0183 88.9963 11.2012C88.8125 11.3841 88.69 11.5671 88.6288 11.811C88.5675 12.0549 88.5062 12.2988 88.5062 12.5427C88.5062 12.7866 88.5675 13.0305 88.6288 13.2744C88.69 13.5183 88.8738 13.7012 88.9963 13.8841C89.18 14.0671 89.3638 14.189 89.6088 14.311C89.8538 14.4329 90.0988 14.4329 90.3438 14.4329C90.5275 14.4329 90.7725 14.4329 90.9563 14.372C91.0175 14.372 91.0788 14.311 91.2012 14.311L91.2625 14.25H91.3238V13.5793H90.65C90.5275 13.5793 90.5275 13.5183 90.5275 13.4573V12.8476C90.5275 12.7256 90.5888 12.7256 90.65 12.7256H92.1813C92.3037 12.7256 92.3037 12.7866 92.3037 12.8476V14.9207V14.9817C92.3037 14.9817 92.3038 15.0427 92.2425 15.0427C91.63 15.4085 90.9563 15.5915 90.2213 15.5915C89.8538 15.5915 89.4863 15.5305 89.1188 15.3476C88.7513 15.2256 88.445 14.9817 88.2 14.7378C87.955 14.4939 87.71 14.128 87.5875 13.8232C87.465 13.4573 87.3425 13.0915 87.3425 12.7256C87.3425 12.3598 87.4037 11.9329 87.5262 11.628C87.6488 11.2622 87.8937 10.9573 88.1387 10.6524C88.3838 10.3476 88.7513 10.1646 89.0575 9.98171C89.5475 9.67683 89.915 9.61585 90.3438 9.61585ZM36.995 9.61585C37.73 9.61585 38.4038 9.85976 38.955 10.3476C38.955 10.3476 39.0163 10.3476 39.0163 10.4085V10.4695V10.5305C39.0163 10.5305 39.0163 10.5915 38.955 10.5915L38.465 11.0793C38.465 11.0793 38.465 11.0793 38.4038 11.1402H38.3425H38.2812C38.2812 11.1402 38.22 11.1402 38.22 11.0793C37.8525 10.7744 37.4238 10.5915 36.995 10.5915C36.75 10.5915 36.505 10.6524 36.26 10.7134C36.015 10.8354 35.8313 10.9573 35.6475 11.1402C35.4638 11.3232 35.3413 11.5061 35.28 11.75C35.2188 11.9939 35.1575 12.2378 35.1575 12.4817C35.1575 12.7256 35.2188 12.9695 35.28 13.2134C35.3413 13.4573 35.525 13.6402 35.6475 13.8232C35.8313 14.0061 36.015 14.128 36.26 14.25C36.505 14.372 36.75 14.372 36.995 14.372C37.4238 14.372 37.9138 14.189 38.22 13.8841C38.22 13.8841 38.22 13.8841 38.2812 13.8232H38.3425H38.4038C38.4038 13.8232 38.465 13.8232 38.465 13.8841L38.955 14.372C38.955 14.372 38.955 14.372 39.0163 14.4329V14.4939C39.0163 14.5549 39.0163 14.5549 38.955 14.6159C38.71 14.8598 38.4038 15.0427 38.0363 15.2256C37.6688 15.3476 37.3625 15.4085 36.995 15.4085C36.6275 15.4085 36.26 15.3476 35.8925 15.2256C35.525 15.1037 35.2188 14.8598 34.9738 14.6159C34.6675 14.372 34.4837 14.0061 34.3 13.7012C34.1775 13.3354 34.055 12.9695 34.1163 12.6037C34.1163 12.2378 34.1775 11.872 34.3612 11.5061C34.4837 11.1402 34.7287 10.8354 34.9738 10.5305C35.2188 10.2866 35.5863 10.0427 35.9538 9.92073C36.1987 9.73781 36.5662 9.61585 36.995 9.61585ZM27.5625 9.92073V9.85976V9.79878L27.6237 9.73781H27.685H28.5425H28.6038C28.6038 9.73781 28.6038 9.73781 28.665 9.73781L28.7263 9.79878L30.3188 13.2744H30.38L31.9112 9.79878C31.9112 9.79878 31.9113 9.73781 31.9725 9.73781C31.9725 9.73781 31.9725 9.73781 32.0337 9.73781H32.095H32.8913H32.9525C32.9525 9.73781 33.0138 9.73781 33.0138 9.79878V9.85976V9.92073L30.5025 15.3476C30.5025 15.3476 30.5025 15.4085 30.4413 15.4085H30.38H30.3188H30.2575L30.1963 15.3476L27.5625 9.92073ZM45.2638 10.3476C44.7125 9.85976 44.0387 9.61585 43.3037 9.61585C42.9362 9.61585 42.5688 9.67683 42.2013 9.85976C41.8338 9.98171 41.5275 10.2256 41.2213 10.4695C40.9763 10.7134 40.7313 11.0793 40.6088 11.4451C40.4863 11.811 40.3638 12.1768 40.3638 12.5427C40.3638 12.9085 40.425 13.2744 40.5475 13.6402C40.67 14.0061 40.915 14.311 41.2213 14.5549C41.4663 14.7988 41.8338 15.0427 42.14 15.1646C42.5075 15.2866 42.875 15.4085 43.2425 15.3476C43.61 15.3476 43.9775 15.2866 44.2838 15.1646C44.6513 15.0427 44.9575 14.8598 45.2025 14.5549C45.2025 14.5549 45.2638 14.4939 45.2638 14.4329V14.372C45.2638 14.372 45.2638 14.311 45.2025 14.311L44.7125 13.8232C44.7125 13.8232 44.7125 13.8232 44.6513 13.7622H44.59H44.5287C44.5287 13.7622 44.4675 13.7622 44.4675 13.8232C44.1 14.128 43.6712 14.311 43.2425 14.311C42.9975 14.311 42.7525 14.25 42.5075 14.189C42.2625 14.0671 42.0788 13.9451 41.895 13.7622C41.7113 13.5793 41.5888 13.3963 41.5275 13.1524C41.4663 12.9085 41.405 12.6646 41.405 12.4207C41.405 12.1768 41.4663 11.9329 41.5275 11.689C41.5888 11.4451 41.7725 11.2622 41.895 11.0793C42.0788 10.8963 42.2625 10.7744 42.5075 10.6524C42.7525 10.5305 42.9975 10.5305 43.2425 10.5305C43.7325 10.5305 44.1613 10.7134 44.4675 11.0183C44.5288 11.0793 44.59 11.0793 44.6513 11.0183L45.1413 10.5305C45.1413 10.5305 45.2025 10.5305 45.2025 10.4695V10.4085C45.325 10.4695 45.325 10.4085 45.2638 10.3476C45.2638 10.4085 45.2638 10.4085 45.2638 10.3476ZM49.735 9.85976C49.735 9.73781 49.7962 9.73781 49.9188 9.73781H53.2263H53.2875C53.2875 9.73781 53.3488 9.73781 53.3488 9.79878C53.3488 9.85976 53.3488 9.85976 53.41 9.85976V9.92073V10.5915C53.41 10.7134 53.3488 10.7744 53.2875 10.7744H50.8988V12.1159H52.92H52.9813C52.9813 12.1159 53.0425 12.1159 53.0425 12.1768C53.0425 12.1768 53.0425 12.2378 53.1037 12.2378V12.2988V12.9695C53.1037 13.0915 53.0425 13.1524 52.9813 13.1524H50.96V14.5549H53.3488C53.4712 14.5549 53.4713 14.6159 53.4713 14.7378V15.4085C53.4713 15.5305 53.41 15.5915 53.3488 15.5915H50.0412H49.98C49.98 15.5915 49.9188 15.5915 49.9188 15.5305C49.9188 15.5305 49.9188 15.4695 49.8575 15.4695V15.4085V9.85976H49.735ZM54.88 9.92073L56.4725 12.4207L54.8188 15.1037V15.1646V15.2256L54.88 15.2866H54.9412H55.7988H55.86C55.86 15.2866 55.9213 15.2866 55.9213 15.2256L57.085 13.3963L58.2487 15.2256C58.2487 15.2256 58.2487 15.2866 58.31 15.2866H58.3713H59.2287H59.29L59.3513 15.2256V15.1646V15.1037L57.6362 12.4207L59.29 9.92073V9.85976V9.79878L59.2287 9.73781H59.1675H58.2487H58.1875C58.1875 9.73781 58.1263 9.73781 58.1263 9.79878L57.085 11.5061L56.0438 9.79878C56.0438 9.79878 56.0438 9.73781 55.9825 9.73781H55.9213H55.0025H54.9412L54.88 9.79878V9.85976V9.92073ZM63.7 9.61585C64.435 9.61585 65.1087 9.85976 65.66 10.3476C65.66 10.3476 65.7213 10.3476 65.7213 10.4085V10.4695V10.5305C65.7213 10.5305 65.7213 10.5915 65.66 10.5915L65.17 11.0793C65.1087 11.1402 65.0475 11.1402 64.9863 11.0793C64.6188 10.7744 64.19 10.5915 63.7612 10.5915C63.5163 10.5915 63.2713 10.6524 63.0263 10.7134C62.7813 10.8354 62.5975 10.9573 62.4138 11.1402C62.23 11.3232 62.1075 11.5061 62.0463 11.75C61.985 11.9939 61.9238 12.2378 61.9238 12.4817C61.9238 12.7256 61.985 12.9695 62.0463 13.2134C62.1075 13.4573 62.2913 13.6402 62.4138 13.8232C62.5975 14.0061 62.7813 14.128 63.0263 14.25C63.2713 14.372 63.5163 14.372 63.7612 14.372C64.19 14.372 64.68 14.189 64.9863 13.8841C64.9863 13.8841 64.9863 13.8841 65.0475 13.8232H65.1087H65.17C65.17 13.8232 65.2313 13.8232 65.2313 13.8841L65.7213 14.372C65.7213 14.372 65.7213 14.372 65.7825 14.4329V14.4939C65.7825 14.5549 65.7825 14.5549 65.7213 14.6159C65.4762 14.8598 65.17 15.0427 64.8025 15.2256C64.435 15.4085 64.1288 15.4085 63.7612 15.4085C63.3937 15.4085 62.965 15.3476 62.6588 15.2256C62.2913 15.1037 61.985 14.8598 61.74 14.6159C61.4338 14.372 61.25 14.0061 61.0662 13.7012C60.9437 13.3354 60.8213 12.9695 60.8825 12.6037C60.8825 12.2378 60.9438 11.872 61.1275 11.5061C61.25 11.1402 61.495 10.8354 61.74 10.5305C61.985 10.2866 62.3525 10.0427 62.72 9.92073C62.9038 9.67683 63.2713 9.61585 63.7 9.61585ZM67.6813 9.67683C67.5588 9.67683 67.4975 9.73781 67.4975 9.79878V15.1646V15.2256C67.4975 15.2256 67.4975 15.2866 67.5588 15.2866C67.5588 15.2866 67.62 15.2866 67.62 15.3476H67.6813H68.4163C68.5387 15.3476 68.5387 15.2866 68.5387 15.1646V12.9695H71.1725V15.1646V15.2256C71.1725 15.2256 71.1725 15.2866 71.2338 15.2866C71.2338 15.2866 71.295 15.2866 71.295 15.3476H71.3563H72.0912C72.2138 15.3476 72.2138 15.2866 72.2138 15.1646V9.79878V9.73781C72.2138 9.73781 72.2138 9.67683 72.1525 9.67683C72.1525 9.67683 72.0912 9.67683 72.0912 9.61585H72.03H71.295C71.1725 9.61585 71.1113 9.67683 71.1113 9.73781V11.872H68.6V9.73781V9.67683C68.6 9.67683 68.6 9.61585 68.5387 9.61585C68.5387 9.61585 68.4775 9.61585 68.4775 9.55488H68.4163H67.6813V9.67683ZM73.99 15.3476H73.9287C73.9287 15.3476 73.8675 15.3476 73.8675 15.2866V15.2256V15.1646L76.3787 9.73781L76.44 9.67683H76.5013H76.5625H76.6237L76.685 9.73781L79.1963 15.1646V15.2256V15.2866L79.135 15.3476H79.0738H78.3388C78.2775 15.3476 78.2162 15.3476 78.2162 15.2866C78.155 15.2866 78.155 15.2256 78.0938 15.1646L77.7262 14.311H75.2763L74.9088 15.1646C74.9088 15.2256 74.8475 15.2256 74.8475 15.2866C74.7862 15.2866 74.725 15.3476 74.725 15.3476H73.99ZM77.2975 13.3963L76.5013 11.628L75.705 13.3963H77.2975ZM80.9113 9.61585C80.7888 9.61585 80.7275 9.67683 80.7275 9.73781V15.1646V15.2256C80.7275 15.2256 80.7275 15.2866 80.7887 15.2866C80.7887 15.2866 80.85 15.2866 80.85 15.3476H80.9113H81.6463C81.7688 15.3476 81.7688 15.2866 81.7688 15.1646V11.689L85.1375 15.4085H85.3213C85.4438 15.4085 85.505 15.3476 85.505 15.2866V9.85976C85.505 9.73781 85.4438 9.73781 85.3213 9.73781H84.5863C84.4638 9.73781 84.4025 9.79878 84.4025 9.85976V13.2134L81.0338 9.67683H80.9113V9.61585ZM94.3863 9.79878V9.85976V15.2256C94.3863 15.3476 94.4475 15.4085 94.5088 15.4085H97.8163H97.8775C97.8775 15.4085 97.9388 15.4085 97.9388 15.3476C97.9388 15.3476 97.9388 15.2866 98 15.2866V15.2256V14.5549V14.4939C98 14.4939 98 14.4329 97.9388 14.4329C97.9388 14.4329 97.8775 14.4329 97.8775 14.372H97.8163H95.4275V12.9695H97.4488H97.51C97.51 12.9695 97.5713 12.9695 97.5713 12.9085C97.5713 12.9085 97.5713 12.8476 97.6325 12.8476C97.6937 12.8476 97.6325 12.7866 97.6325 12.7866V12.1159C97.6325 11.9939 97.5713 11.9939 97.4488 11.9939H95.4275V10.6524H97.8163H97.8775C97.8775 10.6524 97.9388 10.6524 97.9388 10.5915C97.9388 10.5915 97.9388 10.5305 98 10.5305V10.4695V9.79878C98 9.67683 97.9388 9.67683 97.8163 9.67683H94.5088H94.4475C94.4475 9.73781 94.4475 9.73781 94.3863 9.79878C94.3863 9.73781 94.3863 9.73781 94.3863 9.79878ZM21.2538 5.71342L12.74 0.835367C12.3112 0.591464 11.8212 0.469513 11.3313 0.469513C10.8413 0.469513 10.3513 0.591464 9.9225 0.835367L1.40875 5.71342C0.98 5.95732 0.6125 6.32317 0.3675 6.68903C0.1225 7.11585 0 7.60366 0 8.09146V17.8476C0 18.3354 0.1225 18.8232 0.3675 19.25C0.6125 19.6768 0.98 20.0427 1.40875 20.2866L9.9225 25.1646C10.3513 25.4085 10.8413 25.5305 11.3313 25.5305C11.8212 25.5305 12.3112 25.4085 12.74 25.1646L21.2538 20.2866C21.6825 20.0427 22.05 19.6768 22.295 19.25C22.54 18.8232 22.6625 18.3354 22.6625 17.8476V8.09146C22.6625 7.60366 22.54 7.11585 22.295 6.68903C22.05 6.32317 21.6825 5.95732 21.2538 5.71342ZM5.0225 8.15244C5.0225 8.09146 4.96125 8.03049 4.96125 7.96951C4.96125 7.90854 4.96125 7.84756 5.0225 7.78659C5.08375 7.72561 5.08375 7.72561 5.145 7.66464C5.20625 7.66464 5.2675 7.60366 5.32875 7.60366H7.84C7.90125 7.60366 7.90125 7.60366 7.9625 7.60366C8.02375 7.60366 8.02375 7.66464 8.085 7.66464C8.14625 7.66464 8.14625 7.72561 8.2075 7.78659L10.535 12.9085L8.88125 16.3232L5.0225 8.15244ZM17.5788 8.15244L11.6988 20.5915C11.6988 20.6524 11.6375 20.7134 11.5763 20.7134C11.515 20.7744 11.4538 20.7744 11.3925 20.7744H11.2087C11.1475 20.7744 11.0863 20.7744 11.025 20.7134C10.9637 20.7134 10.9637 20.6524 10.9025 20.5915L10.8413 20.5305L9.6775 18.0305L11.3313 14.5549L14.3938 7.78659C14.3938 7.72561 14.455 7.66464 14.5163 7.66464C14.5163 7.66464 14.5775 7.60366 14.6388 7.60366C14.7 7.60366 14.7 7.60366 14.7613 7.60366H17.2725C17.3338 7.60366 17.395 7.60366 17.4563 7.66464C17.5175 7.66464 17.5788 7.72561 17.5788 7.78659C17.64 7.84756 17.64 7.90854 17.64 7.96951C17.64 8.03049 17.5788 8.09146 17.5788 8.15244Z" fill="white"/>
</svg>
