<svg width="37" height="38" viewBox="0 0 37 38" fill="none" xmlns="http://www.w3.org/2000/svg">
<rect width="37" height="38" fill="#E5E5E5"/>
<g clip-path="url(#clip0_56_6)">
<rect width="1440" height="5262" transform="translate(-289 -1079)" fill="#1E1F25"/>
<g filter="url(#filter0_b_56_6)">
<rect x="-124" y="-67" width="285" height="329" rx="12" fill="#2F3241" fill-opacity="0.5"/>
</g>
<g filter="url(#filter1_b_56_6)">
<circle cx="18.5" cy="18.5" r="45.5" fill="#34384C"/>
</g>
<g filter="url(#filter2_d_56_6)">
<path fill-rule="evenodd" clip-rule="evenodd" d="M35.4608 13.8805C34.2891 6.66925 28.164 1.30447 20.8612 1.09329C20.514 1.07968 20.1756 1.20469 19.9207 1.44077C19.6657 1.67686 19.5151 2.00464 19.502 2.35187V2.35187V2.46934L20.3242 14.7699C20.3782 15.5979 21.09 16.2273 21.9184 16.1795L34.2525 15.3572C34.6001 15.3315 34.923 15.1683 35.1498 14.9037C35.3766 14.6391 35.4885 14.295 35.4608 13.9476V13.8805Z" stroke="#F27F16" stroke-width="2" stroke-linecap="round" stroke-linejoin="round"/>
<path d="M12.3198 8.41006C13.1044 8.22858 13.9073 8.63002 14.2329 9.36658C14.3182 9.53982 14.3694 9.72781 14.3839 9.92036C14.5517 12.3033 14.9041 17.5222 15.1055 20.3414C15.1399 20.8493 15.3752 21.3225 15.7595 21.6563C16.1437 21.9901 16.6451 22.1571 17.1528 22.1202V22.1202L27.5067 21.4825C27.969 21.4547 28.4221 21.6192 28.759 21.937C29.0958 22.2547 29.2864 22.6976 29.2855 23.1606V23.1606C28.8659 29.413 24.3738 34.6399 18.2556 35.9947C12.1374 37.3496 5.85857 34.5079 2.83853 29.0172C1.93699 27.437 1.36606 25.6899 1.16042 23.8822C1.07251 23.3274 1.03879 22.7654 1.05973 22.2041C1.07754 15.5271 5.76683 9.77399 12.3031 8.41006" stroke="#F27F16" stroke-width="2" stroke-linecap="round" stroke-linejoin="round"/>
</g>
</g>
<defs>
<filter id="filter0_b_56_6" x="-128" y="-71" width="293" height="337" filterUnits="userSpaceOnUse" color-interpolation-filters="sRGB">
<feFlood flood-opacity="0" result="BackgroundImageFix"/>
<feGaussianBlur in="BackgroundImageFix" stdDeviation="2"/>
<feComposite in2="SourceAlpha" operator="in" result="effect1_backgroundBlur_56_6"/>
<feBlend mode="normal" in="SourceGraphic" in2="effect1_backgroundBlur_56_6" result="shape"/>
</filter>
<filter id="filter1_b_56_6" x="-41" y="-41" width="119" height="119" filterUnits="userSpaceOnUse" color-interpolation-filters="sRGB">
<feFlood flood-opacity="0" result="BackgroundImageFix"/>
<feGaussianBlur in="BackgroundImageFix" stdDeviation="7"/>
<feComposite in2="SourceAlpha" operator="in" result="effect1_backgroundBlur_56_6"/>
<feBlend mode="normal" in="SourceGraphic" in2="effect1_backgroundBlur_56_6" result="shape"/>
</filter>
<filter id="filter2_d_56_6" x="-8" y="-8" width="52" height="52" filterUnits="userSpaceOnUse" color-interpolation-filters="sRGB">
<feFlood flood-opacity="0" result="BackgroundImageFix"/>
<feColorMatrix in="SourceAlpha" type="matrix" values="0 0 0 0 0 0 0 0 0 0 0 0 0 0 0 0 0 0 127 0" result="hardAlpha"/>
<feOffset/>
<feGaussianBlur stdDeviation="2"/>
<feColorMatrix type="matrix" values="0 0 0 0 0.968627 0 0 0 0 0.576471 0 0 0 0 0.101961 0 0 0 1 0"/>
<feBlend mode="normal" in2="BackgroundImageFix" result="effect1_dropShadow_56_6"/>
<feBlend mode="normal" in="SourceGraphic" in2="effect1_dropShadow_56_6" result="shape"/>
</filter>
<clipPath id="clip0_56_6">
<rect width="1440" height="5262" fill="white" transform="translate(-289 -1079)"/>
</clipPath>
</defs>
</svg>
