<svg width="32" height="32" viewBox="0 0 32 32" fill="none" xmlns="http://www.w3.org/2000/svg">
<path d="M16 32C24.8366 32 32 24.8366 32 16C32 7.16344 24.8366 0 16 0C7.16344 0 0 7.16344 0 16C0 24.8366 7.16344 32 16 32Z" fill="#E32970"/>
<path fill-rule="evenodd" clip-rule="evenodd" d="M22.9053 16.9228C21.1959 16.9228 19.8106 15.4079 19.8106 13.538C19.8106 11.6687 21.1959 10.1537 22.9053 10.1537C24.6142 10.1537 26 11.6687 26 13.538C26 15.4079 24.6142 16.9234 22.9053 16.9234V16.9228ZM14.7114 23.0121L7.9242 15.7577C6.69193 14.4402 6.69193 12.3046 7.9242 10.9876C8.51003 10.3562 9.31477 10 10.1553 10C10.9958 10 11.8005 10.3562 12.3863 10.9876L19.174 18.2426C20.4063 19.5595 20.4063 21.6957 19.174 23.0121C18.5882 23.6436 17.7833 24 16.9427 24C16.1021 24 15.2972 23.6436 14.7114 23.0121Z" fill="white"/>
</svg>
