<svg width="367" height="347" viewBox="0 0 367 347" fill="none" xmlns="http://www.w3.org/2000/svg">
<g clip-path="url(#clip0_1_486)">
<g filter="url(#filter0_f_1_486)">
<path d="M206.324 253.493C207.618 253.84 207.621 254.901 206.329 255.25L189.554 259.78C189.107 259.901 188.591 259.902 188.143 259.783L148.478 249.278C147.174 248.932 147.174 247.861 148.479 247.516L165.63 242.981C166.076 242.863 166.59 242.863 167.035 242.982L206.324 253.493Z" fill="#292929" fill-opacity="0.3"/>
</g>
<path fill-rule="evenodd" clip-rule="evenodd" d="M199.987 247.22L207.212 247.949V249.706C207.255 250.079 206.934 250.465 206.249 250.65L189.474 255.18C189.027 255.301 188.511 255.302 188.063 255.183L148.398 244.678C147.692 244.49 147.368 244.091 147.427 243.709L147.427 241.916L150.867 242.264L165.55 238.38C165.996 238.263 166.51 238.263 166.955 238.382L199.987 247.22Z" fill="url(#paint0_linear_1_486)"/>
<path d="M206.243 247.052C207.538 247.398 207.541 248.46 206.249 248.809L189.474 253.339C189.027 253.46 188.511 253.461 188.063 253.342L148.398 242.836C147.093 242.491 147.094 241.42 148.399 241.075L165.55 236.539C165.996 236.421 166.51 236.422 166.955 236.541L206.243 247.052Z" fill="#FFFAFC"/>
<g filter="url(#filter1_f_1_486)">
<path d="M225.109 241.731C226.403 242.077 226.406 243.139 225.114 243.488L208.339 248.018C207.892 248.139 207.376 248.14 206.928 248.021L167.264 237.515C165.959 237.17 165.959 236.099 167.264 235.754L184.415 231.218C184.862 231.1 185.375 231.101 185.82 231.22L225.109 241.731Z" fill="#292929" fill-opacity="0.3"/>
</g>
<path fill-rule="evenodd" clip-rule="evenodd" d="M218.773 235.457L225.997 236.186V237.944C226.04 238.317 225.719 238.703 225.034 238.888L208.259 243.418C207.812 243.539 207.296 243.54 206.848 243.421L167.183 232.915C166.477 232.728 166.153 232.328 166.212 231.946L166.212 230.154L169.652 230.501L184.335 226.618C184.781 226.5 185.295 226.501 185.74 226.62L218.773 235.457Z" fill="url(#paint1_linear_1_486)"/>
<path d="M225.029 235.29C226.323 235.636 226.326 236.698 225.034 237.046L208.259 241.577C207.812 241.697 207.296 241.699 206.848 241.58L167.183 231.074C165.879 230.729 165.879 229.658 167.184 229.313L184.335 224.777C184.782 224.659 185.295 224.66 185.74 224.779L225.029 235.29Z" fill="#FFFAFC"/>
<g filter="url(#filter2_f_1_486)">
<path d="M243.894 229.969C245.188 230.316 245.191 231.377 243.899 231.726L227.124 236.256C226.677 236.377 226.161 236.378 225.713 236.259L186.049 225.754C184.744 225.408 184.744 224.337 186.05 223.992L203.201 219.457C203.647 219.339 204.16 219.339 204.605 219.458L243.894 229.969Z" fill="#292929" fill-opacity="0.3"/>
</g>
<path fill-rule="evenodd" clip-rule="evenodd" d="M237.558 223.696L244.783 224.425V226.183C244.825 226.555 244.504 226.941 243.819 227.126L227.044 231.656C226.597 231.777 226.081 231.778 225.633 231.659L185.969 221.154C185.262 220.966 184.938 220.567 184.997 220.185L184.997 218.393L188.437 218.74L203.121 214.857C203.567 214.739 204.08 214.739 204.525 214.858L237.558 223.696Z" fill="url(#paint2_linear_1_486)"/>
<path d="M243.814 223.528C245.108 223.874 245.111 224.936 243.819 225.285L227.044 229.815C226.597 229.936 226.081 229.937 225.633 229.818L185.969 219.312C184.664 218.967 184.664 217.896 185.97 217.551L203.121 213.015C203.567 212.897 204.08 212.898 204.525 213.017L243.814 223.528Z" fill="#FFFAFC"/>
<g filter="url(#filter3_b_1_486)">
<mask id="path-10-inside-1_1_486" fill="white">
<path fill-rule="evenodd" clip-rule="evenodd" d="M133.296 232.931H24.5457V280.933C24.4468 281.262 24.4468 281.599 24.5457 281.928V282.26H24.6815C25.058 282.985 25.9408 283.634 27.33 284.002L77.3825 297.241C78.6905 297.586 80.1958 297.583 81.499 297.231L130.517 283.993C131.886 283.623 132.758 282.979 133.131 282.26H133.296V281.817C133.355 281.561 133.355 281.301 133.296 281.046V232.931Z"/>
</mask>
<path fill-rule="evenodd" clip-rule="evenodd" d="M133.296 232.931H24.5457V280.933C24.4468 281.262 24.4468 281.599 24.5457 281.928V282.26H24.6815C25.058 282.985 25.9408 283.634 27.33 284.002L77.3825 297.241C78.6905 297.586 80.1958 297.583 81.499 297.231L130.517 283.993C131.886 283.623 132.758 282.979 133.131 282.26H133.296V281.817C133.355 281.561 133.355 281.301 133.296 281.046V232.931Z" fill="url(#paint3_linear_1_486)" fill-opacity="0.5"/>
<path d="M24.5457 232.931V231.931H23.5457V232.931H24.5457ZM133.296 232.931H134.296V231.931H133.296V232.931ZM24.5457 280.933L25.5033 281.221L25.5457 281.08V280.933H24.5457ZM24.5457 281.928H25.5457V281.781L25.5033 281.64L24.5457 281.928ZM24.5457 282.26H23.5457V283.26H24.5457V282.26ZM24.6815 282.26L25.569 281.799L25.289 281.26H24.6815V282.26ZM27.33 284.002L27.0743 284.968L27.33 284.002ZM77.3825 297.241L77.6383 296.274H77.6382L77.3825 297.241ZM81.499 297.231L81.2383 296.266L81.499 297.231ZM130.517 283.993L130.778 284.959V284.959L130.517 283.993ZM133.131 282.26V281.26H132.523L132.243 281.8L133.131 282.26ZM133.296 282.26V283.26H134.296V282.26H133.296ZM133.296 281.817L132.322 281.591L132.296 281.703V281.817H133.296ZM133.296 281.046H132.296V281.16L132.322 281.272L133.296 281.046ZM24.5457 233.931H133.296V231.931H24.5457V233.931ZM25.5457 280.933V232.931H23.5457V280.933H25.5457ZM25.5033 281.64C25.4609 281.499 25.4609 281.362 25.5033 281.221L23.5882 280.645C23.4326 281.161 23.4326 281.7 23.5882 282.216L25.5033 281.64ZM25.5457 282.26V281.928H23.5457V282.26H25.5457ZM24.6815 281.26H24.5457V283.26H24.6815V281.26ZM27.5857 283.035C26.3458 282.707 25.7666 282.18 25.569 281.799L23.794 282.721C24.3493 283.791 25.5358 284.561 27.0743 284.968L27.5857 283.035ZM77.6382 296.274L27.5857 283.035L27.0743 284.968L77.1268 298.207L77.6382 296.274ZM81.2383 296.266C80.1046 296.572 78.7774 296.575 77.6383 296.274L77.1268 298.207C78.6037 298.598 80.2871 298.594 81.7598 298.196L81.2383 296.266ZM130.256 283.028L81.2383 296.266L81.7598 298.196L130.778 284.959L130.256 283.028ZM132.243 281.8C132.047 282.177 131.477 282.698 130.256 283.028L130.778 284.959C132.296 284.549 133.468 283.782 134.018 282.721L132.243 281.8ZM133.296 281.26H133.131V283.26H133.296V281.26ZM132.296 281.817V282.26H134.296V281.817H132.296ZM132.322 281.272C132.347 281.379 132.347 281.484 132.322 281.591L134.27 282.043C134.364 281.639 134.364 281.224 134.27 280.819L132.322 281.272ZM132.296 232.931V281.046H134.296V232.931H132.296Z" fill="url(#paint4_linear_1_486)" fill-opacity="0.3" mask="url(#path-10-inside-1_1_486)"/>
</g>
<g filter="url(#filter4_f_1_486)">
<path d="M135.585 290.667C139.349 291.683 139.349 294.774 135.585 295.79L81.5516 310.383C80.2484 310.735 78.7431 310.738 77.4351 310.392L22.2611 295.799C18.4497 294.791 18.4498 291.664 22.2614 290.656L77.4352 276.065C78.7431 275.719 80.2483 275.723 81.5514 276.075L135.585 290.667Z" fill="#0D0D0D" fill-opacity="0.3"/>
</g>
<g filter="url(#filter5_i_1_486)">
<path fill-rule="evenodd" clip-rule="evenodd" d="M35.5926 158.263C40.4241 164.389 49.3795 167.607 61.3073 166.464C85.1281 164.179 111.784 145.363 120.844 124.435C125.02 114.791 124.73 106.381 120.871 100.34L112.843 83.9063L103.03 90.6694C100.287 90.3789 97.3089 90.3727 94.1182 90.6787C70.2974 92.9627 43.6419 111.779 34.5814 132.707C33.5841 135.01 32.8415 137.243 32.3415 139.39L25.681 143.981L35.499 158.323L35.5926 158.263Z" fill="url(#paint5_linear_1_486)"/>
</g>
<path d="M26.5568 119.058C36.2519 97.2508 63.351 77.5379 87.0844 75.0285C99.7695 73.6873 108.926 77.5321 113.221 84.7321C116.962 91.0031 117.016 99.8193 112.503 109.971C102.808 131.779 75.7086 151.492 51.9753 154.001C28.2419 156.51 16.8617 140.866 26.5568 119.058Z" fill="url(#paint6_linear_1_486)"/>
<g clip-path="url(#clip1_1_486)">
<path d="M57.7059 136.61C60.4295 136.266 63.17 135.196 65.8768 133.238C75.918 125.935 85.9974 118.684 96.1028 111.374C103.592 105.957 105.112 97.9943 98.8276 96.7083C95.506 96.0564 91.6996 97.1833 87.7296 100.055C77.7404 107.241 67.8797 114.414 57.9547 121.593C55.2479 123.551 53.2201 125.771 51.9738 128.299C49.9353 132.472 51.4693 136.043 55.5495 136.503C56.1781 136.604 56.9871 136.574 57.7059 136.61Z" fill="white"/>
<path d="M54.8207 100.971C49.3611 101.549 43.1614 105.994 40.9257 111.022C38.69 116.051 41.264 119.624 46.7618 119.099C52.1954 118.58 58.5373 113.953 60.8112 108.976C62.9827 103.953 60.3445 100.387 54.8207 100.971Z" fill="white"/>
</g>
<g filter="url(#filter6_b_1_486)">
<path d="M130.517 230.369C134.281 231.386 134.281 234.476 130.517 235.493L81.4988 248.731C80.1956 249.083 78.6903 249.086 77.3823 248.74L27.3297 235.501C23.5183 234.493 23.5185 231.367 27.33 230.359L77.3824 217.122C78.6904 216.776 80.1955 216.78 81.4986 217.132L130.517 230.369Z" fill="#FFFAFC"/>
</g>
<path d="M115.884 230.37C119.648 231.386 119.648 234.477 115.884 235.493L81.3471 244.82C80.0439 245.172 78.5386 245.176 77.2306 244.83L41.9649 235.502C38.1535 234.494 38.1537 231.367 41.9652 230.359L77.2308 221.033C78.5387 220.687 80.0439 220.691 81.3469 221.043L115.884 230.37Z" fill="#2EADD4"/>
<g filter="url(#filter7_b_1_486)">
<path fill-rule="evenodd" clip-rule="evenodd" d="M117.975 234.432C119.422 233.085 118.725 231.137 115.884 230.37L81.3471 221.043C80.044 220.691 78.5388 220.688 77.2309 221.033L41.9653 230.36C39.0956 231.119 38.3864 233.078 39.8379 234.431C40.3143 233.987 41.0234 233.609 41.9652 233.359L77.2308 224.033C78.5387 223.687 80.0438 223.691 81.3469 224.043L115.884 233.37C116.808 233.619 117.505 233.994 117.975 234.432Z" fill="#E5E6E7"/>
</g>
<g opacity="0.5" filter="url(#filter8_f_1_486)">
<path d="M81.4164 244.786L115.354 235.621C116.859 235.214 117.905 234.395 118.131 233.444L152.943 87.2718C153.347 85.5727 151.06 84.0583 148.089 84.0583L9.71268 84.0584C6.74089 84.0584 4.4535 85.5735 4.85954 87.273L39.7778 233.43C40.0067 234.388 41.0675 235.212 42.5903 235.614L77.2999 244.795C78.6079 245.141 80.1132 245.138 81.4164 244.786Z" fill="url(#paint7_linear_1_486)"/>
</g>
<g opacity="0.5" filter="url(#filter9_f_1_486)">
<path d="M79.4797 243.932L88.6794 241.455C90.0541 241.085 91.0543 240.368 91.3878 239.513L110.131 191.499C110.821 189.733 108.497 188.052 105.36 188.049L48.8642 187.992C45.7132 187.988 43.3765 189.679 44.0802 191.452L63.1447 239.483C63.4843 240.339 64.4927 241.055 65.8743 241.421L75.3631 243.939C76.6704 244.286 78.1758 244.283 79.4797 243.932Z" fill="url(#paint8_linear_1_486)"/>
</g>
<g filter="url(#filter10_f_1_486)">
<circle cx="83.6313" cy="229.588" r="1.87646" fill="url(#paint9_linear_1_486)"/>
</g>
<g filter="url(#filter11_f_1_486)">
<circle cx="92.5461" cy="218.718" r="2.72087" fill="url(#paint10_linear_1_486)"/>
</g>
<g filter="url(#filter12_f_1_486)">
<circle cx="75.7806" cy="225.208" r="1.11947" fill="url(#paint11_linear_1_486)"/>
</g>
<g filter="url(#filter13_f_1_486)">
<circle cx="78.805" cy="193.837" r="1.11947" fill="url(#paint12_linear_1_486)"/>
</g>
<g filter="url(#filter14_f_1_486)">
<circle cx="64.8403" cy="215.146" r="2.30908" fill="url(#paint13_linear_1_486)"/>
</g>
<g filter="url(#filter15_f_1_486)">
<circle cx="71.0154" cy="187.409" r="1.48608" fill="url(#paint14_linear_1_486)"/>
</g>
<rect opacity="0.5" width="35.3631" height="21.7655" transform="matrix(1 0 0 -1 175.347 330.738)" fill="url(#paint15_linear_1_486)"/>
<path fill-rule="evenodd" clip-rule="evenodd" d="M203.092 295.445H229.214V303.442C229.395 304.205 228.78 305.023 227.37 305.404L194.818 314.195C193.952 314.429 192.952 314.431 192.084 314.202L158.844 305.41C157.706 305.109 157.08 304.523 156.965 303.909H156.945V295.445H183.61L192.084 293.204C192.953 292.975 193.952 292.977 194.817 293.211L203.092 295.445Z" fill="url(#paint16_linear_1_486)"/>
<path d="M227.369 293.745C229.869 294.42 229.869 296.472 227.369 297.147L194.817 305.938C193.951 306.172 192.952 306.174 192.083 305.945L158.843 297.153C156.312 296.483 156.312 294.407 158.843 293.738L192.083 284.947C192.952 284.718 193.951 284.72 194.817 284.954L227.369 293.745Z" fill="#FFFAFC"/>
<ellipse cx="193.028" cy="295.445" rx="17.6815" ry="4.03775" fill="#2EADD4"/>
<rect opacity="0.5" x="175.347" y="264.988" width="35.3631" height="30.4579" fill="url(#paint17_linear_1_486)"/>
<g opacity="0.2">
<path d="M181.183 281.488L181.183 294.488" stroke="url(#paint18_linear_1_486)" stroke-linecap="round"/>
<path d="M202.683 315.488L202.683 328.488" stroke="url(#paint19_linear_1_486)" stroke-linecap="round"/>
<path d="M186.433 313.669L186.433 320.669" stroke="url(#paint20_linear_1_486)" stroke-linecap="round"/>
<path d="M193.095 277.863L193.095 285.113" stroke="url(#paint21_linear_1_486)" stroke-linecap="round"/>
<path d="M197.558 293.738L197.558 298.18" stroke="url(#paint22_linear_1_486)" stroke-linecap="round"/>
<path d="M186.433 271.983L186.433 277.988" stroke="url(#paint23_linear_1_486)" stroke-linecap="round"/>
<path d="M191.153 323.452L191.153 326.137" stroke="url(#paint24_linear_1_486)" stroke-linecap="round"/>
<path d="M205.028 286.363L205.028 287.798" stroke="url(#paint25_linear_1_486)" stroke-linecap="round"/>
<path d="M198.278 318.907L198.278 320.343" stroke="url(#paint26_linear_1_486)" stroke-linecap="round"/>
</g>
<g filter="url(#filter16_b_1_486)">
<mask id="path-42-inside-2_1_486" fill="white">
<path fill-rule="evenodd" clip-rule="evenodd" d="M350.231 164.673H190.438V198.22C189.914 199.96 191.277 201.869 194.529 202.729L268.074 222.182C269.996 222.69 272.208 222.685 274.123 222.168L346.148 202.717C348.546 202.069 349.905 200.848 350.223 199.551H350.231V199.519C350.318 199.144 350.318 198.762 350.231 198.386V164.673Z"/>
</mask>
<path fill-rule="evenodd" clip-rule="evenodd" d="M350.231 164.673H190.438V198.22C189.914 199.96 191.277 201.869 194.529 202.729L268.074 222.182C269.996 222.69 272.208 222.685 274.123 222.168L346.148 202.717C348.546 202.069 349.905 200.848 350.223 199.551H350.231V199.519C350.318 199.144 350.318 198.762 350.231 198.386V164.673Z" fill="url(#paint27_linear_1_486)" fill-opacity="0.5"/>
<path d="M190.438 164.673V163.673H189.438V164.673H190.438ZM350.231 164.673H351.231V163.673H350.231V164.673ZM190.438 198.22L191.396 198.508L191.438 198.367V198.22H190.438ZM194.529 202.729L194.785 201.762H194.785L194.529 202.729ZM268.074 222.182L268.33 221.215L268.074 222.182ZM274.123 222.168L273.862 221.203V221.203L274.123 222.168ZM346.148 202.717L346.408 203.682L346.148 202.717ZM350.223 199.551V198.551H349.439L349.252 199.313L350.223 199.551ZM350.231 199.551V200.551H351.231V199.551H350.231ZM350.231 199.519L349.256 199.293L349.231 199.405V199.519H350.231ZM350.231 198.386H349.231V198.501L349.256 198.612L350.231 198.386ZM190.438 165.673H350.231V163.673H190.438V165.673ZM191.438 198.22V164.673H189.438V198.22H191.438ZM194.785 201.762C193.289 201.367 192.34 200.758 191.83 200.157C191.338 199.578 191.244 199.011 191.396 198.508L189.481 197.931C189.108 199.168 189.434 200.426 190.306 201.452C191.159 202.456 192.518 203.232 194.273 203.696L194.785 201.762ZM268.33 221.215L194.785 201.762L194.273 203.696L267.818 223.149L268.33 221.215ZM273.862 221.203C272.117 221.674 270.083 221.679 268.33 221.215L267.818 223.149C269.909 223.702 272.299 223.696 274.383 223.133L273.862 221.203ZM345.887 201.751L273.862 221.203L274.383 223.133L346.408 203.682L345.887 201.751ZM349.252 199.313C349.059 200.097 348.127 201.146 345.887 201.751L346.408 203.682C348.965 202.992 350.75 201.599 351.194 199.789L349.252 199.313ZM350.231 198.551H350.223V200.551H350.231V198.551ZM349.231 199.519V199.551H351.231V199.519H349.231ZM349.256 198.612C349.309 198.839 349.309 199.066 349.256 199.293L351.205 199.745C351.326 199.221 351.326 198.685 351.205 198.16L349.256 198.612ZM349.231 164.673V198.386H351.231V164.673H349.231Z" fill="url(#paint28_linear_1_486)" fill-opacity="0.3" mask="url(#path-42-inside-2_1_486)"/>
</g>
<g filter="url(#filter17_b_1_486)">
<path d="M346.149 160.91C351.68 162.403 351.68 166.944 346.149 168.438L274.124 187.889C272.21 188.406 269.998 188.411 268.076 187.903L194.531 168.45C188.931 166.969 188.931 162.375 194.531 160.894L268.076 141.445C269.998 140.937 272.209 140.942 274.124 141.459L346.149 160.91Z" fill="url(#paint29_linear_1_486)"/>
<path d="M346.02 161.07C351.315 162.5 351.315 166.848 346.02 168.278L273.995 187.729C272.161 188.224 270.044 188.229 268.203 187.742L194.658 168.29C189.296 166.871 189.297 162.473 194.659 161.055L268.204 141.606C270.044 141.119 272.161 141.124 273.994 141.619L346.02 161.07Z" stroke="url(#paint30_linear_1_486)" stroke-width="0.5"/>
</g>
<g filter="url(#filter18_f_1_486)">
<path d="M334.962 217.752C338.726 218.769 338.726 221.859 334.962 222.876L280.928 237.468C279.625 237.82 278.12 237.824 276.812 237.478L221.638 222.884C217.826 221.876 217.827 218.75 221.638 217.742L276.812 203.151C278.12 202.805 279.625 202.808 280.928 203.16L334.962 217.752Z" fill="#0D0D0D" fill-opacity="0.3"/>
</g>
<g filter="url(#filter19_b_1_486)">
<mask id="path-47-inside-3_1_486" fill="white">
<path d="M328.685 138.227H211.89V162.745C211.507 164.018 212.503 165.413 214.88 166.042L268.635 180.26C270.04 180.632 271.657 180.628 273.056 180.25L325.701 166.033C327.454 165.56 328.446 164.668 328.679 163.72H328.685V163.695C328.749 163.421 328.749 163.143 328.685 162.869V138.227Z"/>
</mask>
<path d="M328.685 138.227H211.89V162.745C211.507 164.018 212.503 165.413 214.88 166.042L268.635 180.26C270.04 180.632 271.657 180.628 273.056 180.25L325.701 166.033C327.454 165.56 328.446 164.668 328.679 163.72H328.685V163.695C328.749 163.421 328.749 163.143 328.685 162.869V138.227Z" fill="url(#paint31_linear_1_486)" fill-opacity="0.7"/>
<path d="M211.89 138.227V137.227H210.89V138.227H211.89ZM328.685 138.227H329.685V137.227H328.685V138.227ZM211.89 162.745L212.848 163.034L212.89 162.893V162.745H211.89ZM214.88 166.042L214.625 167.009H214.625L214.88 166.042ZM268.635 180.26L268.38 181.227L268.635 180.26ZM273.056 180.25L272.796 179.285L272.796 179.285L273.056 180.25ZM325.701 166.033L325.44 165.068L325.701 166.033ZM328.679 163.72V162.72H327.895L327.708 163.481L328.679 163.72ZM328.685 163.72V164.72H329.685V163.72H328.685ZM328.685 163.695L327.711 163.47L327.685 163.581V163.695H328.685ZM328.685 162.869H327.685V162.983L327.711 163.094L328.685 162.869ZM211.89 139.227H328.685V137.227H211.89V139.227ZM212.89 162.745V138.227H210.89V162.745H212.89ZM215.136 165.075C214.077 164.795 213.439 164.373 213.112 163.988C212.804 163.624 212.767 163.303 212.848 163.034L210.933 162.457C210.63 163.46 210.9 164.472 211.588 165.282C212.258 166.071 213.306 166.66 214.625 167.009L215.136 165.075ZM268.891 179.294L215.136 165.075L214.625 167.009L268.38 181.227L268.891 179.294ZM272.796 179.285C271.566 179.617 270.127 179.62 268.891 179.294L268.38 181.227C269.953 181.643 271.748 181.639 273.317 181.216L272.796 179.285ZM325.44 165.068L272.796 179.285L273.317 181.216L325.961 166.999L325.44 165.068ZM327.708 163.481C327.601 163.916 327.035 164.637 325.44 165.068L325.961 166.999C327.873 166.482 329.292 165.419 329.65 163.958L327.708 163.481ZM328.685 162.72H328.679V164.72H328.685V162.72ZM327.685 163.695V163.72H329.685V163.695H327.685ZM327.711 163.094C327.74 163.22 327.74 163.344 327.711 163.47L329.659 163.921C329.757 163.498 329.757 163.065 329.659 162.643L327.711 163.094ZM327.685 138.227V162.869H329.685V138.227H327.685Z" fill="url(#paint32_linear_1_486)" fill-opacity="0.3" mask="url(#path-47-inside-3_1_486)"/>
</g>
<g filter="url(#filter20_b_1_486)">
<path d="M325.703 135.476C329.745 136.568 329.745 139.887 325.703 140.979L273.059 155.196C271.659 155.574 270.042 155.578 268.638 155.206L214.882 140.988C210.789 139.905 210.789 136.547 214.883 135.465L268.638 121.249C270.042 120.878 271.659 120.881 273.058 121.259L325.703 135.476Z" fill="#FFFAFC"/>
</g>
<path d="M301.472 135.762C304.647 136.619 304.647 139.226 301.472 140.083L272.309 147.959C271.21 148.256 269.94 148.259 268.837 147.967L239.059 140.091C235.845 139.24 235.845 136.604 239.06 135.753L268.837 127.878C269.94 127.587 271.21 127.59 272.309 127.886L301.472 135.762Z" fill="#2EADD4"/>
<path fill-rule="evenodd" clip-rule="evenodd" d="M303.581 138.784C304.299 137.692 303.595 136.336 301.472 135.762L272.309 127.887C271.21 127.59 269.94 127.587 268.837 127.879L239.06 135.754C236.913 136.321 236.199 137.686 236.92 138.783C237.278 138.238 237.992 137.758 239.06 137.476L268.837 129.601C269.94 129.309 271.21 129.312 272.309 129.609L301.472 137.484C302.523 137.768 303.226 138.244 303.581 138.784Z" fill="#E5E6E7"/>
<g opacity="0.5" filter="url(#filter21_f_1_486)">
<path d="M272.562 147.91L301.152 140.189C302.521 139.819 303.519 139.105 303.853 138.254L352.672 14.1176C353.368 12.348 351.038 10.6632 347.894 10.6632L192.334 10.6632C189.19 10.6632 186.86 12.3488 187.557 14.1188L236.464 138.24C236.802 139.099 237.814 139.818 239.2 140.184L268.446 147.92C269.754 148.266 271.259 148.262 272.562 147.91Z" fill="url(#paint33_linear_1_486)"/>
</g>
<g opacity="0.5" filter="url(#filter22_f_1_486)">
<path d="M272.98 148.82L282.179 146.343C283.554 145.973 284.554 145.256 284.888 144.402L303.631 96.3874C304.321 94.6209 301.997 92.9406 298.86 92.9374L242.364 92.8799C239.213 92.8767 236.876 94.5668 237.58 96.3399L256.645 144.371C256.984 145.227 257.993 145.943 259.374 146.31L268.863 148.827C270.17 149.174 271.676 149.171 272.98 148.82Z" fill="url(#paint34_linear_1_486)"/>
</g>
<g filter="url(#filter23_f_1_486)">
<circle cx="269.228" cy="135.267" r="1.87646" fill="url(#paint35_linear_1_486)"/>
</g>
<g filter="url(#filter24_f_1_486)">
<circle cx="283.139" cy="114.468" r="2.30908" fill="url(#paint36_linear_1_486)"/>
</g>
<g filter="url(#filter25_f_1_486)">
<circle cx="279.343" cy="61.1458" r="1.48608" fill="url(#paint37_linear_1_486)"/>
</g>
<g filter="url(#filter26_f_1_486)">
<circle cx="265.865" cy="126.717" r="1.48608" fill="url(#paint38_linear_1_486)"/>
</g>
<g filter="url(#filter27_f_1_486)">
<circle cx="265.865" cy="96.7437" r="1.48608" fill="url(#paint39_linear_1_486)"/>
</g>
<g filter="url(#filter28_f_1_486)">
<circle cx="280.83" cy="132.326" r="1.06445" fill="url(#paint40_linear_1_486)"/>
</g>
<g filter="url(#filter29_i_1_486)">
<path fill-rule="evenodd" clip-rule="evenodd" d="M286.776 62.2343C284.214 65.4823 279.467 67.1887 273.143 66.5823C260.515 65.3715 246.384 55.3962 241.58 44.3018C239.365 39.1857 239.521 34.7251 241.57 31.522L245.823 22.8159L251.025 26.4012C252.479 26.2473 254.058 26.244 255.749 26.4062C268.377 27.6171 282.508 37.5924 287.311 48.6867C287.84 49.9076 288.233 51.0912 288.499 52.2292L292.031 54.6636L286.826 62.2665L286.776 62.2343Z" fill="url(#paint41_linear_1_486)"/>
</g>
<path d="M291.565 41.4504C286.425 29.8894 272.059 19.439 259.477 18.1086C252.753 17.3976 247.899 19.4359 245.621 23.2529C243.638 26.5773 243.61 31.2511 246.002 36.6329C251.142 48.1939 265.508 58.6444 278.09 59.9747C290.672 61.305 296.705 53.0114 291.565 41.4504Z" fill="url(#paint42_linear_1_486)"/>
<path d="M280.12 44.934C279.424 44.4176 278.757 44.1142 278.12 44.0238C277.484 43.9333 276.754 44.0404 275.931 44.3452C274.678 44.8667 273.459 45.0509 272.275 44.8979C271.09 44.7449 269.772 44.1302 268.32 43.0537C266.953 42.0404 265.998 40.9871 265.456 39.8939C264.913 38.8007 264.848 37.8052 265.261 36.9073L262.768 35.0598C262.719 35.0232 262.68 34.9769 262.659 34.9312C262.639 34.8855 262.639 34.8441 262.66 34.8161L263.284 33.9745C263.305 33.9465 263.344 33.9342 263.394 33.9403C263.443 33.9465 263.499 33.9705 263.548 34.0071L266.065 35.8726C266.821 35.2428 267.828 35.0658 269.086 35.3416C270.307 35.6092 271.737 36.2699 273.221 37.3607C273.257 37.3874 273.286 37.4205 273.304 37.4539C273.321 37.4874 273.325 37.5189 273.315 37.5427L272.24 38.9927C272.22 39.02 272.182 39.0324 272.134 39.0275C272.086 39.0226 272.032 39.0006 271.984 38.9663C271.106 38.3385 270.322 37.9485 269.633 37.7963C268.898 37.6326 268.364 37.7742 268.033 38.2209C267.686 38.6891 267.653 39.2012 267.933 39.7572C268.213 40.3132 268.729 40.8704 269.482 41.429C270.187 41.9514 270.839 42.2533 271.438 42.3349C272.037 42.4165 272.787 42.3025 273.69 41.9931C274.95 41.4769 276.168 41.2978 277.345 41.4557C278.522 41.6136 279.838 42.2315 281.293 43.3094C282.711 44.3605 283.669 45.4314 284.167 46.5222C284.665 47.613 284.691 48.6223 284.244 49.5502L286.454 51.1884C286.504 51.225 286.543 51.2713 286.563 51.317C286.584 51.3627 286.583 51.4041 286.563 51.4321L285.939 52.2737C285.918 52.3017 285.878 52.314 285.829 52.3079C285.779 52.3017 285.724 52.2777 285.674 52.2411L283.473 50.6091C282.736 51.2946 281.731 51.5636 280.457 51.416C279.224 51.2731 277.68 50.6318 276.022 49.4101C275.976 49.3759 275.938 49.333 275.917 49.2899C275.895 49.2468 275.892 49.2065 275.906 49.177L276.983 47.7248C277.003 47.6975 277.041 47.6851 277.089 47.6902C277.138 47.6954 277.192 47.7178 277.241 47.7527C278.298 48.5119 279.163 48.9147 279.837 48.961C280.549 49.0104 281.08 48.7987 281.43 48.3259C281.803 47.8225 281.869 47.2716 281.627 46.6731C281.385 46.0746 280.883 45.4949 280.12 44.934Z" fill="white"/>
<path d="M256.292 28.4765L250.599 27.7741C249.565 27.6466 249.07 28.3148 249.492 29.2666C249.915 30.2184 251.095 31.0933 252.129 31.2208L257.822 31.9232C258.856 32.0507 259.351 31.3824 258.928 30.4307C258.506 29.4789 257.326 28.604 256.292 28.4765Z" fill="white"/>
<path d="M256.511 26.5763C256.943 25.9935 256.459 24.9023 255.429 24.1392C254.4 23.376 253.215 23.2299 252.783 23.8127C252.351 24.3956 252.835 25.4867 253.865 26.2499C254.894 27.013 256.079 27.1592 256.511 26.5763Z" fill="white"/>
<g filter="url(#filter30_f_1_486)">
<g filter="url(#filter31_b_1_486)">
<mask id="path-65-outside-4_1_486" maskUnits="userSpaceOnUse" x="285.759" y="80.5694" width="19.6652" height="16.2183" fill="black">
<rect fill="white" x="285.759" y="80.5694" width="19.6652" height="16.2183"/>
<path fill-rule="evenodd" clip-rule="evenodd" d="M289.967 94.6152L290.009 94.6532L290.012 94.65C290.769 95.2114 291.841 95.4864 293.173 95.3819C296.924 95.0873 301.306 91.8908 302.961 88.2424C303.769 86.461 303.777 84.9013 303.137 83.8057L303.141 83.8027L303.1 83.7431C303.044 83.6531 302.984 83.5663 302.92 83.4829L301.809 81.8775L301.215 82.3546C300.627 82.1767 299.94 82.1089 299.165 82.1698C295.414 82.4644 291.032 85.6609 289.377 89.3093C288.867 90.4343 288.675 91.471 288.765 92.3581L288.077 92.9105L289.612 94.2957C289.721 94.4103 289.839 94.5169 289.967 94.6152Z"/>
</mask>
<path fill-rule="evenodd" clip-rule="evenodd" d="M289.967 94.6152L290.009 94.6532L290.012 94.65C290.769 95.2114 291.841 95.4864 293.173 95.3819C296.924 95.0873 301.306 91.8908 302.961 88.2424C303.769 86.461 303.777 84.9013 303.137 83.8057L303.141 83.8027L303.1 83.7431C303.044 83.6531 302.984 83.5663 302.92 83.4829L301.809 81.8775L301.215 82.3546C300.627 82.1767 299.94 82.1089 299.165 82.1698C295.414 82.4644 291.032 85.6609 289.377 89.3093C288.867 90.4343 288.675 91.471 288.765 92.3581L288.077 92.9105L289.612 94.2957C289.721 94.4103 289.839 94.5169 289.967 94.6152Z" fill="url(#paint43_linear_1_486)" fill-opacity="0.5"/>
<path d="M290.009 94.6532L290.136 94.8073L290.003 94.9174L289.875 94.8016L290.009 94.6532ZM289.967 94.6152L290.089 94.4569L290.095 94.4616L290.1 94.4668L289.967 94.6152ZM290.012 94.65L289.885 94.4958L290.006 94.396L290.132 94.4894L290.012 94.65ZM293.173 95.3819L293.188 95.5813L293.173 95.3819ZM302.961 88.2424L303.143 88.325L302.961 88.2424ZM303.137 83.8057L302.965 83.9065L302.879 83.7598L303.01 83.6515L303.137 83.8057ZM303.141 83.8027L303.306 83.6889L303.41 83.8399L303.268 83.9568L303.141 83.8027ZM303.1 83.7431L302.935 83.8571L302.93 83.8481L303.1 83.7431ZM302.92 83.4829L302.761 83.6054L302.755 83.5967L302.92 83.4829ZM301.809 81.8775L301.684 81.7216L301.851 81.587L301.974 81.7637L301.809 81.8775ZM301.215 82.3546L301.341 82.5105L301.258 82.5766L301.158 82.546L301.215 82.3546ZM299.165 82.1698L299.181 82.3692L299.165 82.1698ZM289.377 89.3093L289.559 89.3919L289.377 89.3093ZM288.765 92.3581L288.964 92.3381L288.975 92.4461L288.89 92.514L288.765 92.3581ZM288.077 92.9105L287.943 93.059L287.769 92.9017L287.952 92.7546L288.077 92.9105ZM289.612 94.2957L289.746 94.1472L289.752 94.1524L289.758 94.1582L289.612 94.2957ZM289.875 94.8016L289.833 94.7637L290.1 94.4668L290.143 94.5047L289.875 94.8016ZM290.14 94.8041L290.136 94.8073L289.881 94.499L289.885 94.4958L290.14 94.8041ZM290.132 94.4894C290.839 95.0146 291.86 95.2844 293.157 95.1825L293.188 95.5813C291.823 95.6885 290.698 95.4082 289.893 94.8105L290.132 94.4894ZM293.157 95.1825C294.986 95.0388 296.985 94.1849 298.735 92.9082C300.485 91.632 301.968 89.9462 302.779 88.1598L303.143 88.325C302.299 90.187 300.764 91.9236 298.971 93.2314C297.179 94.5387 295.111 95.4303 293.188 95.5813L293.157 95.1825ZM302.779 88.1598C303.571 86.4132 303.56 84.9265 302.965 83.9065L303.31 83.7048C303.994 84.876 303.967 86.5088 303.143 88.325L302.779 88.1598ZM303.268 83.9568L303.265 83.9599L303.01 83.6515L303.014 83.6485L303.268 83.9568ZM303.264 83.6293L303.306 83.6889L302.977 83.9165L302.935 83.8569L303.264 83.6293ZM302.93 83.8481C302.878 83.764 302.822 83.683 302.762 83.6052L303.078 83.3606C303.147 83.4495 303.211 83.5421 303.27 83.6382L302.93 83.8481ZM301.974 81.7637L303.084 83.3691L302.755 83.5967L301.645 81.9913L301.974 81.7637ZM301.09 82.1987L301.684 81.7216L301.934 82.0334L301.341 82.5105L301.09 82.1987ZM301.158 82.546C300.597 82.3765 299.935 82.3099 299.181 82.3692L299.149 81.9704C299.945 81.908 300.657 81.9768 301.273 82.1632L301.158 82.546ZM299.181 82.3692C297.352 82.5128 295.353 83.3668 293.603 84.6435C291.853 85.9196 290.369 87.6054 289.559 89.3919L289.195 89.2267C290.039 87.3647 291.574 85.6281 293.367 84.3203C295.159 83.013 297.227 82.1214 299.149 81.9704L299.181 82.3692ZM289.559 89.3919C289.06 90.4932 288.879 91.4942 288.964 92.3381L288.566 92.3782C288.472 91.4478 288.674 90.3755 289.195 89.2267L289.559 89.3919ZM287.952 92.7546L288.64 92.2022L288.89 92.514L288.203 93.0664L287.952 92.7546ZM289.478 94.4441L287.943 93.059L288.211 92.762L289.746 94.1472L289.478 94.4441ZM289.758 94.1582C289.859 94.2651 289.969 94.3648 290.089 94.4569L289.844 94.7736C289.709 94.6691 289.583 94.5554 289.467 94.4332L289.758 94.1582Z" fill="url(#paint44_linear_1_486)" fill-opacity="0.3" mask="url(#path-65-outside-4_1_486)"/>
</g>
<g filter="url(#filter32_b_1_486)">
<path d="M297.741 80.8097C293.811 81.3244 289.392 84.7118 287.871 88.3756C287.058 90.3339 287.238 91.9747 288.181 92.9995C289.003 93.892 290.404 94.3171 292.234 94.0775C296.164 93.5627 300.584 90.1753 302.104 86.5115C303.625 82.8477 301.672 80.2949 297.741 80.8097Z" fill="url(#paint45_linear_1_486)" fill-opacity="0.5"/>
<path d="M287.772 88.3886C289.314 84.6739 293.794 81.2393 297.78 80.7173C301.765 80.1954 303.746 82.7838 302.204 86.4985C300.662 90.2133 296.181 93.6479 292.196 94.1698C290.341 94.4128 288.92 93.9817 288.086 93.0768C287.13 92.0379 286.948 90.3741 287.772 88.3886Z" stroke="url(#paint46_linear_1_486)" stroke-opacity="0.3" stroke-width="0.2"/>
</g>
</g>
<g filter="url(#filter33_f_1_486)">
<g filter="url(#filter34_b_1_486)">
<mask id="path-69-outside-5_1_486" maskUnits="userSpaceOnUse" x="256.286" y="107.331" width="18.6015" height="19.2002" fill="black">
<rect fill="white" x="256.286" y="107.331" width="18.6015" height="19.2002"/>
<path fill-rule="evenodd" clip-rule="evenodd" d="M259.268 115.216L259.258 115.263L259.262 115.264C259.167 116.02 259.399 116.886 260.002 117.782C261.701 120.308 265.695 122.126 268.924 121.841C270.501 121.703 271.603 121.088 272.121 120.202L272.124 120.203L272.148 120.154C272.191 120.077 272.229 119.998 272.263 119.917L272.951 118.499L272.379 118.271C272.271 117.785 272.045 117.274 271.694 116.753C269.996 114.226 266.001 112.409 262.772 112.693C261.777 112.781 260.97 113.058 260.381 113.474L259.718 113.209L259.352 114.844C259.314 114.964 259.287 115.088 259.268 115.216Z"/>
</mask>
<path fill-rule="evenodd" clip-rule="evenodd" d="M259.268 115.216L259.258 115.263L259.262 115.264C259.167 116.02 259.399 116.886 260.002 117.782C261.701 120.308 265.695 122.126 268.924 121.841C270.501 121.703 271.603 121.088 272.121 120.202L272.124 120.203L272.148 120.154C272.191 120.077 272.229 119.998 272.263 119.917L272.951 118.499L272.379 118.271C272.271 117.785 272.045 117.274 271.694 116.753C269.996 114.226 266.001 112.409 262.772 112.693C261.777 112.781 260.97 113.058 260.381 113.474L259.718 113.209L259.352 114.844C259.314 114.964 259.287 115.088 259.268 115.216Z" fill="url(#paint47_linear_1_486)" fill-opacity="0.5"/>
<path d="M259.258 115.263L259.186 115.449L259.025 115.387L259.062 115.219L259.258 115.263ZM259.268 115.216L259.466 115.244L259.465 115.252L259.463 115.26L259.268 115.216ZM259.262 115.264L259.333 115.077L259.48 115.133L259.46 115.289L259.262 115.264ZM260.002 117.782L260.168 117.671L260.002 117.782ZM268.924 121.841L268.942 122.041L268.924 121.841ZM272.121 120.202L271.948 120.101L272.034 119.954L272.193 120.015L272.121 120.202ZM272.124 120.203L272.304 120.291L272.224 120.456L272.053 120.39L272.124 120.203ZM272.148 120.154L271.968 120.067L271.973 120.057L272.148 120.154ZM272.263 119.917L272.079 119.839L272.083 119.829L272.263 119.917ZM272.951 118.499L273.026 118.314L273.225 118.393L273.131 118.587L272.951 118.499ZM272.379 118.271L272.305 118.456L272.207 118.417L272.184 118.314L272.379 118.271ZM271.694 116.753L271.86 116.641L271.694 116.753ZM262.772 112.693L262.755 112.494L262.772 112.693ZM260.381 113.474L260.496 113.637L260.407 113.7L260.307 113.66L260.381 113.474ZM259.718 113.209L259.523 113.165L259.574 112.936L259.792 113.023L259.718 113.209ZM259.352 114.844L259.547 114.887L259.545 114.895L259.543 114.902L259.352 114.844ZM259.062 115.219L259.073 115.172L259.463 115.26L259.453 115.306L259.062 115.219ZM259.19 115.451L259.186 115.449L259.329 115.076L259.333 115.077L259.19 115.451ZM259.46 115.289C259.373 115.985 259.584 116.802 260.168 117.671L259.836 117.894C259.214 116.969 258.96 116.055 259.063 115.239L259.46 115.289ZM260.168 117.671C260.991 118.895 262.381 119.96 263.972 120.684C265.562 121.407 267.334 121.781 268.907 121.642L268.942 122.041C267.286 122.186 265.446 121.793 263.807 121.048C262.168 120.302 260.712 119.196 259.836 117.894L260.168 117.671ZM268.907 121.642C270.445 121.507 271.475 120.912 271.948 120.101L272.294 120.303C271.732 121.265 270.556 121.898 268.942 122.041L268.907 121.642ZM272.053 120.39L272.049 120.389L272.193 120.015L272.196 120.016L272.053 120.39ZM272.328 120.242L272.304 120.291L271.944 120.116L271.968 120.067L272.328 120.242ZM271.973 120.057C272.012 119.986 272.048 119.914 272.079 119.839L272.448 119.994C272.411 120.082 272.369 120.168 272.323 120.251L271.973 120.057ZM273.131 118.587L272.443 120.004L272.083 119.829L272.771 118.412L273.131 118.587ZM272.453 118.085L273.026 118.314L272.877 118.685L272.305 118.456L272.453 118.085ZM272.184 118.314C272.082 117.857 271.868 117.369 271.528 116.864L271.86 116.641C272.223 117.18 272.46 117.714 272.574 118.227L272.184 118.314ZM271.528 116.864C270.705 115.64 269.315 114.575 267.724 113.851C266.134 113.128 264.363 112.754 262.79 112.893L262.755 112.494C264.411 112.348 266.251 112.741 267.89 113.487C269.528 114.232 270.985 115.339 271.86 116.641L271.528 116.864ZM262.79 112.893C261.82 112.978 261.05 113.247 260.496 113.637L260.266 113.31C260.891 112.87 261.733 112.584 262.755 112.494L262.79 112.893ZM259.792 113.023L260.455 113.288L260.307 113.66L259.644 113.395L259.792 113.023ZM259.156 114.8L259.523 113.165L259.913 113.253L259.547 114.887L259.156 114.8ZM259.543 114.902C259.509 115.013 259.483 115.127 259.466 115.244L259.07 115.187C259.09 115.05 259.12 114.915 259.16 114.785L259.543 114.902Z" fill="url(#paint48_linear_1_486)" fill-opacity="0.3" mask="url(#path-69-outside-5_1_486)"/>
</g>
<g filter="url(#filter35_b_1_486)">
<path d="M272.087 115.208C270.162 112.643 266.018 110.876 262.832 111.261C261.129 111.466 260.044 112.245 259.697 113.317C259.395 114.251 259.652 115.408 260.548 116.602C262.474 119.167 266.617 120.934 269.804 120.549C272.99 120.165 274.012 117.773 272.087 115.208Z" fill="url(#paint49_linear_1_486)" fill-opacity="0.5"/>
<path d="M262.772 111.181C266.013 110.789 270.228 112.587 272.186 115.196C274.145 117.806 273.105 120.238 269.864 120.629C266.623 121.021 262.407 119.223 260.449 116.614C259.537 115.399 259.276 114.223 259.583 113.273C259.936 112.182 261.039 111.39 262.772 111.181Z" stroke="url(#paint50_linear_1_486)" stroke-opacity="0.3" stroke-width="0.2"/>
</g>
</g>
<g filter="url(#filter36_f_1_486)">
<g filter="url(#filter37_b_1_486)">
<mask id="path-73-outside-6_1_486" maskUnits="userSpaceOnUse" x="228.434" y="68.727" width="15.504" height="13.613" fill="black">
<rect fill="white" x="228.434" y="68.727" width="15.504" height="13.613"/>
<path fill-rule="evenodd" clip-rule="evenodd" d="M230.883 77.6361L230.895 77.6666L230.898 77.6659C231.197 78.241 231.777 78.7345 232.632 79.0711C235.04 80.0197 238.714 79.3642 240.836 77.607C241.873 76.749 242.348 75.7871 242.283 74.9169L242.287 74.916L242.278 74.8568C242.271 74.7911 242.261 74.7259 242.248 74.6614L242.043 73.3241L241.532 73.4402C241.222 73.1528 240.817 72.9037 240.32 72.7078C237.912 71.7592 234.238 72.4148 232.115 74.1719C231.461 74.7138 231.03 75.2972 230.818 75.8728L230.227 76.007L230.756 77.3204C230.789 77.4279 230.832 77.5333 230.883 77.6361Z"/>
</mask>
<path fill-rule="evenodd" clip-rule="evenodd" d="M230.883 77.6361L230.895 77.6666L230.898 77.6659C231.197 78.241 231.777 78.7345 232.632 79.0711C235.04 80.0197 238.714 79.3642 240.836 77.607C241.873 76.749 242.348 75.7871 242.283 74.9169L242.287 74.916L242.278 74.8568C242.271 74.7911 242.261 74.7259 242.248 74.6614L242.043 73.3241L241.532 73.4402C241.222 73.1528 240.817 72.9037 240.32 72.7078C237.912 71.7592 234.238 72.4148 232.115 74.1719C231.461 74.7138 231.03 75.2972 230.818 75.8728L230.227 76.007L230.756 77.3204C230.789 77.4279 230.832 77.5333 230.883 77.6361Z" fill="url(#paint51_linear_1_486)" fill-opacity="0.5"/>
<path d="M230.895 77.6666L230.942 77.8611L230.775 77.9016L230.71 77.7414L230.895 77.6666ZM230.883 77.6361L231.062 77.5467L231.066 77.5539L231.069 77.5613L230.883 77.6361ZM230.898 77.6659L230.851 77.4715L231.004 77.4348L231.076 77.5738L230.898 77.6659ZM232.632 79.0711L232.559 79.2572L232.632 79.0711ZM240.836 77.607L240.964 77.761L240.836 77.607ZM242.283 74.9169L242.084 74.9318L242.071 74.7623L242.236 74.7224L242.283 74.9169ZM242.287 74.916L242.484 74.8858L242.512 75.0673L242.334 75.1104L242.287 74.916ZM242.278 74.8568L242.08 74.887L242.079 74.8775L242.278 74.8568ZM242.248 74.6614L242.052 74.7011L242.05 74.6916L242.248 74.6614ZM242.043 73.3241L241.999 73.1291L242.209 73.0815L242.241 73.2939L242.043 73.3241ZM241.532 73.4402L241.576 73.6352L241.474 73.6586L241.396 73.5869L241.532 73.4402ZM240.32 72.7078L240.393 72.5217L240.32 72.7078ZM232.115 74.1719L232.243 74.326L232.115 74.1719ZM230.818 75.8728L231.005 75.9419L230.968 76.0438L230.862 76.0678L230.818 75.8728ZM230.227 76.007L230.041 76.0817L229.953 75.8639L230.182 75.8119L230.227 76.007ZM230.756 77.3204L230.941 77.2457L230.945 77.2532L230.947 77.261L230.756 77.3204ZM230.71 77.7414L230.698 77.7108L231.069 77.5613L231.081 77.5919L230.71 77.7414ZM230.945 77.8604L230.942 77.8611L230.849 77.4722L230.851 77.4715L230.945 77.8604ZM231.076 77.5738C231.346 78.095 231.882 78.5609 232.705 78.885L232.559 79.2572C231.672 78.908 231.047 78.3871 230.721 77.7581L231.076 77.5738ZM232.705 78.885C233.866 79.3422 235.347 79.4172 236.806 79.1568C238.264 78.8966 239.679 78.3051 240.709 77.4529L240.964 77.761C239.871 78.6661 238.387 79.2809 236.876 79.5506C235.366 79.8201 233.806 79.7486 232.559 79.2572L232.705 78.885ZM240.709 77.4529C241.716 76.6194 242.142 75.7148 242.084 74.9318L242.482 74.9019C242.554 75.8594 242.03 76.8787 240.964 77.761L240.709 77.4529ZM242.334 75.1104L242.33 75.1113L242.236 74.7224L242.24 74.7216L242.334 75.1104ZM242.475 74.8265L242.484 74.8858L242.089 74.9462L242.08 74.887L242.475 74.8265ZM242.079 74.8775C242.073 74.8181 242.064 74.7593 242.052 74.7011L242.444 74.6217C242.458 74.6925 242.469 74.764 242.477 74.836L242.079 74.8775ZM242.241 73.2939L242.446 74.6312L242.05 74.6916L241.846 73.3543L242.241 73.2939ZM241.488 73.2452L241.999 73.1291L242.088 73.5191L241.576 73.6352L241.488 73.2452ZM241.396 73.5869C241.107 73.3192 240.725 73.0823 240.247 72.8939L240.393 72.5217C240.91 72.7252 241.337 72.9864 241.668 73.2935L241.396 73.5869ZM240.247 72.8939C239.086 72.4367 237.605 72.3617 236.146 72.6221C234.687 72.8824 233.272 73.4739 232.243 74.326L231.988 74.0179C233.081 73.1128 234.564 72.498 236.075 72.2283C237.586 71.9588 239.146 72.0303 240.393 72.5217L240.247 72.8939ZM232.243 74.326C231.608 74.8513 231.202 75.4072 231.005 75.9419L230.63 75.8036C230.857 75.1872 231.313 74.5764 231.988 74.0179L232.243 74.326ZM230.182 75.8119L230.773 75.6777L230.862 76.0678L230.271 76.202L230.182 75.8119ZM230.57 77.3952L230.041 76.0817L230.412 75.9322L230.941 77.2457L230.57 77.3952ZM230.947 77.261C230.977 77.3581 231.015 77.4534 231.062 77.5467L230.704 77.7254C230.648 77.6131 230.602 77.4978 230.565 77.3799L230.947 77.261Z" fill="url(#paint52_linear_1_486)" fill-opacity="0.3" mask="url(#path-73-outside-6_1_486)"/>
</g>
<g filter="url(#filter38_b_1_486)">
<path d="M239.849 71.4379C237.264 70.5714 233.51 71.3339 231.465 73.1409C230.372 74.1068 229.989 75.1755 230.263 76.0936C230.502 76.8932 231.241 77.5785 232.444 77.9818C235.03 78.8483 238.784 78.0859 240.828 76.2788C242.873 74.4717 242.435 72.3044 239.849 71.4379Z" fill="url(#paint53_linear_1_486)" fill-opacity="0.5"/>
<path d="M231.37 73.1092C233.457 71.2656 237.286 70.4876 239.924 71.3717C242.562 72.2557 243.009 74.467 240.923 76.3106C238.837 78.1542 235.007 78.9321 232.369 78.0481C231.142 77.6365 230.388 76.9373 230.144 76.1215C229.864 75.185 230.255 74.0945 231.37 73.1092Z" stroke="url(#paint54_linear_1_486)" stroke-opacity="0.3" stroke-width="0.2"/>
</g>
</g>
</g>
<defs>
<filter id="filter0_f_1_486" x="144.5" y="239.893" width="65.7961" height="22.9789" filterUnits="userSpaceOnUse" color-interpolation-filters="sRGB">
<feFlood flood-opacity="0" result="BackgroundImageFix"/>
<feBlend mode="normal" in="SourceGraphic" in2="BackgroundImageFix" result="shape"/>
<feGaussianBlur stdDeviation="1.5" result="effect1_foregroundBlur_1_486"/>
</filter>
<filter id="filter1_f_1_486" x="163.285" y="228.13" width="65.7961" height="22.9789" filterUnits="userSpaceOnUse" color-interpolation-filters="sRGB">
<feFlood flood-opacity="0" result="BackgroundImageFix"/>
<feBlend mode="normal" in="SourceGraphic" in2="BackgroundImageFix" result="shape"/>
<feGaussianBlur stdDeviation="1.5" result="effect1_foregroundBlur_1_486"/>
</filter>
<filter id="filter2_f_1_486" x="182.07" y="216.369" width="65.7961" height="22.9789" filterUnits="userSpaceOnUse" color-interpolation-filters="sRGB">
<feFlood flood-opacity="0" result="BackgroundImageFix"/>
<feBlend mode="normal" in="SourceGraphic" in2="BackgroundImageFix" result="shape"/>
<feGaussianBlur stdDeviation="1.5" result="effect1_foregroundBlur_1_486"/>
</filter>
<filter id="filter3_b_1_486" x="19.4715" y="227.931" width="118.869" height="74.5669" filterUnits="userSpaceOnUse" color-interpolation-filters="sRGB">
<feFlood flood-opacity="0" result="BackgroundImageFix"/>
<feGaussianBlur in="BackgroundImageFix" stdDeviation="2.5"/>
<feComposite in2="SourceAlpha" operator="in" result="effect1_backgroundBlur_1_486"/>
<feBlend mode="normal" in="SourceGraphic" in2="effect1_backgroundBlur_1_486" result="shape"/>
</filter>
<filter id="filter4_f_1_486" x="-0.597382" y="255.808" width="159.006" height="74.8409" filterUnits="userSpaceOnUse" color-interpolation-filters="sRGB">
<feFlood flood-opacity="0" result="BackgroundImageFix"/>
<feBlend mode="normal" in="SourceGraphic" in2="BackgroundImageFix" result="shape"/>
<feGaussianBlur stdDeviation="10" result="effect1_foregroundBlur_1_486"/>
</filter>
<filter id="filter5_i_1_486" x="25.681" y="81.9063" width="100.19" height="84.7855" filterUnits="userSpaceOnUse" color-interpolation-filters="sRGB">
<feFlood flood-opacity="0" result="BackgroundImageFix"/>
<feBlend mode="normal" in="SourceGraphic" in2="BackgroundImageFix" result="shape"/>
<feColorMatrix in="SourceAlpha" type="matrix" values="0 0 0 0 0 0 0 0 0 0 0 0 0 0 0 0 0 0 127 0" result="hardAlpha"/>
<feOffset dx="2" dy="-2"/>
<feGaussianBlur stdDeviation="3"/>
<feComposite in2="hardAlpha" operator="arithmetic" k2="-1" k3="1"/>
<feColorMatrix type="matrix" values="0 0 0 0 0.933333 0 0 0 0 0.439216 0 0 0 0 0.45098 0 0 0 0.5 0"/>
<feBlend mode="normal" in2="shape" result="effect1_innerShadow_1_486"/>
</filter>
<filter id="filter6_b_1_486" x="20.4713" y="212.865" width="116.869" height="40.1319" filterUnits="userSpaceOnUse" color-interpolation-filters="sRGB">
<feFlood flood-opacity="0" result="BackgroundImageFix"/>
<feGaussianBlur in="BackgroundImageFix" stdDeviation="2"/>
<feComposite in2="SourceAlpha" operator="in" result="effect1_backgroundBlur_1_486"/>
<feBlend mode="normal" in="SourceGraphic" in2="effect1_backgroundBlur_1_486" result="shape"/>
</filter>
<filter id="filter7_b_1_486" x="-160.893" y="20.7766" width="479.601" height="413.655" filterUnits="userSpaceOnUse" color-interpolation-filters="sRGB">
<feFlood flood-opacity="0" result="BackgroundImageFix"/>
<feGaussianBlur in="BackgroundImageFix" stdDeviation="100"/>
<feComposite in2="SourceAlpha" operator="in" result="effect1_backgroundBlur_1_486"/>
<feBlend mode="normal" in="SourceGraphic" in2="effect1_backgroundBlur_1_486" result="shape"/>
</filter>
<filter id="filter8_f_1_486" x="0.812729" y="80.0583" width="156.177" height="168.994" filterUnits="userSpaceOnUse" color-interpolation-filters="sRGB">
<feFlood flood-opacity="0" result="BackgroundImageFix"/>
<feBlend mode="normal" in="SourceGraphic" in2="BackgroundImageFix" result="shape"/>
<feGaussianBlur stdDeviation="2" result="effect1_foregroundBlur_1_486"/>
</filter>
<filter id="filter9_f_1_486" x="39.9544" y="183.992" width="74.2986" height="64.2054" filterUnits="userSpaceOnUse" color-interpolation-filters="sRGB">
<feFlood flood-opacity="0" result="BackgroundImageFix"/>
<feBlend mode="normal" in="SourceGraphic" in2="BackgroundImageFix" result="shape"/>
<feGaussianBlur stdDeviation="2" result="effect1_foregroundBlur_1_486"/>
</filter>
<filter id="filter10_f_1_486" x="80.7549" y="226.712" width="5.75293" height="5.75293" filterUnits="userSpaceOnUse" color-interpolation-filters="sRGB">
<feFlood flood-opacity="0" result="BackgroundImageFix"/>
<feBlend mode="normal" in="SourceGraphic" in2="BackgroundImageFix" result="shape"/>
<feGaussianBlur stdDeviation="0.5" result="effect1_foregroundBlur_1_486"/>
</filter>
<filter id="filter11_f_1_486" x="88.8252" y="214.998" width="7.44174" height="7.44171" filterUnits="userSpaceOnUse" color-interpolation-filters="sRGB">
<feFlood flood-opacity="0" result="BackgroundImageFix"/>
<feBlend mode="normal" in="SourceGraphic" in2="BackgroundImageFix" result="shape"/>
<feGaussianBlur stdDeviation="0.5" result="effect1_foregroundBlur_1_486"/>
</filter>
<filter id="filter12_f_1_486" x="73.6611" y="223.089" width="4.23895" height="4.23895" filterUnits="userSpaceOnUse" color-interpolation-filters="sRGB">
<feFlood flood-opacity="0" result="BackgroundImageFix"/>
<feBlend mode="normal" in="SourceGraphic" in2="BackgroundImageFix" result="shape"/>
<feGaussianBlur stdDeviation="0.5" result="effect1_foregroundBlur_1_486"/>
</filter>
<filter id="filter13_f_1_486" x="76.6855" y="191.718" width="4.23895" height="4.23895" filterUnits="userSpaceOnUse" color-interpolation-filters="sRGB">
<feFlood flood-opacity="0" result="BackgroundImageFix"/>
<feBlend mode="normal" in="SourceGraphic" in2="BackgroundImageFix" result="shape"/>
<feGaussianBlur stdDeviation="0.5" result="effect1_foregroundBlur_1_486"/>
</filter>
<filter id="filter14_f_1_486" x="61.5312" y="211.837" width="6.61816" height="6.61816" filterUnits="userSpaceOnUse" color-interpolation-filters="sRGB">
<feFlood flood-opacity="0" result="BackgroundImageFix"/>
<feBlend mode="normal" in="SourceGraphic" in2="BackgroundImageFix" result="shape"/>
<feGaussianBlur stdDeviation="0.5" result="effect1_foregroundBlur_1_486"/>
</filter>
<filter id="filter15_f_1_486" x="67.5293" y="183.923" width="6.97217" height="6.97217" filterUnits="userSpaceOnUse" color-interpolation-filters="sRGB">
<feFlood flood-opacity="0" result="BackgroundImageFix"/>
<feBlend mode="normal" in="SourceGraphic" in2="BackgroundImageFix" result="shape"/>
<feGaussianBlur stdDeviation="1" result="effect1_foregroundBlur_1_486"/>
</filter>
<filter id="filter16_b_1_486" x="186.329" y="160.673" width="167.967" height="65.8868" filterUnits="userSpaceOnUse" color-interpolation-filters="sRGB">
<feFlood flood-opacity="0" result="BackgroundImageFix"/>
<feGaussianBlur in="BackgroundImageFix" stdDeviation="2"/>
<feComposite in2="SourceAlpha" operator="in" result="effect1_backgroundBlur_1_486"/>
<feBlend mode="normal" in="SourceGraphic" in2="effect1_backgroundBlur_1_486" result="shape"/>
</filter>
<filter id="filter17_b_1_486" x="186.331" y="137.067" width="167.967" height="55.2132" filterUnits="userSpaceOnUse" color-interpolation-filters="sRGB">
<feFlood flood-opacity="0" result="BackgroundImageFix"/>
<feGaussianBlur in="BackgroundImageFix" stdDeviation="2"/>
<feComposite in2="SourceAlpha" operator="in" result="effect1_backgroundBlur_1_486"/>
<feBlend mode="normal" in="SourceGraphic" in2="effect1_backgroundBlur_1_486" result="shape"/>
</filter>
<filter id="filter18_f_1_486" x="198.779" y="182.894" width="159.006" height="74.8409" filterUnits="userSpaceOnUse" color-interpolation-filters="sRGB">
<feFlood flood-opacity="0" result="BackgroundImageFix"/>
<feBlend mode="normal" in="SourceGraphic" in2="BackgroundImageFix" result="shape"/>
<feGaussianBlur stdDeviation="10" result="effect1_foregroundBlur_1_486"/>
</filter>
<filter id="filter19_b_1_486" x="207.81" y="134.227" width="124.922" height="50.3099" filterUnits="userSpaceOnUse" color-interpolation-filters="sRGB">
<feFlood flood-opacity="0" result="BackgroundImageFix"/>
<feGaussianBlur in="BackgroundImageFix" stdDeviation="2"/>
<feComposite in2="SourceAlpha" operator="in" result="effect1_backgroundBlur_1_486"/>
<feBlend mode="normal" in="SourceGraphic" in2="effect1_backgroundBlur_1_486" result="shape"/>
</filter>
<filter id="filter20_b_1_486" x="207.812" y="116.973" width="124.922" height="42.5089" filterUnits="userSpaceOnUse" color-interpolation-filters="sRGB">
<feFlood flood-opacity="0" result="BackgroundImageFix"/>
<feGaussianBlur in="BackgroundImageFix" stdDeviation="2"/>
<feComposite in2="SourceAlpha" operator="in" result="effect1_backgroundBlur_1_486"/>
<feBlend mode="normal" in="SourceGraphic" in2="effect1_backgroundBlur_1_486" result="shape"/>
</filter>
<filter id="filter21_f_1_486" x="183.433" y="6.66321" width="173.362" height="145.513" filterUnits="userSpaceOnUse" color-interpolation-filters="sRGB">
<feFlood flood-opacity="0" result="BackgroundImageFix"/>
<feBlend mode="normal" in="SourceGraphic" in2="BackgroundImageFix" result="shape"/>
<feGaussianBlur stdDeviation="2" result="effect1_foregroundBlur_1_486"/>
</filter>
<filter id="filter22_f_1_486" x="233.454" y="88.8799" width="74.2986" height="64.2054" filterUnits="userSpaceOnUse" color-interpolation-filters="sRGB">
<feFlood flood-opacity="0" result="BackgroundImageFix"/>
<feBlend mode="normal" in="SourceGraphic" in2="BackgroundImageFix" result="shape"/>
<feGaussianBlur stdDeviation="2" result="effect1_foregroundBlur_1_486"/>
</filter>
<filter id="filter23_f_1_486" x="266.351" y="132.391" width="5.75293" height="5.75293" filterUnits="userSpaceOnUse" color-interpolation-filters="sRGB">
<feFlood flood-opacity="0" result="BackgroundImageFix"/>
<feBlend mode="normal" in="SourceGraphic" in2="BackgroundImageFix" result="shape"/>
<feGaussianBlur stdDeviation="0.5" result="effect1_foregroundBlur_1_486"/>
</filter>
<filter id="filter24_f_1_486" x="279.83" y="111.159" width="6.61816" height="6.61816" filterUnits="userSpaceOnUse" color-interpolation-filters="sRGB">
<feFlood flood-opacity="0" result="BackgroundImageFix"/>
<feBlend mode="normal" in="SourceGraphic" in2="BackgroundImageFix" result="shape"/>
<feGaussianBlur stdDeviation="0.5" result="effect1_foregroundBlur_1_486"/>
</filter>
<filter id="filter25_f_1_486" x="276.857" y="58.6597" width="4.97217" height="4.97217" filterUnits="userSpaceOnUse" color-interpolation-filters="sRGB">
<feFlood flood-opacity="0" result="BackgroundImageFix"/>
<feBlend mode="normal" in="SourceGraphic" in2="BackgroundImageFix" result="shape"/>
<feGaussianBlur stdDeviation="0.5" result="effect1_foregroundBlur_1_486"/>
</filter>
<filter id="filter26_f_1_486" x="262.379" y="123.231" width="6.97217" height="6.97217" filterUnits="userSpaceOnUse" color-interpolation-filters="sRGB">
<feFlood flood-opacity="0" result="BackgroundImageFix"/>
<feBlend mode="normal" in="SourceGraphic" in2="BackgroundImageFix" result="shape"/>
<feGaussianBlur stdDeviation="1" result="effect1_foregroundBlur_1_486"/>
</filter>
<filter id="filter27_f_1_486" x="261.379" y="92.2576" width="8.97217" height="8.97217" filterUnits="userSpaceOnUse" color-interpolation-filters="sRGB">
<feFlood flood-opacity="0" result="BackgroundImageFix"/>
<feBlend mode="normal" in="SourceGraphic" in2="BackgroundImageFix" result="shape"/>
<feGaussianBlur stdDeviation="1.5" result="effect1_foregroundBlur_1_486"/>
</filter>
<filter id="filter28_f_1_486" x="278.766" y="130.262" width="4.12891" height="4.12891" filterUnits="userSpaceOnUse" color-interpolation-filters="sRGB">
<feFlood flood-opacity="0" result="BackgroundImageFix"/>
<feBlend mode="normal" in="SourceGraphic" in2="BackgroundImageFix" result="shape"/>
<feGaussianBlur stdDeviation="0.5" result="effect1_foregroundBlur_1_486"/>
</filter>
<filter id="filter29_i_1_486" x="239.976" y="22.8159" width="54.055" height="44.8875" filterUnits="userSpaceOnUse" color-interpolation-filters="sRGB">
<feFlood flood-opacity="0" result="BackgroundImageFix"/>
<feBlend mode="normal" in="SourceGraphic" in2="BackgroundImageFix" result="shape"/>
<feColorMatrix in="SourceAlpha" type="matrix" values="0 0 0 0 0 0 0 0 0 0 0 0 0 0 0 0 0 0 127 0" result="hardAlpha"/>
<feOffset dx="2" dy="1"/>
<feGaussianBlur stdDeviation="2"/>
<feComposite in2="hardAlpha" operator="arithmetic" k2="-1" k3="1"/>
<feColorMatrix type="matrix" values="0 0 0 0 0.933333 0 0 0 0 0.415686 0 0 0 0 0.482353 0 0 0 0.7 0"/>
<feBlend mode="normal" in2="shape" result="effect1_innerShadow_1_486"/>
</filter>
<filter id="filter30_f_1_486" x="286.642" y="80.0571" width="17.6521" height="16.0466" filterUnits="userSpaceOnUse" color-interpolation-filters="sRGB">
<feFlood flood-opacity="0" result="BackgroundImageFix"/>
<feBlend mode="normal" in="SourceGraphic" in2="BackgroundImageFix" result="shape"/>
<feGaussianBlur stdDeviation="0.25" result="effect1_foregroundBlur_1_486"/>
</filter>
<filter id="filter31_b_1_486" x="282.769" y="76.587" width="26.0252" height="24.0167" filterUnits="userSpaceOnUse" color-interpolation-filters="sRGB">
<feFlood flood-opacity="0" result="BackgroundImageFix"/>
<feGaussianBlur in="BackgroundImageFix" stdDeviation="2.5"/>
<feComposite in2="SourceAlpha" operator="in" result="effect1_backgroundBlur_1_486"/>
<feBlend mode="normal" in="SourceGraphic" in2="effect1_backgroundBlur_1_486" result="shape"/>
</filter>
<filter id="filter32_b_1_486" x="282.142" y="75.5571" width="25.6912" height="23.7729" filterUnits="userSpaceOnUse" color-interpolation-filters="sRGB">
<feFlood flood-opacity="0" result="BackgroundImageFix"/>
<feGaussianBlur in="BackgroundImageFix" stdDeviation="2.5"/>
<feComposite in2="SourceAlpha" operator="in" result="effect1_backgroundBlur_1_486"/>
<feBlend mode="normal" in="SourceGraphic" in2="effect1_backgroundBlur_1_486" result="shape"/>
</filter>
<filter id="filter33_f_1_486" x="258.525" y="110.546" width="15.2667" height="12.0244" filterUnits="userSpaceOnUse" color-interpolation-filters="sRGB">
<feFlood flood-opacity="0" result="BackgroundImageFix"/>
<feBlend mode="normal" in="SourceGraphic" in2="BackgroundImageFix" result="shape"/>
<feGaussianBlur stdDeviation="0.25" result="effect1_foregroundBlur_1_486"/>
</filter>
<filter id="filter34_b_1_486" x="254.025" y="107.464" width="24.2004" height="19.6066" filterUnits="userSpaceOnUse" color-interpolation-filters="sRGB">
<feFlood flood-opacity="0" result="BackgroundImageFix"/>
<feGaussianBlur in="BackgroundImageFix" stdDeviation="2.5"/>
<feComposite in2="SourceAlpha" operator="in" result="effect1_backgroundBlur_1_486"/>
<feBlend mode="normal" in="SourceGraphic" in2="effect1_backgroundBlur_1_486" result="shape"/>
</filter>
<filter id="filter35_b_1_486" x="254.344" y="106.046" width="23.9475" height="19.7176" filterUnits="userSpaceOnUse" color-interpolation-filters="sRGB">
<feFlood flood-opacity="0" result="BackgroundImageFix"/>
<feGaussianBlur in="BackgroundImageFix" stdDeviation="2.5"/>
<feComposite in2="SourceAlpha" operator="in" result="effect1_backgroundBlur_1_486"/>
<feBlend mode="normal" in="SourceGraphic" in2="effect1_backgroundBlur_1_486" result="shape"/>
</filter>
<filter id="filter36_f_1_486" x="228.936" y="69.9334" width="14.5759" height="10.7724" filterUnits="userSpaceOnUse" color-interpolation-filters="sRGB">
<feFlood flood-opacity="0" result="BackgroundImageFix"/>
<feBlend mode="normal" in="SourceGraphic" in2="BackgroundImageFix" result="shape"/>
<feGaussianBlur stdDeviation="0.5" result="effect1_foregroundBlur_1_486"/>
</filter>
<filter id="filter37_b_1_486" x="224.953" y="67.0731" width="22.5588" height="17.6327" filterUnits="userSpaceOnUse" color-interpolation-filters="sRGB">
<feFlood flood-opacity="0" result="BackgroundImageFix"/>
<feGaussianBlur in="BackgroundImageFix" stdDeviation="2.5"/>
<feComposite in2="SourceAlpha" operator="in" result="effect1_backgroundBlur_1_486"/>
<feBlend mode="normal" in="SourceGraphic" in2="effect1_backgroundBlur_1_486" result="shape"/>
</filter>
<filter id="filter38_b_1_486" x="224.936" y="65.9334" width="22.4213" height="17.5529" filterUnits="userSpaceOnUse" color-interpolation-filters="sRGB">
<feFlood flood-opacity="0" result="BackgroundImageFix"/>
<feGaussianBlur in="BackgroundImageFix" stdDeviation="2.5"/>
<feComposite in2="SourceAlpha" operator="in" result="effect1_backgroundBlur_1_486"/>
<feBlend mode="normal" in="SourceGraphic" in2="effect1_backgroundBlur_1_486" result="shape"/>
</filter>
<linearGradient id="paint0_linear_1_486" x1="207.136" y1="246.127" x2="147.42" y2="246.127" gradientUnits="userSpaceOnUse">
<stop stop-color="#FFFAFC"/>
<stop offset="0.735811" stop-color="#EBE0E4"/>
</linearGradient>
<linearGradient id="paint1_linear_1_486" x1="225.921" y1="234.365" x2="166.205" y2="234.365" gradientUnits="userSpaceOnUse">
<stop stop-color="#FFFAFC"/>
<stop offset="0.735811" stop-color="#EBE0E4"/>
</linearGradient>
<linearGradient id="paint2_linear_1_486" x1="244.706" y1="222.603" x2="184.99" y2="222.603" gradientUnits="userSpaceOnUse">
<stop stop-color="#FFFAFC"/>
<stop offset="0.735811" stop-color="#EBE0E4"/>
</linearGradient>
<linearGradient id="paint3_linear_1_486" x1="133.34" y1="309.195" x2="24.4717" y2="309.195" gradientUnits="userSpaceOnUse">
<stop stop-color="#94C6E1"/>
<stop offset="0.0601926" stop-color="#DDF1FC"/>
<stop offset="0.213349" stop-color="#B0D8E5"/>
<stop offset="0.33525" stop-color="#C0D9E7"/>
<stop offset="0.477467" stop-color="#3D535F"/>
<stop offset="0.901042" stop-color="#E0E7EB"/>
<stop offset="1" stop-color="#E0E7EB"/>
</linearGradient>
<linearGradient id="paint4_linear_1_486" x1="78.9061" y1="232.931" x2="78.9061" y2="297.498" gradientUnits="userSpaceOnUse">
<stop stop-color="#618CB4"/>
<stop offset="1" stop-color="white" stop-opacity="0"/>
</linearGradient>
<linearGradient id="paint5_linear_1_486" x1="22.7046" y1="125.283" x2="88.7254" y2="156.384" gradientUnits="userSpaceOnUse">
<stop stop-color="#A6174E"/>
<stop offset="1" stop-color="#CF1C61"/>
</linearGradient>
<linearGradient id="paint6_linear_1_486" x1="51.9753" y1="154.001" x2="46.7373" y2="62.2015" gradientUnits="userSpaceOnUse">
<stop stop-color="#E22970"/>
<stop offset="1" stop-color="#FACEDF"/>
</linearGradient>
<linearGradient id="paint7_linear_1_486" x1="130.586" y1="147.549" x2="134.534" y2="243.832" gradientUnits="userSpaceOnUse">
<stop stop-color="#4CC1E6" stop-opacity="0"/>
<stop offset="1" stop-color="#297FE3"/>
</linearGradient>
<linearGradient id="paint8_linear_1_486" x1="84.916" y1="195.17" x2="90.2457" y2="237.615" gradientUnits="userSpaceOnUse">
<stop offset="0.0430872" stop-color="#FFECA7" stop-opacity="0"/>
<stop offset="1" stop-color="#FFBF85"/>
</linearGradient>
<linearGradient id="paint9_linear_1_486" x1="82.0596" y1="228.579" x2="85.3007" y2="230.712" gradientUnits="userSpaceOnUse">
<stop stop-color="#2EADD4"/>
<stop offset="1" stop-color="#FCE8F0" stop-opacity="0"/>
</linearGradient>
<linearGradient id="paint10_linear_1_486" x1="90.267" y1="217.255" x2="94.9666" y2="220.348" gradientUnits="userSpaceOnUse">
<stop stop-color="#2EADD4"/>
<stop offset="1" stop-color="#FCE8F0" stop-opacity="0"/>
</linearGradient>
<linearGradient id="paint11_linear_1_486" x1="74.8429" y1="224.606" x2="76.7765" y2="225.879" gradientUnits="userSpaceOnUse">
<stop stop-color="#2EADD4"/>
<stop offset="1" stop-color="#FCE8F0" stop-opacity="0"/>
</linearGradient>
<linearGradient id="paint12_linear_1_486" x1="77.8673" y1="193.236" x2="79.8009" y2="194.508" gradientUnits="userSpaceOnUse">
<stop stop-color="#2EADD4"/>
<stop offset="1" stop-color="#FCE8F0" stop-opacity="0"/>
</linearGradient>
<linearGradient id="paint13_linear_1_486" x1="62.9062" y1="213.905" x2="66.8946" y2="216.53" gradientUnits="userSpaceOnUse">
<stop stop-color="#2EADD4"/>
<stop offset="1" stop-color="#FCE8F0" stop-opacity="0"/>
</linearGradient>
<linearGradient id="paint14_linear_1_486" x1="69.7706" y1="186.61" x2="72.3374" y2="188.3" gradientUnits="userSpaceOnUse">
<stop stop-color="#2EADD4"/>
<stop offset="1" stop-color="#FCE8F0" stop-opacity="0"/>
</linearGradient>
<linearGradient id="paint15_linear_1_486" x1="17.6815" y1="2.01742" x2="20.2547" y2="36.2547" gradientUnits="userSpaceOnUse">
<stop stop-color="#4CAFE6" stop-opacity="0"/>
<stop offset="1" stop-color="#29C2E3"/>
</linearGradient>
<linearGradient id="paint16_linear_1_486" x1="229.244" y1="326.348" x2="156.945" y2="326.348" gradientUnits="userSpaceOnUse">
<stop stop-color="white"/>
<stop offset="0.735811" stop-color="#EBE0E4"/>
</linearGradient>
<linearGradient id="paint17_linear_1_486" x1="193.028" y1="267.811" x2="198.04" y2="315.465" gradientUnits="userSpaceOnUse">
<stop stop-color="#4CAFE6" stop-opacity="0"/>
<stop offset="1" stop-color="#29C2E3"/>
</linearGradient>
<linearGradient id="paint18_linear_1_486" x1="181.654" y1="280.76" x2="183.68" y2="280.998" gradientUnits="userSpaceOnUse">
<stop stop-color="#D9D9D9"/>
<stop offset="1" stop-color="white"/>
</linearGradient>
<linearGradient id="paint19_linear_1_486" x1="203.154" y1="314.76" x2="205.18" y2="314.998" gradientUnits="userSpaceOnUse">
<stop stop-color="#D9D9D9"/>
<stop offset="1" stop-color="white"/>
</linearGradient>
<linearGradient id="paint20_linear_1_486" x1="186.904" y1="313.277" x2="188.865" y2="313.706" gradientUnits="userSpaceOnUse">
<stop stop-color="#D9D9D9"/>
<stop offset="1" stop-color="white"/>
</linearGradient>
<linearGradient id="paint21_linear_1_486" x1="193.566" y1="277.457" x2="195.533" y2="277.872" gradientUnits="userSpaceOnUse">
<stop stop-color="#D9D9D9"/>
<stop offset="1" stop-color="white"/>
</linearGradient>
<linearGradient id="paint22_linear_1_486" x1="198.029" y1="293.489" x2="199.865" y2="294.122" gradientUnits="userSpaceOnUse">
<stop stop-color="#D9D9D9"/>
<stop offset="1" stop-color="white"/>
</linearGradient>
<linearGradient id="paint23_linear_1_486" x1="186.904" y1="271.647" x2="188.833" y2="272.139" gradientUnits="userSpaceOnUse">
<stop stop-color="#D9D9D9"/>
<stop offset="1" stop-color="white"/>
</linearGradient>
<linearGradient id="paint24_linear_1_486" x1="191.625" y1="323.301" x2="193.175" y2="324.185" gradientUnits="userSpaceOnUse">
<stop stop-color="#D9D9D9"/>
<stop offset="1" stop-color="white"/>
</linearGradient>
<linearGradient id="paint25_linear_1_486" x1="205.5" y1="286.282" x2="206.461" y2="287.307" gradientUnits="userSpaceOnUse">
<stop stop-color="#D9D9D9"/>
<stop offset="1" stop-color="white"/>
</linearGradient>
<linearGradient id="paint26_linear_1_486" x1="198.75" y1="318.827" x2="199.711" y2="319.852" gradientUnits="userSpaceOnUse">
<stop stop-color="#D9D9D9"/>
<stop offset="1" stop-color="white"/>
</linearGradient>
<linearGradient id="paint27_linear_1_486" x1="350.296" y1="233.047" x2="190.329" y2="233.047" gradientUnits="userSpaceOnUse">
<stop stop-color="#94C6E1"/>
<stop offset="0.0601926" stop-color="#DDF1FC"/>
<stop offset="0.213349" stop-color="#B0D8E5"/>
<stop offset="0.33525" stop-color="#C0D9E7"/>
<stop offset="0.477467" stop-color="#3D535F"/>
<stop offset="0.901042" stop-color="#E0E7EB"/>
<stop offset="1" stop-color="#E0E7EB"/>
</linearGradient>
<linearGradient id="paint28_linear_1_486" x1="270.312" y1="164.673" x2="270.312" y2="222.56" gradientUnits="userSpaceOnUse">
<stop stop-color="#618CB4"/>
<stop offset="1" stop-color="white" stop-opacity="0"/>
</linearGradient>
<linearGradient id="paint29_linear_1_486" x1="342.917" y1="165.058" x2="224.052" y2="96.4196" gradientUnits="userSpaceOnUse">
<stop stop-color="white"/>
<stop offset="0.216088" stop-color="#7A9DA2" stop-opacity="0.799685"/>
<stop offset="0.449527" stop-color="#FFFDFE" stop-opacity="0.550473"/>
<stop offset="0.747634" stop-color="#75CCF1" stop-opacity="0.291798"/>
<stop offset="1" stop-color="#FFFAFC" stop-opacity="0"/>
</linearGradient>
<linearGradient id="paint30_linear_1_486" x1="345.417" y1="170.058" x2="231.86" y2="103.484" gradientUnits="userSpaceOnUse">
<stop stop-color="white"/>
<stop offset="0.322279" stop-color="white" stop-opacity="0.746784"/>
<stop offset="0.491614" stop-color="#929292" stop-opacity="0.613736"/>
<stop offset="0.677418" stop-color="white" stop-opacity="0.431633"/>
<stop offset="1" stop-opacity="0.1"/>
</linearGradient>
<linearGradient id="paint31_linear_1_486" x1="214.416" y1="155.558" x2="328.916" y2="159.058" gradientUnits="userSpaceOnUse">
<stop stop-color="#2BB7E3"/>
<stop offset="0.245494" stop-color="#4594CE"/>
<stop offset="0.503229" stop-color="#1C3CAE"/>
<stop offset="0.703782" stop-color="#81EBF2"/>
<stop offset="0.867584" stop-color="#3FD1F1"/>
<stop offset="1" stop-color="#30AEF5"/>
</linearGradient>
<linearGradient id="paint32_linear_1_486" x1="270.272" y1="138.227" x2="270.272" y2="180.536" gradientUnits="userSpaceOnUse">
<stop stop-color="#FFC8CB"/>
<stop offset="1" stop-color="#FF99BE"/>
</linearGradient>
<linearGradient id="paint33_linear_1_486" x1="314.274" y1="64.911" x2="317.648" y2="147.177" gradientUnits="userSpaceOnUse">
<stop stop-color="#4CA5E6" stop-opacity="0"/>
<stop offset="1" stop-color="#298AE3"/>
</linearGradient>
<linearGradient id="paint34_linear_1_486" x1="278.416" y1="100.058" x2="283.746" y2="142.503" gradientUnits="userSpaceOnUse">
<stop offset="0.0430872" stop-color="#FFECA7" stop-opacity="0"/>
<stop offset="1" stop-color="#FFBF85"/>
</linearGradient>
<linearGradient id="paint35_linear_1_486" x1="267.656" y1="134.258" x2="270.897" y2="136.391" gradientUnits="userSpaceOnUse">
<stop stop-color="#2EADD4"/>
<stop offset="1" stop-color="#FCE8F0" stop-opacity="0"/>
</linearGradient>
<linearGradient id="paint36_linear_1_486" x1="281.205" y1="113.227" x2="285.193" y2="115.851" gradientUnits="userSpaceOnUse">
<stop stop-color="#2EADD4"/>
<stop offset="1" stop-color="#FCE8F0" stop-opacity="0"/>
</linearGradient>
<linearGradient id="paint37_linear_1_486" x1="278.099" y1="60.3468" x2="280.665" y2="62.036" gradientUnits="userSpaceOnUse">
<stop stop-color="#2EADD4"/>
<stop offset="1" stop-color="#FCE8F0" stop-opacity="0"/>
</linearGradient>
<linearGradient id="paint38_linear_1_486" x1="264.62" y1="125.918" x2="267.187" y2="127.607" gradientUnits="userSpaceOnUse">
<stop stop-color="#2EADD4"/>
<stop offset="1" stop-color="#FCE8F0" stop-opacity="0"/>
</linearGradient>
<linearGradient id="paint39_linear_1_486" x1="264.62" y1="95.9447" x2="267.187" y2="97.6339" gradientUnits="userSpaceOnUse">
<stop stop-color="#2EADD4"/>
<stop offset="1" stop-color="#FCE8F0" stop-opacity="0"/>
</linearGradient>
<linearGradient id="paint40_linear_1_486" x1="279.938" y1="131.754" x2="281.777" y2="132.964" gradientUnits="userSpaceOnUse">
<stop stop-color="#2EADD4"/>
<stop offset="1" stop-color="#FCE8F0" stop-opacity="0"/>
</linearGradient>
<linearGradient id="paint41_linear_1_486" x1="293.609" y1="44.7511" x2="258.608" y2="61.239" gradientUnits="userSpaceOnUse">
<stop stop-color="#A6174E"/>
<stop offset="1" stop-color="#CF1C61"/>
</linearGradient>
<linearGradient id="paint42_linear_1_486" x1="278.09" y1="59.9747" x2="280.867" y2="11.3086" gradientUnits="userSpaceOnUse">
<stop stop-color="#E22970"/>
<stop offset="1" stop-color="#F3A7C4"/>
</linearGradient>
<linearGradient id="paint43_linear_1_486" x1="307.653" y1="93.4964" x2="306.05" y2="81.258" gradientUnits="userSpaceOnUse">
<stop stop-color="#E19494"/>
<stop offset="0.0001" stop-color="#B0DEE5"/>
<stop offset="0.0208333" stop-color="#DDF8FC"/>
<stop offset="0.598958" stop-color="#3D5B5F"/>
<stop offset="0.901042" stop-color="#E0E9EB"/>
<stop offset="1" stop-color="#E0E9EB"/>
</linearGradient>
<linearGradient id="paint44_linear_1_486" x1="287.682" y1="89.8871" x2="303.911" y2="87.7622" gradientUnits="userSpaceOnUse">
<stop stop-color="#618CB4"/>
<stop offset="1" stop-color="white" stop-opacity="0"/>
</linearGradient>
<linearGradient id="paint45_linear_1_486" x1="288.046" y1="82.0795" x2="289.661" y2="94.4144" gradientUnits="userSpaceOnUse">
<stop stop-color="#DDF5FC"/>
<stop offset="0.0001" stop-color="#3D555F"/>
<stop offset="0.901042" stop-color="#E0E9EB"/>
<stop offset="1" stop-color="#E0E6EB"/>
</linearGradient>
<linearGradient id="paint46_linear_1_486" x1="302.104" y1="86.5115" x2="290.623" y2="81.7457" gradientUnits="userSpaceOnUse">
<stop stop-color="#618CB4"/>
<stop offset="1" stop-color="white" stop-opacity="0"/>
</linearGradient>
<linearGradient id="paint47_linear_1_486" x1="267.087" y1="127.236" x2="275.074" y2="121.242" gradientUnits="userSpaceOnUse">
<stop stop-color="#E19494"/>
<stop offset="0.0001" stop-color="#B0DEE5"/>
<stop offset="0.0208333" stop-color="#DDF8FC"/>
<stop offset="0.598958" stop-color="#3D5B5F"/>
<stop offset="0.901042" stop-color="#E0E9EB"/>
<stop offset="1" stop-color="#E0E9EB"/>
</linearGradient>
<linearGradient id="paint48_linear_1_486" x1="261.691" y1="111.728" x2="269.64" y2="122.32" gradientUnits="userSpaceOnUse">
<stop stop-color="#618CB4"/>
<stop offset="1" stop-color="white" stop-opacity="0"/>
</linearGradient>
<linearGradient id="paint49_linear_1_486" x1="267.338" y1="108.881" x2="259.288" y2="114.923" gradientUnits="userSpaceOnUse">
<stop stop-color="#DDF5FC"/>
<stop offset="0.0001" stop-color="#3D555F"/>
<stop offset="0.901042" stop-color="#E0E9EB"/>
<stop offset="1" stop-color="#E0E6EB"/>
</linearGradient>
<linearGradient id="paint50_linear_1_486" x1="269.804" y1="120.549" x2="268.598" y2="110.564" gradientUnits="userSpaceOnUse">
<stop stop-color="#618CB4"/>
<stop offset="1" stop-color="white" stop-opacity="0"/>
</linearGradient>
<linearGradient id="paint51_linear_1_486" x1="242.154" y1="82.2701" x2="244.852" y2="74.2195" gradientUnits="userSpaceOnUse">
<stop stop-color="#E19494"/>
<stop offset="0.0001" stop-color="#B0DEE5"/>
<stop offset="0.0208333" stop-color="#DDF8FC"/>
<stop offset="0.598958" stop-color="#3D5B5F"/>
<stop offset="0.901042" stop-color="#E0E9EB"/>
<stop offset="1" stop-color="#E0E9EB"/>
</linearGradient>
<linearGradient id="paint52_linear_1_486" x1="230.893" y1="74.0183" x2="241.569" y2="77.5965" gradientUnits="userSpaceOnUse">
<stop stop-color="#618CB4"/>
<stop offset="1" stop-color="white" stop-opacity="0"/>
</linearGradient>
<linearGradient id="paint53_linear_1_486" x1="233.471" y1="69.3005" x2="230.752" y2="77.4147" gradientUnits="userSpaceOnUse">
<stop stop-color="#DDF5FC"/>
<stop offset="0.0001" stop-color="#3D555F"/>
<stop offset="0.901042" stop-color="#E0E9EB"/>
<stop offset="1" stop-color="#E0E6EB"/>
</linearGradient>
<linearGradient id="paint54_linear_1_486" x1="240.828" y1="76.2788" x2="235.166" y2="69.8709" gradientUnits="userSpaceOnUse">
<stop stop-color="#618CB4"/>
<stop offset="1" stop-color="white" stop-opacity="0"/>
</linearGradient>
<clipPath id="clip0_1_486">
<rect width="367" height="347" fill="white"/>
</clipPath>
<clipPath id="clip1_1_486">
<rect width="109.473" height="108.243" fill="white" transform="matrix(-0.994457 0.105147 -0.406237 0.913768 176.343 29.9183)"/>
</clipPath>
</defs>
</svg>
